Life BT Bold Italic.ufo
<glyph name="exclam" format="1">
  <advance width="864"/>
  <unicode hex="0021"/>
  <outline>
    <contour>
      <point x="322" y="307" type="qcurve" smooth="yes"/>
      <point x="388" y="307"/>
      <point x="432" y="266" type="qcurve"/>
      <point x="475" y="224"/>
      <point x="475" y="160" type="qcurve" smooth="yes"/>
      <point x="475" y="76"/>
      <point x="426" y="26" type="qcurve"/>
      <point x="377" y="-27"/>
      <point x="301" y="-27" type="qcurve" smooth="yes"/>
      <point x="234" y="-27"/>
      <point x="188" y="17" type="qcurve"/>
      <point x="145" y="62"/>
      <point x="145" y="131" type="qcurve" smooth="yes"/>
      <point x="145" y="204"/>
      <point x="196" y="256" type="qcurve"/>
      <point x="248" y="307"/>
    </contour>
    <contour>
      <point x="397" y="465" type="qcurve"/>
      <point x="330" y="473" type="line"/>
      <point x="370" y="714"/>
      <point x="387" y="1063" type="qcurve" smooth="yes"/>
      <point x="391" y="1142"/>
      <point x="395" y="1200" type="qcurve" smooth="yes"/>
      <point x="405" y="1345"/>
      <point x="451" y="1418" type="qcurve" smooth="yes"/>
      <point x="496" y="1491"/>
      <point x="575" y="1491" type="qcurve" smooth="yes"/>
      <point x="645" y="1491"/>
      <point x="682" y="1454" type="qcurve" smooth="yes"/>
      <point x="719" y="1418"/>
      <point x="719" y="1350" type="qcurve" smooth="yes"/>
      <point x="719" y="1269"/>
      <point x="592" y="974" type="qcurve"/>
      <point x="467" y="691"/>
    </contour>
  </outline>
</glyph>
<glyph name="dollar" format="1">
  <advance width="1188"/>
  <unicode hex="0024"/>
  <outline>
    <contour>
      <point x="627" y="551" type="qcurve"/>
      <point x="523" y="78" type="line"/>
      <point x="629" y="83"/>
      <point x="694" y="143" type="qcurve" smooth="yes"/>
      <point x="760" y="205"/>
      <point x="760" y="297" type="qcurve" smooth="yes"/>
      <point x="760" y="351"/>
      <point x="728" y="412" type="qcurve"/>
      <point x="698" y="473"/>
    </contour>
    <contour>
      <point x="716" y="1352" type="line"/>
      <point x="616" y="1349"/>
      <point x="562" y="1298" type="qcurve"/>
      <point x="506" y="1248"/>
      <point x="506" y="1157" type="qcurve" smooth="yes"/>
      <point x="506" y="1122"/>
      <point x="534" y="1072" type="qcurve"/>
      <point x="568" y="1019"/>
      <point x="629" y="954" type="qcurve"/>
    </contour>
    <contour>
      <point x="766" y="1577" type="line"/>
      <point x="854" y="1577" type="line"/>
      <point x="822" y="1423" type="line"/>
      <point x="838" y="1419"/>
      <point x="880" y="1408" type="qcurve" smooth="yes"/>
      <point x="981" y="1382"/>
      <point x="1024" y="1382" type="qcurve" smooth="yes"/>
      <point x="1047" y="1382"/>
      <point x="1074" y="1387" type="qcurve" smooth="yes"/>
      <point x="1092" y="1391"/>
      <point x="1114" y="1400" type="qcurve"/>
      <point x="1106" y="1352"/>
      <point x="1082" y="1202" type="qcurve" smooth="yes"/>
      <point x="1069" y="1119"/>
      <point x="1061" y="1053" type="qcurve"/>
      <point x="995" y="1053" type="line"/>
      <point x="995" y="1079" type="line" smooth="yes"/>
      <point x="995" y="1194"/>
      <point x="946" y="1261" type="qcurve" smooth="yes"/>
      <point x="898" y="1328"/>
      <point x="803" y="1348" type="qcurve"/>
      <point x="702" y="881" type="line"/>
      <point x="861" y="717"/>
      <point x="922" y="612" type="qcurve" smooth="yes"/>
      <point x="983" y="506"/>
      <point x="983" y="403" type="qcurve" smooth="yes"/>
      <point x="983" y="213"/>
      <point x="850" y="96" type="qcurve"/>
      <point x="719" y="-23"/>
      <point x="504" y="-23" type="qcurve" smooth="yes"/>
      <point x="500" y="-23" type="line"/>
      <point x="434" y="-319" type="line"/>
      <point x="346" y="-319" type="line"/>
      <point x="414" y="-10" type="line"/>
      <point x="372" y="1"/>
      <point x="348" y="7" type="qcurve" smooth="yes"/>
      <point x="204" y="47"/>
      <point x="143" y="47" type="qcurve" smooth="yes"/>
      <point x="139" y="47"/>
      <point x="128" y="46"/>
      <point x="106" y="45"/>
      <point x="97" y="45" type="qcurve" smooth="yes"/>
      <point x="93" y="45"/>
      <point x="77" y="44"/>
      <point x="74" y="43" type="qcurve"/>
      <point x="89" y="131"/>
      <point x="102" y="244" type="qcurve" smooth="yes"/>
      <point x="112" y="323"/>
      <point x="125" y="459" type="qcurve"/>
      <point x="193" y="459" type="line"/>
      <point x="193" y="438" type="line" smooth="yes"/>
      <point x="193" y="288"/>
      <point x="256" y="197" type="qcurve" smooth="yes"/>
      <point x="318" y="106"/>
      <point x="436" y="86" type="qcurve"/>
      <point x="555" y="627" type="line"/>
      <point x="397" y="788"/>
      <point x="344" y="880" type="qcurve"/>
      <point x="287" y="976"/>
      <point x="287" y="1069" type="qcurve" smooth="yes"/>
      <point x="287" y="1232"/>
      <point x="404" y="1332" type="qcurve" smooth="yes"/>
      <point x="522" y="1432"/>
      <point x="717" y="1432" type="qcurve" smooth="yes"/>
      <point x="733" y="1432" type="line"/>
    </contour>
  </outline>
</glyph>
<glyph name="percent" format="1">
  <advance width="1894"/>
  <unicode hex="0025"/>
  <outline>
    <contour>
      <point x="1640" y="520" type="qcurve" smooth="yes"/>
      <point x="1640" y="608"/>
      <point x="1602" y="658" type="qcurve"/>
      <point x="1563" y="707"/>
      <point x="1493" y="707" type="qcurve" smooth="yes"/>
      <point x="1449" y="707"/>
      <point x="1408" y="685" type="qcurve" smooth="yes"/>
      <point x="1365" y="662"/>
      <point x="1333" y="623" type="qcurve" smooth="yes"/>
      <point x="1276" y="553"/>
      <point x="1243" y="456" type="qcurve" smooth="yes"/>
      <point x="1210" y="358"/>
      <point x="1210" y="264" type="qcurve" smooth="yes"/>
      <point x="1210" y="178"/>
      <point x="1292" y="78"/>
      <point x="1362" y="78" type="qcurve" smooth="yes"/>
      <point x="1474" y="78"/>
      <point x="1556" y="208" type="qcurve"/>
      <point x="1640" y="338"/>
    </contour>
    <contour>
      <point x="1481" y="791" type="qcurve" smooth="yes"/>
      <point x="1623" y="791"/>
      <point x="1704" y="710" type="qcurve" smooth="yes"/>
      <point x="1786" y="628"/>
      <point x="1786" y="485" type="qcurve" smooth="yes"/>
      <point x="1786" y="405"/>
      <point x="1760" y="324" type="qcurve"/>
      <point x="1733" y="244"/>
      <point x="1683" y="176" type="qcurve"/>
      <point x="1605" y="73"/>
      <point x="1514" y="22" type="qcurve"/>
      <point x="1422" y="-27"/>
      <point x="1309" y="-27" type="qcurve" smooth="yes"/>
      <point x="1173" y="-27"/>
      <point x="1091" y="58" type="qcurve" smooth="yes"/>
      <point x="1008" y="143"/>
      <point x="1008" y="279" type="qcurve" smooth="yes"/>
      <point x="1008" y="384"/>
      <point x="1056" y="486" type="qcurve"/>
      <point x="1103" y="589"/>
      <point x="1190" y="670" type="qcurve"/>
      <point x="1254" y="728"/>
      <point x="1328" y="760" type="qcurve" smooth="yes"/>
      <point x="1400" y="791"/>
    </contour>
    <contour>
      <point x="739" y="1163" type="qcurve" smooth="yes"/>
      <point x="739" y="1252"/>
      <point x="700" y="1301" type="qcurve" smooth="yes"/>
      <point x="661" y="1350"/>
      <point x="590" y="1350" type="qcurve" smooth="yes"/>
      <point x="550" y="1350"/>
      <point x="507" y="1327" type="qcurve" smooth="yes"/>
      <point x="465" y="1304"/>
      <point x="432" y="1264" type="qcurve" smooth="yes"/>
      <point x="375" y="1194"/>
      <point x="309" y="1004"/>
      <point x="309" y="907" type="qcurve" smooth="yes"/>
      <point x="309" y="821"/>
      <point x="349" y="772" type="qcurve" smooth="yes"/>
      <point x="390" y="721"/>
      <point x="457" y="721" type="qcurve" smooth="yes"/>
      <point x="571" y="721"/>
      <point x="654" y="852" type="qcurve"/>
      <point x="739" y="980"/>
    </contour>
    <contour>
      <point x="1364" y="1432" type="line"/>
      <point x="1448" y="1384" type="line"/>
      <point x="537" y="-27" type="line"/>
      <point x="451" y="18" type="line"/>
    </contour>
    <contour>
      <point x="580" y="1432" type="line" smooth="yes"/>
      <point x="722" y="1432"/>
      <point x="804" y="1350" type="qcurve" smooth="yes"/>
      <point x="885" y="1269"/>
      <point x="885" y="1126" type="qcurve" smooth="yes"/>
      <point x="885" y="1044"/>
      <point x="858" y="965" type="qcurve" smooth="yes"/>
      <point x="830" y="883"/>
      <point x="782" y="819" type="qcurve" smooth="yes"/>
      <point x="705" y="715"/>
      <point x="614" y="665" type="qcurve"/>
      <point x="524" y="614"/>
      <point x="414" y="614" type="qcurve" smooth="yes"/>
      <point x="274" y="614"/>
      <point x="106" y="782"/>
      <point x="106" y="922" type="qcurve" smooth="yes"/>
      <point x="106" y="1026"/>
      <point x="202" y="1230"/>
      <point x="289" y="1311" type="qcurve" smooth="yes"/>
      <point x="351" y="1370"/>
      <point x="424" y="1400" type="qcurve"/>
      <point x="495" y="1432"/>
      <point x="573" y="1432" type="qcurve" smooth="yes"/>
    </contour>
  </outline>
</glyph>
<glyph name="ampersand" format="1">
  <advance width="1702"/>
  <unicode hex="0026"/>
  <outline>
    <contour>
      <point x="547" y="754" type="qcurve"/>
      <point x="433" y="689"/>
      <point x="380" y="612" type="qcurve"/>
      <point x="326" y="536"/>
      <point x="326" y="436" type="qcurve" smooth="yes"/>
      <point x="326" y="318"/>
      <point x="404" y="234" type="qcurve" smooth="yes"/>
      <point x="481" y="152"/>
      <point x="592" y="152" type="qcurve" smooth="yes"/>
      <point x="643" y="152"/>
      <point x="698" y="172" type="qcurve" smooth="yes"/>
      <point x="754" y="193"/>
      <point x="807" y="233" type="qcurve"/>
      <point x="719" y="351"/>
      <point x="652" y="483" type="qcurve"/>
      <point x="588" y="612"/>
    </contour>
    <contour>
      <point x="799" y="881" type="qcurve"/>
      <point x="839" y="745"/>
      <point x="885" y="642" type="qcurve" smooth="yes"/>
      <point x="935" y="530"/>
      <point x="997" y="434" type="qcurve"/>
      <point x="1091" y="541"/>
      <point x="1137" y="616" type="qcurve" smooth="yes"/>
      <point x="1184" y="693"/>
      <point x="1184" y="735" type="qcurve" smooth="yes"/>
      <point x="1184" y="759"/>
      <point x="1161" y="773" type="qcurve" smooth="yes"/>
      <point x="1139" y="786"/>
      <point x="1094" y="791" type="qcurve"/>
      <point x="1094" y="856" type="line"/>
      <point x="1143" y="851"/>
      <point x="1194" y="848" type="qcurve"/>
      <point x="1276" y="846"/>
      <point x="1356" y="846" type="qcurve" smooth="yes"/>
      <point x="1410" y="846"/>
      <point x="1468" y="848" type="qcurve"/>
      <point x="1506" y="851"/>
      <point x="1542" y="856" type="qcurve"/>
      <point x="1542" y="791" type="line"/>
      <point x="1473" y="783"/>
      <point x="1424" y="755" type="qcurve" smooth="yes"/>
      <point x="1371" y="725"/>
      <point x="1329" y="672" type="qcurve" smooth="yes"/>
      <point x="1323" y="664"/>
      <point x="1234" y="547" type="qcurve" smooth="yes"/>
      <point x="1154" y="442"/>
      <point x="1067" y="342" type="qcurve"/>
      <point x="1144" y="232"/>
      <point x="1223" y="178" type="qcurve"/>
      <point x="1303" y="125"/>
      <point x="1386" y="125" type="qcurve" smooth="yes"/>
      <point x="1440" y="125"/>
      <point x="1494" y="142" type="qcurve"/>
      <point x="1547" y="160"/>
      <point x="1599" y="195" type="qcurve"/>
      <point x="1638" y="135" type="line"/>
      <point x="1555" y="58"/>
      <point x="1456" y="16" type="qcurve" smooth="yes"/>
      <point x="1357" y="-27"/>
      <point x="1257" y="-27" type="qcurve" smooth="yes"/>
      <point x="1150" y="-27"/>
      <point x="1057" y="17" type="qcurve" smooth="yes"/>
      <point x="966" y="60"/>
      <point x="877" y="154" type="qcurve"/>
      <point x="764" y="65"/>
      <point x="645" y="18" type="qcurve"/>
      <point x="526" y="-27"/>
      <point x="410" y="-27" type="qcurve" smooth="yes"/>
      <point x="240" y="-27"/>
      <point x="133" y="68" type="qcurve"/>
      <point x="27" y="164"/>
      <point x="27" y="317" type="qcurve" smooth="yes"/>
      <point x="27" y="472"/>
      <point x="150" y="604" type="qcurve" smooth="yes"/>
      <point x="272" y="735"/>
      <point x="524" y="852" type="qcurve"/>
      <point x="516" y="905"/>
      <point x="512" y="940" type="qcurve" smooth="yes"/>
      <point x="508" y="973"/>
      <point x="508" y="1006" type="qcurve" smooth="yes"/>
      <point x="508" y="1216"/>
      <point x="638" y="1353" type="qcurve" smooth="yes"/>
      <point x="768" y="1491"/>
      <point x="965" y="1491" type="qcurve" smooth="yes"/>
      <point x="1078" y="1491"/>
      <point x="1208" y="1389"/>
      <point x="1208" y="1300" type="qcurve" smooth="yes"/>
      <point x="1208" y="1177"/>
      <point x="1108" y="1076" type="qcurve"/>
      <point x="1008" y="972"/>
    </contour>
    <contour>
      <point x="778" y="981" type="qcurve"/>
      <point x="888" y="1040"/>
      <point x="946" y="1125" type="qcurve"/>
      <point x="1006" y="1210"/>
      <point x="1006" y="1311" type="qcurve" smooth="yes"/>
      <point x="1006" y="1358"/>
      <point x="988" y="1384" type="qcurve"/>
      <point x="972" y="1409"/>
      <point x="938" y="1409" type="qcurve" smooth="yes"/>
      <point x="872" y="1409"/>
      <point x="816" y="1316" type="qcurve"/>
      <point x="762" y="1224"/>
      <point x="762" y="1096" type="qcurve" smooth="yes"/>
      <point x="762" y="1072"/>
      <point x="766" y="1048" type="qcurve" smooth="yes"/>
      <point x="770" y="1020"/>
    </contour>
  </outline>
</glyph>
<glyph name="parenleft" format="1">
  <advance width="891"/>
  <unicode hex="0028"/>
  <outline>
    <contour>
      <point x="848" y="1491" type="qcurve"/>
      <point x="899" y="1450" type="line"/>
      <point x="685" y="1213"/>
      <point x="574" y="884" type="qcurve"/>
      <point x="461" y="554"/>
      <point x="461" y="158" type="qcurve" smooth="yes"/>
      <point x="461" y="19"/>
      <point x="478" y="-106" type="qcurve"/>
      <point x="496" y="-223"/>
      <point x="528" y="-311" type="qcurve"/>
      <point x="469" y="-340" type="line"/>
      <point x="342" y="-175"/>
      <point x="282" y="-10" type="qcurve"/>
      <point x="221" y="152"/>
      <point x="221" y="332" type="qcurve" smooth="yes"/>
      <point x="221" y="644"/>
      <point x="377" y="932" type="qcurve"/>
      <point x="532" y="1221"/>
    </contour>
  </outline>
</glyph>
<glyph name="parenright" format="1">
  <advance width="891"/>
  <unicode hex="0029"/>
  <outline>
    <contour>
      <point x="354" y="1491" type="line"/>
      <point x="480" y="1324"/>
      <point x="600" y="998"/>
      <point x="600" y="819" type="qcurve" smooth="yes"/>
      <point x="600" y="508"/>
      <point x="444" y="218" type="qcurve" smooth="yes"/>
      <point x="288" y="-70"/>
      <point x="-27" y="-340" type="qcurve"/>
      <point x="-76" y="-299" type="line"/>
      <point x="133" y="-67"/>
      <point x="248" y="266" type="qcurve"/>
      <point x="360" y="599"/>
      <point x="360" y="983" type="qcurve" smooth="yes"/>
      <point x="360" y="1140"/>
      <point x="344" y="1256" type="qcurve" smooth="yes"/>
      <point x="327" y="1378"/>
      <point x="295" y="1462" type="qcurve"/>
    </contour>
  </outline>
</glyph>
<glyph name="asterisk" format="1">
  <advance width="1155"/>
  <unicode hex="002A"/>
  <outline>
    <contour>
      <point x="623" y="1053" type="qcurve"/>
      <point x="639" y="1053" type="line"/>
      <point x="642" y="1046"/>
      <point x="658" y="1003"/>
      <point x="664" y="988" type="qcurve" smooth="yes"/>
      <point x="719" y="851"/>
      <point x="719" y="771"/>
      <point x="696" y="750" type="qcurve"/>
      <point x="673" y="727"/>
      <point x="589" y="727"/>
      <point x="566" y="750" type="qcurve"/>
      <point x="543" y="775"/>
      <point x="543" y="817" type="qcurve" smooth="yes"/>
      <point x="543" y="840"/>
      <point x="561" y="894" type="qcurve" smooth="yes"/>
      <point x="577" y="942"/>
    </contour>
    <contour>
      <point x="682" y="1085" type="line"/>
      <point x="873" y="1055"/>
      <point x="924" y="1030" type="qcurve"/>
      <point x="971" y="1003"/>
      <point x="971" y="956" type="qcurve" smooth="yes"/>
      <point x="971" y="922"/>
      <point x="944" y="892" type="qcurve" smooth="yes"/>
      <point x="918" y="864"/>
      <point x="885" y="864" type="qcurve" smooth="yes"/>
      <point x="824" y="864"/>
      <point x="700" y="1036" type="qcurve" smooth="yes"/>
      <point x="695" y="1044"/>
      <point x="677" y="1068"/>
      <point x="674" y="1073" type="qcurve"/>
    </contour>
    <contour>
      <point x="580" y="1085" type="qcurve"/>
      <point x="587" y="1074" type="line"/>
      <point x="584" y="1069"/>
      <point x="561" y="1036" type="qcurve" smooth="yes"/>
      <point x="438" y="864"/>
      <point x="377" y="864" type="qcurve" smooth="yes"/>
      <point x="343" y="864"/>
      <point x="317" y="892" type="qcurve"/>
      <point x="291" y="923"/>
      <point x="291" y="956" type="qcurve" smooth="yes"/>
      <point x="291" y="1003"/>
      <point x="338" y="1030" type="qcurve"/>
      <point x="389" y="1055"/>
    </contour>
    <contour>
      <point x="684" y="1133" type="qcurve"/>
      <point x="676" y="1145" type="line"/>
      <point x="679" y="1150"/>
      <point x="697" y="1174"/>
      <point x="702" y="1182" type="qcurve" smooth="yes"/>
      <point x="826" y="1354"/>
      <point x="887" y="1354" type="qcurve" smooth="yes"/>
      <point x="919" y="1354"/>
      <point x="945" y="1326" type="qcurve"/>
      <point x="971" y="1295"/>
      <point x="971" y="1262" type="qcurve" smooth="yes"/>
      <point x="971" y="1214"/>
      <point x="922" y="1188" type="qcurve"/>
      <point x="868" y="1161"/>
    </contour>
    <contour>
      <point x="586" y="1145" type="qcurve"/>
      <point x="580" y="1133" type="line"/>
      <point x="398" y="1160"/>
      <point x="344" y="1186" type="qcurve"/>
      <point x="291" y="1213"/>
      <point x="291" y="1262" type="qcurve" smooth="yes"/>
      <point x="291" y="1295"/>
      <point x="317" y="1326" type="qcurve"/>
      <point x="343" y="1354"/>
      <point x="375" y="1354" type="qcurve" smooth="yes"/>
      <point x="434" y="1354"/>
      <point x="553" y="1190" type="qcurve" smooth="yes"/>
      <point x="574" y="1162"/>
    </contour>
    <contour>
      <point x="639" y="1165" type="line"/>
      <point x="623" y="1165" type="line"/>
      <point x="576" y="1276"/>
      <point x="560" y="1323" type="qcurve"/>
      <point x="543" y="1377"/>
      <point x="543" y="1399" type="qcurve" smooth="yes"/>
      <point x="543" y="1441"/>
      <point x="566" y="1466" type="qcurve" smooth="yes"/>
      <point x="588" y="1491"/>
      <point x="631" y="1491" type="qcurve" smooth="yes"/>
      <point x="669" y="1491"/>
      <point x="694" y="1468" type="qcurve" smooth="yes"/>
      <point x="719" y="1444"/>
      <point x="719" y="1405" type="qcurve" smooth="yes"/>
      <point x="719" y="1360"/>
      <point x="652" y="1198" type="qcurve"/>
    </contour>
  </outline>
</glyph>
<glyph name="plus" format="1">
  <advance width="1706"/>
  <unicode hex="002B"/>
  <outline>
    <contour>
      <point x="752" y="1221" type="line"/>
      <point x="954" y="1221" type="line"/>
      <point x="954" y="711" type="line"/>
      <point x="1452" y="711" type="line"/>
      <point x="1452" y="512" type="line"/>
      <point x="954" y="512" type="line"/>
      <point x="954" y="0" type="line"/>
      <point x="752" y="0" type="line"/>
      <point x="752" y="512" type="line"/>
      <point x="254" y="512" type="line"/>
      <point x="254" y="711" type="line"/>
      <point x="752" y="711" type="line"/>
    </contour>
  </outline>
</glyph>
<glyph name="comma" format="1">
  <advance width="594"/>
  <unicode hex="002C"/>
  <outline>
    <contour>
      <point x="-96" y="-307" type="qcurve"/>
      <point x="-106" y="-248" type="line"/>
      <point x="11" y="-223"/>
      <point x="89" y="-163" type="qcurve" smooth="yes"/>
      <point x="165" y="-105"/>
      <point x="195" y="-14" type="qcurve"/>
      <point x="173" y="-23"/>
      <point x="156" y="-27" type="qcurve" smooth="yes"/>
      <point x="143" y="-31"/>
      <point x="127" y="-31" type="qcurve" smooth="yes"/>
      <point x="78" y="-31"/>
      <point x="48" y="4" type="qcurve" smooth="yes"/>
      <point x="18" y="40"/>
      <point x="18" y="98" type="qcurve" smooth="yes"/>
      <point x="18" y="179"/>
      <point x="72" y="236" type="qcurve" smooth="yes"/>
      <point x="125" y="291"/>
      <point x="205" y="291" type="qcurve" smooth="yes"/>
      <point x="274" y="291"/>
      <point x="318" y="240" type="qcurve" smooth="yes"/>
      <point x="362" y="188"/>
      <point x="362" y="109" type="qcurve" smooth="yes"/>
      <point x="362" y="-48"/>
      <point x="236" y="-162" type="qcurve"/>
      <point x="111" y="-278"/>
    </contour>
  </outline>
</glyph>
<glyph name="hyphen" format="1">
  <advance width="809"/>
  <unicode hex="002D"/>
  <outline>
    <contour>
      <point x="109" y="616" type="line"/>
      <point x="659" y="616" type="line"/>
      <point x="604" y="367" type="line"/>
      <point x="53" y="367" type="line"/>
    </contour>
  </outline>
</glyph>
<glyph name="period" format="1">
  <advance width="594"/>
  <unicode hex="002E"/>
  <outline>
    <contour>
      <point x="209" y="307" type="qcurve" smooth="yes"/>
      <point x="275" y="307"/>
      <point x="318" y="266" type="qcurve" smooth="yes"/>
      <point x="360" y="225"/>
      <point x="360" y="160" type="qcurve" smooth="yes"/>
      <point x="360" y="77"/>
      <point x="310" y="24" type="qcurve"/>
      <point x="260" y="-27"/>
      <point x="178" y="-27" type="qcurve" smooth="yes"/>
      <point x="115" y="-27"/>
      <point x="31" y="63"/>
      <point x="31" y="131" type="qcurve" smooth="yes"/>
      <point x="31" y="204"/>
      <point x="83" y="256" type="qcurve"/>
      <point x="136" y="307"/>
    </contour>
  </outline>
</glyph>
<glyph name="slash" format="1">
  <advance width="907"/>
  <unicode hex="002F"/>
  <outline>
    <contour>
      <point x="844" y="1491" type="line"/>
      <point x="985" y="1491" type="line"/>
      <point x="0" y="-217" type="line"/>
      <point x="-141" y="-217" type="line"/>
    </contour>
  </outline>
</glyph>
<glyph name="zero" format="1">
  <advance width="1188"/>
  <unicode hex="0030"/>
  <outline>
    <contour>
      <point x="668" y="1327"/>
      <point x="614" y="1276" type="qcurve"/>
      <point x="562" y="1225"/>
      <point x="512" y="1114" type="qcurve" smooth="yes"/>
      <point x="447" y="968"/>
      <point x="373" y="580"/>
      <point x="373" y="377" type="qcurve" smooth="yes"/>
      <point x="373" y="252"/>
      <point x="406" y="187" type="qcurve"/>
      <point x="440" y="123"/>
      <point x="506" y="123" type="qcurve" smooth="yes"/>
      <point x="571" y="123"/>
      <point x="622" y="187" type="qcurve"/>
      <point x="675" y="250"/>
      <point x="723" y="387" type="qcurve"/>
      <point x="790" y="584"/>
      <point x="824" y="769" type="qcurve"/>
      <point x="860" y="958"/>
      <point x="860" y="1114" type="qcurve" smooth="yes"/>
      <point x="860" y="1223"/>
      <point x="828" y="1274" type="qcurve"/>
      <point x="798" y="1327"/>
    </contour>
    <contour>
      <point x="764" y="1432" type="qcurve" smooth="yes"/>
      <point x="941" y="1432"/>
      <point x="1042" y="1314" type="qcurve"/>
      <point x="1143" y="1193"/>
      <point x="1143" y="985" type="qcurve" smooth="yes"/>
      <point x="1143" y="760"/>
      <point x="1017" y="352"/>
      <point x="903" y="205" type="qcurve" smooth="yes"/>
      <point x="815" y="91"/>
      <point x="698" y="32" type="qcurve" smooth="yes"/>
      <point x="580" y="-27"/>
      <point x="444" y="-27" type="qcurve" smooth="yes"/>
      <point x="260" y="-27"/>
      <point x="152" y="100" type="qcurve" smooth="yes"/>
      <point x="45" y="227"/>
      <point x="45" y="444" type="qcurve" smooth="yes"/>
      <point x="45" y="508"/>
      <point x="53" y="577" type="qcurve" smooth="yes"/>
      <point x="60" y="639"/>
      <point x="76" y="694" type="qcurve" smooth="yes"/>
      <point x="126" y="876"/>
      <point x="177" y="988" type="qcurve" smooth="yes"/>
      <point x="226" y="1095"/>
      <point x="297" y="1184" type="qcurve" smooth="yes"/>
      <point x="398" y="1310"/>
      <point x="512" y="1371" type="qcurve" smooth="yes"/>
      <point x="625" y="1432"/>
    </contour>
  </outline>
</glyph>
<glyph name="one" format="1">
  <advance width="1188"/>
  <unicode hex="0031"/>
  <outline>
    <contour>
      <point x="913" y="1432" type="line"/>
      <point x="647" y="229" type="line" smooth="yes"/>
      <point x="642" y="206"/>
      <point x="635" y="171" type="qcurve" smooth="yes"/>
      <point x="631" y="151"/>
      <point x="631" y="135" type="qcurve" smooth="yes"/>
      <point x="631" y="93"/>
      <point x="660" y="78" type="qcurve"/>
      <point x="689" y="61"/>
      <point x="772" y="59" type="qcurve"/>
      <point x="772" y="-6" type="line"/>
      <point x="767" y="-6"/>
      <point x="705" y="-3"/>
      <point x="682" y="-2" type="qcurve" smooth="yes"/>
      <point x="485" y="6"/>
      <point x="430" y="6" type="qcurve" smooth="yes"/>
      <point x="386" y="6"/>
      <point x="310" y="3" type="qcurve" smooth="yes"/>
      <point x="237" y="0"/>
      <point x="129" y="-6" type="qcurve"/>
      <point x="129" y="59" type="line"/>
      <point x="237" y="59"/>
      <point x="281" y="91" type="qcurve" smooth="yes"/>
      <point x="324" y="122"/>
      <point x="350" y="242" type="qcurve" smooth="yes"/>
      <point x="530" y="1056" type="line" smooth="yes"/>
      <point x="534" y="1076"/>
      <point x="535" y="1080" type="qcurve" smooth="yes"/>
      <point x="537" y="1094" type="line"/>
      <point x="537" y="1108"/>
      <point x="530" y="1116" type="qcurve"/>
      <point x="523" y="1126"/>
      <point x="514" y="1126" type="qcurve" smooth="yes"/>
      <point x="489" y="1126"/>
      <point x="442" y="1110" type="qcurve" smooth="yes"/>
      <point x="384" y="1090"/>
      <point x="326" y="1063" type="qcurve"/>
      <point x="303" y="1118" type="line"/>
    </contour>
  </outline>
</glyph>
<glyph name="two" format="1">
  <advance width="1188"/>
  <unicode hex="0032"/>
  <outline>
    <contour>
      <point x="729" y="551" type="qcurve" smooth="yes"/>
      <point x="348" y="274" type="line"/>
      <point x="834" y="274" type="line" smooth="yes"/>
      <point x="886" y="274"/>
      <point x="922" y="304"/>
      <point x="940" y="344" type="qcurve"/>
      <point x="1020" y="344" type="line"/>
      <point x="1000" y="284"/>
      <point x="961" y="183" type="qcurve" smooth="yes"/>
      <point x="935" y="114"/>
      <point x="887" y="0" type="qcurve"/>
      <point x="297" y="0" type="line" smooth="yes"/>
      <point x="218" y="0"/>
      <point x="166" y="-2" type="qcurve"/>
      <point x="122" y="-2"/>
      <point x="-8" y="-6" type="qcurve"/>
      <point x="-8" y="84" type="line"/>
      <point x="422" y="471" type="line"/>
      <point x="607" y="636"/>
      <point x="685" y="756" type="qcurve"/>
      <point x="762" y="877"/>
      <point x="762" y="987" type="qcurve" smooth="yes"/>
      <point x="762" y="1094"/>
      <point x="702" y="1155" type="qcurve"/>
      <point x="643" y="1217"/>
      <point x="541" y="1217" type="qcurve" smooth="yes"/>
      <point x="451" y="1217"/>
      <point x="382" y="1154" type="qcurve"/>
      <point x="316" y="1091"/>
      <point x="281" y="975" type="qcurve"/>
      <point x="211" y="975" type="line"/>
      <point x="240" y="1199"/>
      <point x="364" y="1316" type="qcurve"/>
      <point x="491" y="1432"/>
      <point x="705" y="1432" type="qcurve" smooth="yes"/>
      <point x="889" y="1432"/>
      <point x="990" y="1332" type="qcurve"/>
      <point x="1094" y="1234"/>
      <point x="1094" y="1059" type="qcurve" smooth="yes"/>
      <point x="1094" y="928"/>
      <point x="1016" y="814" type="qcurve"/>
      <point x="935" y="700"/>
    </contour>
  </outline>
</glyph>
<glyph name="three" format="1">
  <advance width="1188"/>
  <unicode hex="0033"/>
  <outline>
    <contour>
      <point x="387" y="1405" type="qcurve"/>
      <point x="1176" y="1405" type="line"/>
      <point x="588" y="844" type="line"/>
      <point x="612" y="844" type="line" smooth="yes"/>
      <point x="786" y="844"/>
      <point x="892" y="749" type="qcurve"/>
      <point x="995" y="654"/>
      <point x="995" y="494" type="qcurve" smooth="yes"/>
      <point x="995" y="393"/>
      <point x="952" y="300" type="qcurve"/>
      <point x="909" y="202"/>
      <point x="831" y="127" type="qcurve"/>
      <point x="755" y="51"/>
      <point x="655" y="12" type="qcurve" smooth="yes"/>
      <point x="554" y="-27"/>
      <point x="434" y="-27" type="qcurve" smooth="yes"/>
      <point x="279" y="-27"/>
      <point x="160" y="41" type="qcurve" smooth="yes"/>
      <point x="42" y="108"/>
      <point x="-31" y="240" type="qcurve"/>
      <point x="27" y="285" type="line"/>
      <point x="102" y="187"/>
      <point x="176" y="142" type="qcurve" smooth="yes"/>
      <point x="250" y="98"/>
      <point x="336" y="98" type="qcurve" smooth="yes"/>
      <point x="472" y="98"/>
      <point x="568" y="214" type="qcurve" smooth="yes"/>
      <point x="664" y="330"/>
      <point x="664" y="496" type="qcurve" smooth="yes"/>
      <point x="664" y="613"/>
      <point x="598" y="676" type="qcurve"/>
      <point x="534" y="739"/>
      <point x="412" y="739" type="qcurve" smooth="yes"/>
      <point x="392" y="739"/>
      <point x="354" y="736" type="qcurve" smooth="yes"/>
      <point x="351" y="735"/>
      <point x="348" y="735" type="qcurve"/>
      <point x="774" y="1145" type="line"/>
      <point x="408" y="1145" type="line" smooth="yes"/>
      <point x="355" y="1145"/>
      <point x="337" y="1130" type="qcurve"/>
      <point x="319" y="1117"/>
      <point x="301" y="1077" type="qcurve"/>
      <point x="221" y="1077" type="line"/>
      <point x="285" y="1199"/>
      <point x="310" y="1249" type="qcurve" smooth="yes"/>
      <point x="363" y="1355"/>
    </contour>
  </outline>
</glyph>
<glyph name="four" format="1">
  <advance width="1188"/>
  <unicode hex="0034"/>
  <outline>
    <contour>
      <point x="729" y="1083" type="line"/>
      <point x="217" y="582" type="line"/>
      <point x="602" y="582" type="line"/>
    </contour>
    <contour>
      <point x="930" y="1432" type="line"/>
      <point x="1081" y="1432" type="line"/>
      <point x="879" y="582" type="line"/>
      <point x="1067" y="582" type="line"/>
      <point x="1030" y="371" type="line"/>
      <point x="1008" y="373"/>
      <point x="982" y="375"/>
      <point x="934" y="375" type="qcurve" smooth="yes"/>
      <point x="829" y="375" type="line"/>
      <point x="737" y="0" type="line"/>
      <point x="455" y="0" type="line"/>
      <point x="549" y="375" type="line"/>
      <point x="53" y="375" type="line"/>
      <point x="53" y="578" type="line"/>
    </contour>
  </outline>
</glyph>
<glyph name="five" format="1">
  <advance width="1188"/>
  <unicode hex="0035"/>
  <outline>
    <contour>
      <point x="991" y="1473" type="qcurve"/>
      <point x="1071" y="1473" type="line"/>
      <point x="1061" y="1444"/>
      <point x="1023" y="1326"/>
      <point x="1014" y="1298" type="qcurve" smooth="yes"/>
      <point x="999" y="1248"/>
      <point x="967" y="1145" type="qcurve"/>
      <point x="389" y="1145" type="line"/>
      <point x="305" y="913" type="line"/>
      <point x="377" y="954"/>
      <point x="442" y="972" type="qcurve"/>
      <point x="510" y="989"/>
      <point x="582" y="989" type="qcurve" smooth="yes"/>
      <point x="759" y="989"/>
      <point x="872" y="870" type="qcurve"/>
      <point x="985" y="749"/>
      <point x="985" y="559" type="qcurve" smooth="yes"/>
      <point x="985" y="461"/>
      <point x="944" y="353" type="qcurve" smooth="yes"/>
      <point x="902" y="245"/>
      <point x="829" y="164" type="qcurve"/>
      <point x="743" y="66"/>
      <point x="640" y="18" type="qcurve"/>
      <point x="534" y="-29"/>
      <point x="403" y="-29" type="qcurve" smooth="yes"/>
      <point x="282" y="-29"/>
      <point x="186" y="17" type="qcurve" smooth="yes"/>
      <point x="87" y="64"/>
      <point x="12" y="154" type="qcurve"/>
      <point x="63" y="199" type="line"/>
      <point x="132" y="140"/>
      <point x="200" y="110" type="qcurve" smooth="yes"/>
      <point x="265" y="82"/>
      <point x="334" y="82" type="qcurve" smooth="yes"/>
      <point x="473" y="82"/>
      <point x="574" y="198" type="qcurve" smooth="yes"/>
      <point x="674" y="314"/>
      <point x="674" y="479" type="qcurve" smooth="yes"/>
      <point x="674" y="620"/>
      <point x="590" y="710" type="qcurve" smooth="yes"/>
      <point x="507" y="799"/>
      <point x="377" y="799" type="qcurve" smooth="yes"/>
      <point x="345" y="799"/>
      <point x="310" y="794" type="qcurve" smooth="yes"/>
      <point x="281" y="790"/>
      <point x="245" y="778" type="qcurve"/>
      <point x="206" y="763"/>
      <point x="200" y="760" type="qcurve"/>
      <point x="178" y="753"/>
      <point x="145" y="737" type="qcurve"/>
      <point x="387" y="1405" type="line"/>
      <point x="885" y="1405" type="line" smooth="yes"/>
      <point x="936" y="1405"/>
      <point x="955" y="1419" type="qcurve" smooth="yes"/>
      <point x="973" y="1432"/>
    </contour>
  </outline>
</glyph>
<glyph name="six" format="1">
  <advance width="1188"/>
  <unicode hex="0036"/>
  <outline>
    <contour>
      <point x="412" y="696" type="qcurve"/>
      <point x="399" y="641"/>
      <point x="393" y="580" type="qcurve" smooth="yes"/>
      <point x="387" y="522"/>
      <point x="387" y="465" type="qcurve" smooth="yes"/>
      <point x="387" y="305"/>
      <point x="501" y="125"/>
      <point x="600" y="125" type="qcurve" smooth="yes"/>
      <point x="691" y="125"/>
      <point x="748" y="216" type="qcurve"/>
      <point x="807" y="306"/>
      <point x="807" y="451" type="qcurve" smooth="yes"/>
      <point x="807" y="587"/>
      <point x="748" y="672" type="qcurve" smooth="yes"/>
      <point x="689" y="758"/>
      <point x="594" y="758" type="qcurve" smooth="yes"/>
      <point x="543" y="758"/>
      <point x="496" y="742" type="qcurve" smooth="yes"/>
      <point x="448" y="725"/>
    </contour>
    <contour>
      <point x="1116" y="1393" type="qcurve"/>
      <point x="1094" y="1333" type="line"/>
      <point x="1044" y="1342"/>
      <point x="1016" y="1345" type="qcurve" smooth="yes"/>
      <point x="989" y="1348"/>
      <point x="967" y="1348" type="qcurve" smooth="yes"/>
      <point x="773" y="1348"/>
      <point x="634" y="1200" type="qcurve"/>
      <point x="492" y="1052"/>
      <point x="434" y="788" type="qcurve"/>
      <point x="527" y="892"/>
      <point x="604" y="934" type="qcurve"/>
      <point x="684" y="979"/>
      <point x="772" y="979" type="qcurve" smooth="yes"/>
      <point x="911" y="979"/>
      <point x="992" y="878" type="qcurve"/>
      <point x="1071" y="776"/>
      <point x="1071" y="598" type="qcurve" smooth="yes"/>
      <point x="1071" y="465"/>
      <point x="1024" y="344" type="qcurve"/>
      <point x="977" y="226"/>
      <point x="885" y="131" type="qcurve"/>
      <point x="804" y="50"/>
      <point x="714" y="12" type="qcurve" smooth="yes"/>
      <point x="624" y="-27"/>
      <point x="512" y="-27" type="qcurve" smooth="yes"/>
      <point x="307" y="-27"/>
      <point x="195" y="102" type="qcurve"/>
      <point x="82" y="230"/>
      <point x="82" y="463" type="qcurve" smooth="yes"/>
      <point x="82" y="697"/>
      <point x="176" y="918" type="qcurve"/>
      <point x="273" y="1139"/>
      <point x="434" y="1278" type="qcurve"/>
      <point x="519" y="1353"/>
      <point x="628" y="1392" type="qcurve"/>
      <point x="733" y="1432"/>
      <point x="856" y="1432" type="qcurve" smooth="yes"/>
      <point x="917" y="1432"/>
      <point x="980" y="1422" type="qcurve" smooth="yes"/>
      <point x="1055" y="1409"/>
    </contour>
  </outline>
</glyph>
<glyph name="seven" format="1">
  <advance width="1188"/>
  <unicode hex="0037"/>
  <outline>
    <contour>
      <point x="344" y="1405" type="qcurve"/>
      <point x="1212" y="1405" type="line"/>
      <point x="1016" y="1088"/>
      <point x="846" y="736" type="qcurve" smooth="yes"/>
      <point x="680" y="392"/>
      <point x="539" y="0" type="qcurve"/>
      <point x="223" y="0" type="line"/>
      <point x="881" y="1128" type="line"/>
      <point x="416" y="1128" type="line" smooth="yes"/>
      <point x="364" y="1128"/>
      <point x="345" y="1114" type="qcurve" smooth="yes"/>
      <point x="327" y="1101"/>
      <point x="309" y="1061" type="qcurve"/>
      <point x="229" y="1061" type="line"/>
      <point x="265" y="1149"/>
      <point x="290" y="1228" type="qcurve"/>
      <point x="313" y="1293"/>
    </contour>
  </outline>
</glyph>
<glyph name="eight" format="1">
  <advance width="1188"/>
  <unicode hex="0038"/>
  <outline>
    <contour>
      <point x="504" y="684" type="qcurve"/>
      <point x="427" y="612"/>
      <point x="384" y="518" type="qcurve" smooth="yes"/>
      <point x="342" y="424"/>
      <point x="342" y="330" type="qcurve" smooth="yes"/>
      <point x="342" y="220"/>
      <point x="402" y="152" type="qcurve"/>
      <point x="464" y="86"/>
      <point x="563" y="86" type="qcurve" smooth="yes"/>
      <point x="655" y="86"/>
      <point x="716" y="144" type="qcurve"/>
      <point x="774" y="205"/>
      <point x="774" y="295" type="qcurve" smooth="yes"/>
      <point x="774" y="364"/>
      <point x="717" y="450" type="qcurve"/>
      <point x="660" y="534"/>
    </contour>
    <contour>
      <point x="801" y="801" type="qcurve"/>
      <point x="927" y="683"/>
      <point x="980" y="594" type="qcurve" smooth="yes"/>
      <point x="1034" y="504"/>
      <point x="1034" y="416" type="qcurve" smooth="yes"/>
      <point x="1034" y="216"/>
      <point x="896" y="94" type="qcurve"/>
      <point x="757" y="-27"/>
      <point x="524" y="-27" type="qcurve" smooth="yes"/>
      <point x="296" y="-27"/>
      <point x="168" y="62" type="qcurve" smooth="yes"/>
      <point x="41" y="150"/>
      <point x="41" y="307" type="qcurve" smooth="yes"/>
      <point x="41" y="453"/>
      <point x="149" y="564" type="qcurve" smooth="yes"/>
      <point x="257" y="676"/>
      <point x="457" y="735" type="qcurve"/>
      <point x="359" y="826"/>
      <point x="320" y="900" type="qcurve"/>
      <point x="279" y="972"/>
      <point x="279" y="1057" type="qcurve" smooth="yes"/>
      <point x="279" y="1230"/>
      <point x="405" y="1331" type="qcurve" smooth="yes"/>
      <point x="532" y="1432"/>
      <point x="752" y="1432" type="qcurve" smooth="yes"/>
      <point x="940" y="1432"/>
      <point x="1043" y="1359" type="qcurve" smooth="yes"/>
      <point x="1147" y="1285"/>
      <point x="1147" y="1155" type="qcurve" smooth="yes"/>
      <point x="1147" y="1042"/>
      <point x="1060" y="954" type="qcurve" smooth="yes"/>
      <point x="971" y="865"/>
    </contour>
    <contour>
      <point x="743" y="858" type="qcurve"/>
      <point x="809" y="914"/>
      <point x="846" y="994" type="qcurve"/>
      <point x="885" y="1075"/>
      <point x="885" y="1159" type="qcurve" smooth="yes"/>
      <point x="885" y="1240"/>
      <point x="843" y="1288" type="qcurve" smooth="yes"/>
      <point x="801" y="1337"/>
      <point x="661" y="1337"/>
      <point x="613" y="1280" type="qcurve" smooth="yes"/>
      <point x="565" y="1222"/>
      <point x="565" y="1135" type="qcurve" smooth="yes"/>
      <point x="565" y="1073"/>
      <point x="606" y="1008" type="qcurve" smooth="yes"/>
      <point x="646" y="945"/>
    </contour>
  </outline>
</glyph>
<glyph name="nine" format="1">
  <advance width="1188"/>
  <unicode hex="0039"/>
  <outline>
    <contour>
      <point x="23" y="72" type="qcurve"/>
      <point x="55" y="135" type="line"/>
      <point x="125" y="105"/>
      <point x="186" y="90" type="qcurve"/>
      <point x="246" y="74"/>
      <point x="293" y="74" type="qcurve" smooth="yes"/>
      <point x="456" y="74"/>
      <point x="586" y="224" type="qcurve"/>
      <point x="716" y="377"/>
      <point x="774" y="637" type="qcurve"/>
      <point x="698" y="558"/>
      <point x="624" y="520" type="qcurve" smooth="yes"/>
      <point x="549" y="481"/>
      <point x="471" y="481" type="qcurve" smooth="yes"/>
      <point x="328" y="481"/>
      <point x="238" y="591" type="qcurve"/>
      <point x="147" y="700"/>
      <point x="147" y="879" type="qcurve" smooth="yes"/>
      <point x="147" y="1122"/>
      <point x="453" y="1432"/>
      <point x="694" y="1432" type="qcurve" smooth="yes"/>
      <point x="898" y="1432"/>
      <point x="1014" y="1304" type="qcurve"/>
      <point x="1128" y="1176"/>
      <point x="1128" y="948" type="qcurve" smooth="yes"/>
      <point x="1128" y="875"/>
      <point x="1118" y="808" type="qcurve" smooth="yes"/>
      <point x="1107" y="732"/>
      <point x="1090" y="670" type="qcurve" smooth="yes"/>
      <point x="1038" y="491"/>
      <point x="968" y="362" type="qcurve"/>
      <point x="901" y="235"/>
      <point x="801" y="135" type="qcurve" smooth="yes"/>
      <point x="721" y="54"/>
      <point x="620" y="14" type="qcurve" smooth="yes"/>
      <point x="517" y="-27"/>
      <point x="401" y="-27" type="qcurve" smooth="yes"/>
      <point x="292" y="-27"/>
      <point x="199" y="-2" type="qcurve"/>
      <point x="108" y="21"/>
    </contour>
    <contour>
      <point x="786" y="741" type="qcurve"/>
      <point x="800" y="788"/>
      <point x="806" y="848" type="qcurve"/>
      <point x="813" y="905"/>
      <point x="813" y="987" type="qcurve" smooth="yes"/>
      <point x="813" y="1149"/>
      <point x="770" y="1238" type="qcurve" smooth="yes"/>
      <point x="726" y="1327"/>
      <point x="647" y="1327" type="qcurve" smooth="yes"/>
      <point x="562" y="1327"/>
      <point x="499" y="1228" type="qcurve" smooth="yes"/>
      <point x="436" y="1130"/>
      <point x="436" y="985" type="qcurve" smooth="yes"/>
      <point x="436" y="844"/>
      <point x="492" y="764" type="qcurve"/>
      <point x="546" y="682"/>
      <point x="641" y="682" type="qcurve" smooth="yes"/>
      <point x="676" y="682"/>
      <point x="712" y="696" type="qcurve" smooth="yes"/>
      <point x="747" y="710"/>
    </contour>
  </outline>
</glyph>
<glyph name="colon" format="1">
  <advance width="594"/>
  <unicode hex="003A"/>
  <outline>
    <contour>
      <point x="178" y="307" type="qcurve" smooth="yes"/>
      <point x="245" y="307"/>
      <point x="289" y="266" type="qcurve"/>
      <point x="332" y="224"/>
      <point x="332" y="160" type="qcurve" smooth="yes"/>
      <point x="332" y="76"/>
      <point x="283" y="26" type="qcurve"/>
      <point x="234" y="-27"/>
      <point x="158" y="-27" type="qcurve" smooth="yes"/>
      <point x="88" y="-27"/>
      <point x="0" y="61"/>
      <point x="0" y="131" type="qcurve" smooth="yes"/>
      <point x="0" y="202"/>
      <point x="52" y="256" type="qcurve"/>
      <point x="106" y="307"/>
    </contour>
    <contour>
      <point x="340" y="956" type="qcurve" smooth="yes"/>
      <point x="408" y="956"/>
      <point x="450" y="914" type="qcurve"/>
      <point x="494" y="873"/>
      <point x="494" y="807" type="qcurve" smooth="yes"/>
      <point x="494" y="724"/>
      <point x="444" y="674" type="qcurve"/>
      <point x="397" y="621"/>
      <point x="319" y="621" type="qcurve" smooth="yes"/>
      <point x="252" y="621"/>
      <point x="207" y="664" type="qcurve"/>
      <point x="164" y="708"/>
      <point x="164" y="778" type="qcurve" smooth="yes"/>
      <point x="164" y="851"/>
      <point x="216" y="904" type="qcurve" smooth="yes"/>
      <point x="268" y="956"/>
    </contour>
  </outline>
</glyph>
<glyph name="semicolon" format="1">
  <advance width="594"/>
  <unicode hex="003B"/>
  <outline>
    <contour>
      <point x="-129" y="-307" type="qcurve"/>
      <point x="-139" y="-248" type="line"/>
      <point x="-20" y="-222"/>
      <point x="56" y="-163" type="qcurve"/>
      <point x="133" y="-105"/>
      <point x="162" y="-14" type="qcurve"/>
      <point x="146" y="-20"/>
      <point x="124" y="-27" type="qcurve"/>
      <point x="108" y="-31"/>
      <point x="94" y="-31" type="qcurve" smooth="yes"/>
      <point x="44" y="-31"/>
      <point x="16" y="5" type="qcurve" smooth="yes"/>
      <point x="-12" y="40"/>
      <point x="-12" y="104" type="qcurve" smooth="yes"/>
      <point x="-12" y="182"/>
      <point x="42" y="236" type="qcurve"/>
      <point x="94" y="291"/>
      <point x="172" y="291" type="qcurve" smooth="yes"/>
      <point x="240" y="291"/>
      <point x="285" y="241" type="qcurve" smooth="yes"/>
      <point x="330" y="192"/>
      <point x="330" y="115" type="qcurve" smooth="yes"/>
      <point x="330" y="-48"/>
      <point x="82" y="-276"/>
    </contour>
    <contour>
      <point x="324" y="956" type="qcurve" smooth="yes"/>
      <point x="390" y="956"/>
      <point x="434" y="914" type="qcurve" smooth="yes"/>
      <point x="477" y="872"/>
      <point x="477" y="807" type="qcurve" smooth="yes"/>
      <point x="477" y="724"/>
      <point x="428" y="674" type="qcurve"/>
      <point x="379" y="621"/>
      <point x="303" y="621" type="qcurve" smooth="yes"/>
      <point x="236" y="621"/>
      <point x="190" y="664" type="qcurve"/>
      <point x="147" y="710"/>
      <point x="147" y="778" type="qcurve" smooth="yes"/>
      <point x="147" y="851"/>
      <point x="199" y="904" type="qcurve"/>
      <point x="253" y="956"/>
    </contour>
  </outline>
</glyph>
<glyph name="less" format="1">
  <advance width="1706"/>
  <unicode hex="003C"/>
  <outline>
    <contour>
      <point x="1442" y="1194" type="line"/>
      <point x="1442" y="975" type="line"/>
      <point x="549" y="610" type="line"/>
      <point x="1442" y="246" type="line"/>
      <point x="1442" y="27" type="line"/>
      <point x="264" y="512" type="line"/>
      <point x="264" y="711" type="line"/>
    </contour>
  </outline>
</glyph>
<glyph name="equal" format="1">
  <advance width="1706"/>
  <unicode hex="003D"/>
  <outline>
    <contour>
      <point x="254" y="496" type="line"/>
      <point x="1452" y="496" type="line"/>
      <point x="1452" y="297" type="line"/>
      <point x="254" y="297" type="line"/>
    </contour>
    <contour>
      <point x="254" y="926" type="line"/>
      <point x="1452" y="926" type="line"/>
      <point x="1452" y="727" type="line"/>
      <point x="254" y="727" type="line"/>
    </contour>
  </outline>
</glyph>
<glyph name="greater" format="1">
  <advance width="1706"/>
  <unicode hex="003E"/>
  <outline>
    <contour>
      <point x="264" y="1194" type="line"/>
      <point x="1442" y="711" type="line"/>
      <point x="1442" y="512" type="line"/>
      <point x="264" y="27" type="line"/>
      <point x="264" y="246" type="line"/>
      <point x="1159" y="610" type="line"/>
      <point x="264" y="975" type="line"/>
    </contour>
  </outline>
</glyph>
<glyph name="question" format="1">
  <advance width="1135"/>
  <unicode hex="003F"/>
  <outline>
    <contour>
      <point x="383" y="307" type="qcurve" smooth="yes"/>
      <point x="449" y="307"/>
      <point x="492" y="266" type="qcurve" smooth="yes"/>
      <point x="535" y="226"/>
      <point x="535" y="160" type="qcurve" smooth="yes"/>
      <point x="535" y="76"/>
      <point x="484" y="24" type="qcurve" smooth="yes"/>
      <point x="434" y="-27"/>
      <point x="352" y="-27" type="qcurve" smooth="yes"/>
      <point x="289" y="-27"/>
      <point x="205" y="63"/>
      <point x="205" y="131" type="qcurve" smooth="yes"/>
      <point x="205" y="204"/>
      <point x="258" y="256" type="qcurve" smooth="yes"/>
      <point x="309" y="307"/>
    </contour>
    <contour>
      <point x="494" y="465" type="qcurve"/>
      <point x="428" y="477" type="line"/>
      <point x="455" y="635"/>
      <point x="564" y="774" type="qcurve"/>
      <point x="576" y="789" type="line"/>
      <point x="591" y="808" type="line"/>
      <point x="766" y="1032"/>
      <point x="766" y="1178" type="qcurve" smooth="yes"/>
      <point x="766" y="1273"/>
      <point x="713" y="1340" type="qcurve" smooth="yes"/>
      <point x="661" y="1407"/>
      <point x="586" y="1407" type="qcurve" smooth="yes"/>
      <point x="548" y="1407"/>
      <point x="523" y="1380" type="qcurve" smooth="yes"/>
      <point x="498" y="1352"/>
      <point x="498" y="1309" type="qcurve" smooth="yes"/>
      <point x="498" y="1289"/>
      <point x="512" y="1217"/>
      <point x="512" y="1192" type="qcurve" smooth="yes"/>
      <point x="512" y="1132"/>
      <point x="472" y="1096" type="qcurve" smooth="yes"/>
      <point x="432" y="1059"/>
      <point x="365" y="1059" type="qcurve" smooth="yes"/>
      <point x="305" y="1059"/>
      <point x="272" y="1088" type="qcurve"/>
      <point x="236" y="1115"/>
      <point x="236" y="1161" type="qcurve" smooth="yes"/>
      <point x="236" y="1302"/>
      <point x="354" y="1396" type="qcurve" smooth="yes"/>
      <point x="473" y="1491"/>
      <point x="655" y="1491" type="qcurve" smooth="yes"/>
      <point x="839" y="1491"/>
      <point x="946" y="1402" type="qcurve"/>
      <point x="1055" y="1315"/>
      <point x="1055" y="1165" type="qcurve" smooth="yes"/>
      <point x="1055" y="1103"/>
      <point x="1029" y="1040" type="qcurve" smooth="yes"/>
      <point x="1004" y="977"/>
      <point x="952" y="918" type="qcurve"/>
      <point x="906" y="864"/>
      <point x="787" y="780" type="qcurve" smooth="yes"/>
      <point x="732" y="741"/>
      <point x="717" y="729" type="qcurve" smooth="yes"/>
      <point x="640" y="671"/>
      <point x="580" y="602" type="qcurve"/>
      <point x="525" y="537"/>
    </contour>
  </outline>
</glyph>
<glyph name="at" format="1">
  <advance width="2019"/>
  <unicode hex="0040"/>
  <outline>
    <contour>
      <point x="1176" y="319" type="qcurve"/>
      <point x="1115" y="220"/>
      <point x="1042" y="171" type="qcurve" smooth="yes"/>
      <point x="969" y="123"/>
      <point x="881" y="123" type="qcurve" smooth="yes"/>
      <point x="739" y="123"/>
      <point x="658" y="214" type="qcurve"/>
      <point x="578" y="306"/>
      <point x="578" y="465" type="qcurve" smooth="yes"/>
      <point x="578" y="578"/>
      <point x="628" y="686" type="qcurve" smooth="yes"/>
      <point x="678" y="795"/>
      <point x="772" y="883" type="qcurve" smooth="yes"/>
      <point x="840" y="947"/>
      <point x="920" y="980" type="qcurve"/>
      <point x="998" y="1014"/>
      <point x="1081" y="1014" type="qcurve" smooth="yes"/>
      <point x="1176" y="1014"/>
      <point x="1232" y="969" type="qcurve" smooth="yes"/>
      <point x="1287" y="924"/>
      <point x="1303" y="831" type="qcurve"/>
      <point x="1352" y="995" type="line"/>
      <point x="1542" y="995" type="line"/>
      <point x="1368" y="377" type="line"/>
      <point x="1366" y="370" type="line"/>
      <point x="1352" y="309"/>
      <point x="1352" y="283" type="qcurve" smooth="yes"/>
      <point x="1352" y="237"/>
      <point x="1372" y="209" type="qcurve"/>
      <point x="1393" y="182"/>
      <point x="1461" y="182"/>
      <point x="1512" y="207" type="qcurve" smooth="yes"/>
      <point x="1562" y="231"/>
      <point x="1610" y="270" type="qcurve"/>
      <point x="1712" y="357"/>
      <point x="1768" y="487" type="qcurve" smooth="yes"/>
      <point x="1823" y="615"/>
      <point x="1823" y="772" type="qcurve" smooth="yes"/>
      <point x="1823" y="1047"/>
      <point x="1634" y="1218" type="qcurve" smooth="yes"/>
      <point x="1446" y="1389"/>
      <point x="1145" y="1389" type="qcurve" smooth="yes"/>
      <point x="1009" y="1389"/>
      <point x="883" y="1351" type="qcurve" smooth="yes"/>
      <point x="761" y="1314"/>
      <point x="655" y="1239" type="qcurve" smooth="yes"/>
      <point x="481" y="1117"/>
      <point x="388" y="930" type="qcurve" smooth="yes"/>
      <point x="295" y="744"/>
      <point x="295" y="514" type="qcurve" smooth="yes"/>
      <point x="295" y="178"/>
      <point x="506" y="-18" type="qcurve" smooth="yes"/>
      <point x="717" y="-215"/>
      <point x="1071" y="-215" type="qcurve" smooth="yes"/>
      <point x="1237" y="-215"/>
      <point x="1390" y="-164" type="qcurve"/>
      <point x="1543" y="-115"/>
      <point x="1698" y="-8" type="qcurve"/>
      <point x="1737" y="-59" type="line"/>
      <point x="1583" y="-173"/>
      <point x="1419" y="-228" type="qcurve" smooth="yes"/>
      <point x="1252" y="-285"/>
      <point x="1071" y="-285" type="qcurve" smooth="yes"/>
      <point x="881" y="-285"/>
      <point x="724" y="-239" type="qcurve"/>
      <point x="563" y="-193"/>
      <point x="446" y="-106" type="qcurve" smooth="yes"/>
      <point x="295" y="6"/>
      <point x="214" y="172" type="qcurve" smooth="yes"/>
      <point x="133" y="337"/>
      <point x="133" y="535" type="qcurve" smooth="yes"/>
      <point x="133" y="691"/>
      <point x="185" y="834" type="qcurve"/>
      <point x="238" y="976"/>
      <point x="338" y="1098" type="qcurve"/>
      <point x="484" y="1272"/>
      <point x="684" y="1365" type="qcurve" smooth="yes"/>
      <point x="886" y="1458"/>
      <point x="1120" y="1458" type="qcurve" smooth="yes"/>
      <point x="1470" y="1458"/>
      <point x="1678" y="1269" type="qcurve"/>
      <point x="1888" y="1080"/>
      <point x="1888" y="766" type="qcurve" smooth="yes"/>
      <point x="1888" y="607"/>
      <point x="1829" y="466" type="qcurve"/>
      <point x="1770" y="328"/>
      <point x="1659" y="227" type="qcurve" smooth="yes"/>
      <point x="1600" y="174"/>
      <point x="1532" y="146" type="qcurve" smooth="yes"/>
      <point x="1466" y="119"/>
      <point x="1395" y="119" type="qcurve" smooth="yes"/>
      <point x="1296" y="119"/>
      <point x="1240" y="171" type="qcurve" smooth="yes"/>
      <point x="1183" y="223"/>
    </contour>
    <contour>
      <point x="1118" y="948" type="qcurve" smooth="yes"/>
      <point x="1056" y="948"/>
      <point x="1006" y="904" type="qcurve" smooth="yes"/>
      <point x="954" y="858"/>
      <point x="905" y="760" type="qcurve" smooth="yes"/>
      <point x="848" y="647"/>
      <point x="818" y="545" type="qcurve" smooth="yes"/>
      <point x="788" y="444"/>
      <point x="788" y="362" type="qcurve" smooth="yes"/>
      <point x="788" y="285"/>
      <point x="822" y="236" type="qcurve"/>
      <point x="859" y="190"/>
      <point x="915" y="190" type="qcurve" smooth="yes"/>
      <point x="978" y="190"/>
      <point x="1040" y="252" type="qcurve" smooth="yes"/>
      <point x="1099" y="312"/>
      <point x="1155" y="434" type="qcurve"/>
      <point x="1196" y="526"/>
      <point x="1218" y="620" type="qcurve" smooth="yes"/>
      <point x="1241" y="715"/>
      <point x="1241" y="782" type="qcurve" smooth="yes"/>
      <point x="1241" y="861"/>
      <point x="1209" y="905" type="qcurve" smooth="yes"/>
      <point x="1178" y="948"/>
    </contour>
  </outline>
</glyph>
<glyph name="A" format="1">
  <advance width="1323"/>
  <unicode hex="0041"/>
  <outline>
    <contour>
      <point x="657" y="1073" type="line"/>
      <point x="332" y="551" type="line"/>
      <point x="719" y="551" type="line"/>
    </contour>
    <contour>
      <point x="799" y="1491" type="line"/>
      <point x="920" y="1491" type="line"/>
      <point x="1085" y="244" type="line" smooth="yes"/>
      <point x="1102" y="123"/>
      <point x="1132" y="94" type="qcurve"/>
      <point x="1164" y="65"/>
      <point x="1241" y="59" type="qcurve"/>
      <point x="1241" y="-6" type="line"/>
      <point x="1128" y="0"/>
      <point x="1050" y="3" type="qcurve" smooth="yes"/>
      <point x="974" y="6"/>
      <point x="932" y="6" type="qcurve" smooth="yes"/>
      <point x="872" y="6"/>
      <point x="716" y="0"/>
      <point x="616" y="-6" type="qcurve"/>
      <point x="617" y="59" type="line"/>
      <point x="714" y="65"/>
      <point x="740" y="80" type="qcurve" smooth="yes"/>
      <point x="766" y="95"/>
      <point x="766" y="135" type="qcurve"/>
      <point x="764" y="161" type="line" smooth="yes"/>
      <point x="764" y="165"/>
      <point x="763" y="179"/>
      <point x="762" y="182" type="qcurve" smooth="yes"/>
      <point x="731" y="449" type="line"/>
      <point x="268" y="449" type="line"/>
      <point x="111" y="199" type="line" smooth="yes"/>
      <point x="90" y="165"/>
      <point x="82" y="145" type="qcurve"/>
      <point x="72" y="124"/>
      <point x="72" y="111" type="qcurve" smooth="yes"/>
      <point x="72" y="87"/>
      <point x="98" y="76" type="qcurve" smooth="yes"/>
      <point x="126" y="65"/>
      <point x="199" y="59" type="qcurve"/>
      <point x="198" y="-6" type="line"/>
      <point x="152" y="-3"/>
      <point x="134" y="-1" type="qcurve" smooth="yes"/>
      <point x="40" y="6"/>
      <point x="-2" y="6" type="qcurve" smooth="yes"/>
      <point x="-58" y="6"/>
      <point x="-182" y="-4" type="qcurve" smooth="yes"/>
      <point x="-187" y="-4"/>
      <point x="-205" y="-5"/>
      <point x="-209" y="-6" type="qcurve"/>
      <point x="-209" y="59" type="line"/>
      <point x="-205" y="59" type="line" smooth="yes"/>
      <point x="-100" y="59"/>
      <point x="9" y="228" type="qcurve" smooth="yes"/>
      <point x="18" y="243"/>
      <point x="27" y="256" type="qcurve" smooth="yes"/>
    </contour>
  </outline>
</glyph>
<glyph name="B" format="1">
  <advance width="1415"/>
  <unicode hex="0042"/>
  <outline>
    <contour>
      <point x="455" y="135" type="line"/>
      <point x="452" y="120" type="line" smooth="yes"/>
      <point x="451" y="115"/>
      <point x="451" y="104" type="qcurve" smooth="yes"/>
      <point x="451" y="88"/>
      <point x="468" y="82" type="qcurve" smooth="yes"/>
      <point x="484" y="76"/>
      <point x="530" y="76" type="qcurve" smooth="yes"/>
      <point x="714" y="76"/>
      <point x="818" y="184" type="qcurve"/>
      <point x="920" y="292"/>
      <point x="920" y="485" type="qcurve" smooth="yes"/>
      <point x="920" y="610"/>
      <point x="852" y="680" type="qcurve"/>
      <point x="784" y="748"/>
      <point x="659" y="748" type="qcurve" smooth="yes"/>
      <point x="618" y="748"/>
      <point x="604" y="738" type="qcurve"/>
      <point x="588" y="728"/>
      <point x="580" y="690" type="qcurve" smooth="yes"/>
    </contour>
    <contour>
      <point x="609" y="823" type="line"/>
      <point x="615" y="822"/>
      <point x="628" y="822" type="qcurve"/>
      <point x="636" y="821"/>
      <point x="659" y="821" type="qcurve" smooth="yes"/>
      <point x="810" y="821"/>
      <point x="902" y="919" type="qcurve"/>
      <point x="995" y="1016"/>
      <point x="995" y="1176" type="qcurve" smooth="yes"/>
      <point x="995" y="1284"/>
      <point x="901" y="1384"/>
      <point x="801" y="1384" type="qcurve" smooth="yes"/>
      <point x="764" y="1384"/>
      <point x="744" y="1374" type="qcurve"/>
      <point x="728" y="1361"/>
      <point x="719" y="1325" type="qcurve"/>
    </contour>
    <contour>
      <point x="240" y="1468" type="line"/>
      <point x="390" y="1461"/>
      <point x="426" y="1460" type="qcurve" smooth="yes"/>
      <point x="542" y="1458"/>
      <point x="588" y="1458" type="qcurve" smooth="yes"/>
      <point x="647" y="1458"/>
      <point x="772" y="1463" type="qcurve" smooth="yes"/>
      <point x="899" y="1468"/>
      <point x="930" y="1468" type="qcurve" smooth="yes"/>
      <point x="1142" y="1468"/>
      <point x="1242" y="1399" type="qcurve" smooth="yes"/>
      <point x="1341" y="1330"/>
      <point x="1341" y="1184" type="qcurve" smooth="yes"/>
      <point x="1341" y="1037"/>
      <point x="1240" y="934" type="qcurve"/>
      <point x="1139" y="833"/>
      <point x="956" y="801" type="qcurve"/>
      <point x="1119" y="766"/>
      <point x="1196" y="686" type="qcurve"/>
      <point x="1274" y="608"/>
      <point x="1274" y="477" type="qcurve" smooth="yes"/>
      <point x="1274" y="376"/>
      <point x="1228" y="280" type="qcurve" smooth="yes"/>
      <point x="1183" y="185"/>
      <point x="1106" y="121" type="qcurve" smooth="yes"/>
      <point x="1031" y="59"/>
      <point x="917" y="28" type="qcurve"/>
      <point x="802" y="0"/>
      <point x="623" y="0" type="qcurve" smooth="yes"/>
      <point x="579" y="0"/>
      <point x="450" y="3" type="qcurve" smooth="yes"/>
      <point x="318" y="6"/>
      <point x="233" y="6" type="qcurve" smooth="yes"/>
      <point x="182" y="6"/>
      <point x="106" y="3" type="qcurve" smooth="yes"/>
      <point x="28" y="0"/>
      <point x="-76" y="-6" type="qcurve"/>
      <point x="-76" y="59" type="line"/>
      <point x="30" y="59"/>
      <point x="76" y="90" type="qcurve"/>
      <point x="120" y="125"/>
      <point x="145" y="242" type="qcurve" smooth="yes"/>
      <point x="365" y="1235" type="line"/>
      <point x="365" y="1237" type="line"/>
      <point x="379" y="1305"/>
      <point x="379" y="1327" type="qcurve" smooth="yes"/>
      <point x="379" y="1368"/>
      <point x="352" y="1385" type="qcurve" smooth="yes"/>
      <point x="327" y="1400"/>
      <point x="240" y="1405" type="qcurve"/>
    </contour>
  </outline>
</glyph>
<glyph name="C" format="1">
  <advance width="1389"/>
  <unicode hex="0043"/>
  <outline>
    <contour>
      <point x="1394" y="1427" type="qcurve"/>
      <point x="1348" y="1232"/>
      <point x="1332" y="1159" type="qcurve" smooth="yes"/>
      <point x="1293" y="981"/>
      <point x="1286" y="948" type="qcurve"/>
      <point x="1223" y="956" type="line"/>
      <point x="1223" y="981" type="line" smooth="yes"/>
      <point x="1223" y="1178"/>
      <point x="1152" y="1284" type="qcurve"/>
      <point x="1082" y="1391"/>
      <point x="950" y="1391" type="qcurve" smooth="yes"/>
      <point x="864" y="1391"/>
      <point x="779" y="1341" type="qcurve" smooth="yes"/>
      <point x="696" y="1292"/>
      <point x="621" y="1196" type="qcurve" smooth="yes"/>
      <point x="528" y="1077"/>
      <point x="477" y="922" type="qcurve" smooth="yes"/>
      <point x="426" y="769"/>
      <point x="426" y="606" type="qcurve" smooth="yes"/>
      <point x="426" y="386"/>
      <point x="516" y="264" type="qcurve"/>
      <point x="608" y="141"/>
      <point x="770" y="141" type="qcurve" smooth="yes"/>
      <point x="892" y="141"/>
      <point x="1098" y="287"/>
      <point x="1176" y="428" type="qcurve"/>
      <point x="1239" y="403" type="line"/>
      <point x="1139" y="193"/>
      <point x="983" y="82" type="qcurve"/>
      <point x="826" y="-27"/>
      <point x="625" y="-27" type="qcurve" smooth="yes"/>
      <point x="370" y="-27"/>
      <point x="220" y="126" type="qcurve" smooth="yes"/>
      <point x="70" y="280"/>
      <point x="70" y="541" type="qcurve" smooth="yes"/>
      <point x="70" y="716"/>
      <point x="133" y="888" type="qcurve" smooth="yes"/>
      <point x="197" y="1061"/>
      <point x="305" y="1184" type="qcurve" smooth="yes"/>
      <point x="440" y="1338"/>
      <point x="594" y="1414" type="qcurve" smooth="yes"/>
      <point x="751" y="1491"/>
      <point x="926" y="1491" type="qcurve" smooth="yes"/>
      <point x="1022" y="1491"/>
      <point x="1152" y="1454" type="qcurve" smooth="yes"/>
      <point x="1285" y="1417"/>
      <point x="1335" y="1417" type="qcurve" smooth="yes"/>
      <point x="1349" y="1417"/>
      <point x="1364" y="1420" type="qcurve" smooth="yes"/>
      <point x="1374" y="1421"/>
    </contour>
  </outline>
</glyph>
<glyph name="D" format="1">
  <advance width="1651"/>
  <unicode hex="0044"/>
  <outline>
    <contour>
      <point x="516" y="289" type="line"/>
      <point x="515" y="283" type="line"/>
      <point x="492" y="180"/>
      <point x="492" y="160" type="qcurve" smooth="yes"/>
      <point x="492" y="129"/>
      <point x="512" y="115" type="qcurve" smooth="yes"/>
      <point x="531" y="102"/>
      <point x="586" y="102" type="qcurve" smooth="yes"/>
      <point x="712" y="102"/>
      <point x="828" y="157" type="qcurve"/>
      <point x="948" y="212"/>
      <point x="1034" y="309" type="qcurve"/>
      <point x="1133" y="418"/>
      <point x="1247" y="734"/>
      <point x="1247" y="897" type="qcurve" smooth="yes"/>
      <point x="1247" y="1119"/>
      <point x="1140" y="1248" type="qcurve"/>
      <point x="1035" y="1380"/>
      <point x="860" y="1380" type="qcurve" smooth="yes"/>
      <point x="800" y="1380"/>
      <point x="772" y="1354" type="qcurve" smooth="yes"/>
      <point x="744" y="1327"/>
      <point x="721" y="1219" type="qcurve" smooth="yes"/>
    </contour>
    <contour>
      <point x="256" y="1468" type="line"/>
      <point x="333" y="1462"/>
      <point x="390" y="1460" type="qcurve" smooth="yes"/>
      <point x="486" y="1458"/>
      <point x="561" y="1458" type="qcurve" smooth="yes"/>
      <point x="627" y="1458"/>
      <point x="943" y="1468"/>
      <point x="987" y="1468" type="qcurve" smooth="yes"/>
      <point x="1306" y="1468"/>
      <point x="1452" y="1334" type="qcurve" smooth="yes"/>
      <point x="1599" y="1199"/>
      <point x="1599" y="909" type="qcurve" smooth="yes"/>
      <point x="1599" y="702"/>
      <point x="1506" y="510" type="qcurve" smooth="yes"/>
      <point x="1414" y="319"/>
      <point x="1249" y="188" type="qcurve" smooth="yes"/>
      <point x="1127" y="90"/>
      <point x="956" y="45" type="qcurve" smooth="yes"/>
      <point x="784" y="0"/>
      <point x="530" y="0" type="qcurve" smooth="yes"/>
      <point x="484" y="0"/>
      <point x="294" y="6"/>
      <point x="248" y="6" type="qcurve" smooth="yes"/>
      <point x="205" y="6"/>
      <point x="32" y="-2" type="qcurve" smooth="yes"/>
      <point x="9" y="-3"/>
      <point x="-53" y="-6"/>
      <point x="-59" y="-6" type="qcurve"/>
      <point x="-59" y="59" type="line"/>
      <point x="50" y="59"/>
      <point x="92" y="92" type="qcurve"/>
      <point x="136" y="123"/>
      <point x="162" y="242" type="qcurve" smooth="yes"/>
      <point x="381" y="1235" type="line"/>
      <point x="381" y="1237" type="line"/>
      <point x="395" y="1305"/>
      <point x="395" y="1327" type="qcurve" smooth="yes"/>
      <point x="395" y="1368"/>
      <point x="368" y="1385" type="qcurve" smooth="yes"/>
      <point x="343" y="1400"/>
      <point x="256" y="1405" type="qcurve"/>
    </contour>
  </outline>
</glyph>
<glyph name="E" format="1">
  <advance width="1329"/>
  <unicode hex="0045"/>
  <outline>
    <contour>
      <point x="240" y="1468" type="line"/>
      <point x="289" y="1467"/>
      <point x="359" y="1465" type="qcurve" smooth="yes"/>
      <point x="404" y="1464"/>
      <point x="584" y="1464" type="qcurve"/>
      <point x="1288" y="1468" type="line"/>
      <point x="1266" y="1347"/>
      <point x="1252" y="1256" type="qcurve" smooth="yes"/>
      <point x="1235" y="1142"/>
      <point x="1229" y="1098" type="qcurve"/>
      <point x="1165" y="1098" type="line"/>
      <point x="1165" y="1244"/>
      <point x="1114" y="1303" type="qcurve"/>
      <point x="1061" y="1362"/>
      <point x="932" y="1362" type="qcurve" smooth="yes"/>
      <point x="793" y="1362" type="line" smooth="yes"/>
      <point x="757" y="1362"/>
      <point x="746" y="1352" type="qcurve"/>
      <point x="734" y="1344"/>
      <point x="723" y="1300" type="qcurve"/>
      <point x="614" y="815" type="line"/>
      <point x="743" y="815" type="line" smooth="yes"/>
      <point x="858" y="815"/>
      <point x="908" y="851" type="qcurve" smooth="yes"/>
      <point x="958" y="887"/>
      <point x="983" y="981" type="qcurve"/>
      <point x="1049" y="981" type="line"/>
      <point x="1011" y="843"/>
      <point x="986" y="728" type="qcurve"/>
      <point x="958" y="608"/>
      <point x="942" y="508" type="qcurve"/>
      <point x="879" y="508" type="line"/>
      <point x="886" y="559"/>
      <point x="887" y="574" type="qcurve" smooth="yes"/>
      <point x="889" y="604"/>
      <point x="889" y="610" type="qcurve" smooth="yes"/>
      <point x="889" y="669"/>
      <point x="858" y="691" type="qcurve"/>
      <point x="829" y="713"/>
      <point x="739" y="713" type="qcurve" smooth="yes"/>
      <point x="592" y="713" type="line"/>
      <point x="473" y="168" type="line" smooth="yes"/>
      <point x="472" y="164"/>
      <point x="470" y="152" type="qcurve"/>
      <point x="467" y="142"/>
      <point x="467" y="135" type="qcurve" smooth="yes"/>
      <point x="467" y="116"/>
      <point x="480" y="110" type="qcurve"/>
      <point x="492" y="102"/>
      <point x="526" y="102" type="qcurve" smooth="yes"/>
      <point x="596" y="102" type="line" smooth="yes"/>
      <point x="795" y="102"/>
      <point x="924" y="174" type="qcurve" smooth="yes"/>
      <point x="1051" y="245"/>
      <point x="1106" y="387" type="qcurve"/>
      <point x="1171" y="387" type="line"/>
      <point x="1141" y="266"/>
      <point x="1086" y="21" type="qcurve"/>
      <point x="1081" y="0" type="line"/>
      <point x="485" y="0" type="line" smooth="yes"/>
      <point x="154" y="0"/>
      <point x="85" y="-2" type="qcurve"/>
      <point x="1" y="-2"/>
      <point x="-75" y="-6" type="qcurve"/>
      <point x="-76" y="59" type="line"/>
      <point x="30" y="59"/>
      <point x="76" y="90" type="qcurve"/>
      <point x="120" y="125"/>
      <point x="145" y="242" type="qcurve" smooth="yes"/>
      <point x="365" y="1235" type="line"/>
      <point x="365" y="1237" type="line"/>
      <point x="379" y="1305"/>
      <point x="379" y="1327" type="qcurve" smooth="yes"/>
      <point x="379" y="1368"/>
      <point x="352" y="1385" type="qcurve" smooth="yes"/>
      <point x="327" y="1400"/>
      <point x="240" y="1405" type="qcurve"/>
    </contour>
  </outline>
</glyph>
<glyph name="F" format="1">
  <advance width="1237"/>
  <unicode hex="0046"/>
  <outline>
    <contour>
      <point x="240" y="1468" type="line"/>
      <point x="291" y="1466"/>
      <point x="360" y="1465" type="qcurve" smooth="yes"/>
      <point x="405" y="1464"/>
      <point x="586" y="1464" type="qcurve"/>
      <point x="1286" y="1468" type="line"/>
      <point x="1263" y="1337"/>
      <point x="1255" y="1282" type="qcurve" smooth="yes"/>
      <point x="1236" y="1149"/>
      <point x="1229" y="1098" type="qcurve"/>
      <point x="1163" y="1098" type="line"/>
      <point x="1163" y="1244"/>
      <point x="1112" y="1303" type="qcurve"/>
      <point x="1059" y="1362"/>
      <point x="930" y="1362" type="qcurve" smooth="yes"/>
      <point x="791" y="1362" type="line" smooth="yes"/>
      <point x="755" y="1362"/>
      <point x="744" y="1352" type="qcurve"/>
      <point x="732" y="1344"/>
      <point x="721" y="1300" type="qcurve"/>
      <point x="614" y="815" type="line"/>
      <point x="741" y="815" type="line" smooth="yes"/>
      <point x="856" y="815"/>
      <point x="906" y="851" type="qcurve" smooth="yes"/>
      <point x="956" y="887"/>
      <point x="981" y="981" type="qcurve"/>
      <point x="1047" y="981" type="line"/>
      <point x="1011" y="852"/>
      <point x="987" y="738" type="qcurve" smooth="yes"/>
      <point x="962" y="623"/>
      <point x="942" y="508" type="qcurve"/>
      <point x="877" y="508" type="line"/>
      <point x="883" y="545"/>
      <point x="886" y="569" type="qcurve" smooth="yes"/>
      <point x="889" y="594"/>
      <point x="889" y="610" type="qcurve" smooth="yes"/>
      <point x="889" y="668"/>
      <point x="858" y="690" type="qcurve" smooth="yes"/>
      <point x="826" y="713"/>
      <point x="737" y="713" type="qcurve" smooth="yes"/>
      <point x="592" y="713" type="line"/>
      <point x="483" y="229" type="line" smooth="yes"/>
      <point x="479" y="215"/>
      <point x="472" y="176" type="qcurve"/>
      <point x="469" y="150"/>
      <point x="469" y="135" type="qcurve" smooth="yes"/>
      <point x="469" y="93"/>
      <point x="500" y="77" type="qcurve"/>
      <point x="530" y="60"/>
      <point x="627" y="59" type="qcurve"/>
      <point x="627" y="-6" type="line"/>
      <point x="507" y="0"/>
      <point x="418" y="3" type="qcurve" smooth="yes"/>
      <point x="328" y="6"/>
      <point x="266" y="6" type="qcurve" smooth="yes"/>
      <point x="171" y="6"/>
      <point x="-58" y="-5" type="qcurve"/>
      <point x="-76" y="-6" type="line"/>
      <point x="-76" y="59" type="line"/>
      <point x="30" y="59"/>
      <point x="76" y="90" type="qcurve"/>
      <point x="120" y="125"/>
      <point x="145" y="242" type="qcurve" smooth="yes"/>
      <point x="365" y="1235" type="line"/>
      <point x="365" y="1237" type="line"/>
      <point x="379" y="1305"/>
      <point x="379" y="1327" type="qcurve" smooth="yes"/>
      <point x="379" y="1368"/>
      <point x="352" y="1385" type="qcurve" smooth="yes"/>
      <point x="327" y="1400"/>
      <point x="240" y="1405" type="qcurve"/>
    </contour>
  </outline>
</glyph>
<glyph name="G" format="1">
  <advance width="1630"/>
  <unicode hex="0047"/>
  <outline>
    <contour>
      <point x="1511" y="1438" type="qcurve"/>
      <point x="1425" y="1005"/>
      <point x="1423" y="993" type="qcurve"/>
      <point x="1358" y="993" type="line"/>
      <point x="1351" y="1182"/>
      <point x="1262" y="1289" type="qcurve" smooth="yes"/>
      <point x="1175" y="1395"/>
      <point x="1026" y="1395" type="qcurve" smooth="yes"/>
      <point x="949" y="1395"/>
      <point x="874" y="1366" type="qcurve" smooth="yes"/>
      <point x="801" y="1337"/>
      <point x="735" y="1280" type="qcurve"/>
      <point x="597" y="1157"/>
      <point x="512" y="964" type="qcurve"/>
      <point x="430" y="770"/>
      <point x="430" y="569" type="qcurve" smooth="yes"/>
      <point x="430" y="354"/>
      <point x="616" y="102"/>
      <point x="772" y="102" type="qcurve" smooth="yes"/>
      <point x="872" y="102"/>
      <point x="921" y="135" type="qcurve" smooth="yes"/>
      <point x="971" y="168"/>
      <point x="989" y="248" type="qcurve" smooth="yes"/>
      <point x="1044" y="503" type="line"/>
      <point x="1055" y="549"/>
      <point x="1058" y="572" type="qcurve"/>
      <point x="1063" y="593"/>
      <point x="1063" y="612" type="qcurve" smooth="yes"/>
      <point x="1063" y="644"/>
      <point x="1040" y="656" type="qcurve" smooth="yes"/>
      <point x="1017" y="667"/>
      <point x="920" y="672" type="qcurve"/>
      <point x="920" y="737" type="line"/>
      <point x="1003" y="731"/>
      <point x="1054" y="730" type="qcurve"/>
      <point x="1126" y="727"/>
      <point x="1308" y="727"/>
      <point x="1393" y="730" type="qcurve"/>
      <point x="1450" y="731"/>
      <point x="1562" y="737" type="qcurve"/>
      <point x="1563" y="672" type="line"/>
      <point x="1546" y="672" type="line" smooth="yes"/>
      <point x="1469" y="672"/>
      <point x="1434" y="643" type="qcurve" smooth="yes"/>
      <point x="1401" y="615"/>
      <point x="1374" y="489" type="qcurve"/>
      <point x="1296" y="143" type="line"/>
      <point x="1172" y="58"/>
      <point x="1028" y="16" type="qcurve" smooth="yes"/>
      <point x="879" y="-27"/>
      <point x="723" y="-27" type="qcurve" smooth="yes"/>
      <point x="416" y="-27"/>
      <point x="244" y="130" type="qcurve"/>
      <point x="72" y="289"/>
      <point x="72" y="569" type="qcurve" smooth="yes"/>
      <point x="72" y="747"/>
      <point x="146" y="918" type="qcurve" smooth="yes"/>
      <point x="220" y="1088"/>
      <point x="356" y="1223" type="qcurve"/>
      <point x="487" y="1351"/>
      <point x="827" y="1491"/>
      <point x="1012" y="1491" type="qcurve" smooth="yes"/>
      <point x="1120" y="1491"/>
      <point x="1386" y="1423"/>
      <point x="1417" y="1423" type="qcurve" smooth="yes"/>
      <point x="1436" y="1423"/>
      <point x="1458" y="1426" type="qcurve" smooth="yes"/>
      <point x="1474" y="1429"/>
    </contour>
  </outline>
</glyph>
<glyph name="H" format="1">
  <advance width="1686"/>
  <unicode hex="0048"/>
  <outline>
    <contour>
      <point x="240" y="1468" type="line"/>
      <point x="275" y="1467"/>
      <point x="408" y="1461"/>
      <point x="437" y="1460" type="qcurve" smooth="yes"/>
      <point x="547" y="1458"/>
      <point x="584" y="1458" type="qcurve" smooth="yes"/>
      <point x="642" y="1458"/>
      <point x="744" y="1460" type="qcurve" smooth="yes"/>
      <point x="795" y="1462"/>
      <point x="893" y="1468" type="qcurve"/>
      <point x="893" y="1405" type="line"/>
      <point x="806" y="1401"/>
      <point x="766" y="1367" type="qcurve" smooth="yes"/>
      <point x="727" y="1333"/>
      <point x="702" y="1223" type="qcurve" smooth="yes"/>
      <point x="612" y="811" type="line"/>
      <point x="1106" y="811" type="line"/>
      <point x="1200" y="1235" type="line" smooth="yes"/>
      <point x="1207" y="1263"/>
      <point x="1210" y="1290" type="qcurve"/>
      <point x="1214" y="1310"/>
      <point x="1214" y="1329" type="qcurve" smooth="yes"/>
      <point x="1214" y="1371"/>
      <point x="1184" y="1386" type="qcurve"/>
      <point x="1156" y="1403"/>
      <point x="1076" y="1405" type="qcurve"/>
      <point x="1075" y="1468" type="line"/>
      <point x="1112" y="1467"/>
      <point x="1244" y="1461"/>
      <point x="1272" y="1460" type="qcurve" smooth="yes"/>
      <point x="1384" y="1458"/>
      <point x="1419" y="1458" type="qcurve" smooth="yes"/>
      <point x="1478" y="1458"/>
      <point x="1578" y="1460" type="qcurve" smooth="yes"/>
      <point x="1632" y="1462"/>
      <point x="1728" y="1468" type="qcurve"/>
      <point x="1728" y="1405" type="line"/>
      <point x="1639" y="1400"/>
      <point x="1604" y="1368" type="qcurve"/>
      <point x="1566" y="1339"/>
      <point x="1540" y="1223" type="qcurve" smooth="yes"/>
      <point x="1319" y="229" type="line" smooth="yes"/>
      <point x="1310" y="187"/>
      <point x="1308" y="170" type="qcurve" smooth="yes"/>
      <point x="1305" y="147"/>
      <point x="1305" y="127" type="qcurve" smooth="yes"/>
      <point x="1305" y="94"/>
      <point x="1338" y="77" type="qcurve" smooth="yes"/>
      <point x="1370" y="60"/>
      <point x="1446" y="59" type="qcurve"/>
      <point x="1446" y="-6" type="line"/>
      <point x="1326" y="0"/>
      <point x="1152" y="6"/>
      <point x="1102" y="6" type="qcurve" smooth="yes"/>
      <point x="997" y="6"/>
      <point x="772" y="-6" type="qcurve"/>
      <point x="760" y="-6" type="line"/>
      <point x="760" y="59" type="line"/>
      <point x="867" y="59"/>
      <point x="955" y="123"/>
      <point x="981" y="242" type="qcurve" smooth="yes"/>
      <point x="1085" y="707" type="line"/>
      <point x="590" y="707" type="line"/>
      <point x="483" y="229" type="line" smooth="yes"/>
      <point x="479" y="215"/>
      <point x="472" y="176" type="qcurve"/>
      <point x="469" y="150"/>
      <point x="469" y="135" type="qcurve" smooth="yes"/>
      <point x="469" y="93"/>
      <point x="498" y="78" type="qcurve"/>
      <point x="526" y="61"/>
      <point x="608" y="59" type="qcurve"/>
      <point x="608" y="-6" type="line"/>
      <point x="482" y="0"/>
      <point x="400" y="3" type="qcurve" smooth="yes"/>
      <point x="314" y="6"/>
      <point x="266" y="6" type="qcurve" smooth="yes"/>
      <point x="175" y="6"/>
      <point x="-53" y="-5" type="qcurve" smooth="yes"/>
      <point x="-75" y="-6" type="line"/>
      <point x="-76" y="59" type="line"/>
      <point x="30" y="59"/>
      <point x="76" y="90" type="qcurve"/>
      <point x="120" y="125"/>
      <point x="145" y="242" type="qcurve" smooth="yes"/>
      <point x="365" y="1235" type="line"/>
      <point x="365" y="1237" type="line"/>
      <point x="379" y="1305"/>
      <point x="379" y="1327" type="qcurve" smooth="yes"/>
      <point x="379" y="1368"/>
      <point x="352" y="1385" type="qcurve" smooth="yes"/>
      <point x="327" y="1400"/>
      <point x="240" y="1405" type="qcurve"/>
    </contour>
  </outline>
</glyph>
<glyph name="I" format="1">
  <advance width="885"/>
  <unicode hex="0049"/>
  <outline>
    <contour>
      <point x="252" y="1468" type="line"/>
      <point x="278" y="1467"/>
      <point x="416" y="1461"/>
      <point x="448" y="1460" type="qcurve" smooth="yes"/>
      <point x="562" y="1458"/>
      <point x="602" y="1458" type="qcurve" smooth="yes"/>
      <point x="639" y="1458"/>
      <point x="741" y="1460" type="qcurve" smooth="yes"/>
      <point x="770" y="1461"/>
      <point x="897" y="1467"/>
      <point x="917" y="1468" type="qcurve"/>
      <point x="917" y="1405" type="line"/>
      <point x="827" y="1399"/>
      <point x="790" y="1366" type="qcurve"/>
      <point x="753" y="1335"/>
      <point x="727" y="1223" type="qcurve"/>
      <point x="508" y="229" type="line"/>
      <point x="501" y="203"/>
      <point x="498" y="176" type="qcurve"/>
      <point x="494" y="155"/>
      <point x="494" y="135" type="qcurve" smooth="yes"/>
      <point x="494" y="93"/>
      <point x="524" y="78" type="qcurve"/>
      <point x="555" y="61"/>
      <point x="645" y="59" type="qcurve"/>
      <point x="645" y="-6" type="line"/>
      <point x="527" y="0"/>
      <point x="436" y="3" type="qcurve" smooth="yes"/>
      <point x="348" y="6"/>
      <point x="285" y="6" type="qcurve" smooth="yes"/>
      <point x="172" y="6"/>
      <point x="-59" y="-6" type="qcurve"/>
      <point x="-66" y="-6" type="line"/>
      <point x="-66" y="59" type="line"/>
      <point x="44" y="59"/>
      <point x="88" y="92" type="qcurve"/>
      <point x="133" y="124"/>
      <point x="158" y="242" type="qcurve"/>
      <point x="377" y="1235" type="line"/>
      <point x="377" y="1237" type="line"/>
      <point x="391" y="1305"/>
      <point x="391" y="1327" type="qcurve" smooth="yes"/>
      <point x="391" y="1368"/>
      <point x="364" y="1385" type="qcurve" smooth="yes"/>
      <point x="339" y="1400"/>
      <point x="252" y="1405" type="qcurve"/>
    </contour>
  </outline>
</glyph>
<glyph name="J" format="1">
  <advance width="874"/>
  <unicode hex="004A"/>
  <outline>
    <contour>
      <point x="252" y="1468" type="line"/>
      <point x="278" y="1467"/>
      <point x="416" y="1461"/>
      <point x="448" y="1460" type="qcurve" smooth="yes"/>
      <point x="562" y="1458"/>
      <point x="602" y="1458" type="qcurve" smooth="yes"/>
      <point x="639" y="1458"/>
      <point x="741" y="1460" type="qcurve" smooth="yes"/>
      <point x="770" y="1461"/>
      <point x="897" y="1467"/>
      <point x="917" y="1468" type="qcurve"/>
      <point x="917" y="1405" type="line"/>
      <point x="827" y="1399"/>
      <point x="790" y="1366" type="qcurve"/>
      <point x="753" y="1335"/>
      <point x="727" y="1223" type="qcurve"/>
      <point x="502" y="209" type="line" smooth="yes"/>
      <point x="452" y="-14"/>
      <point x="388" y="-118" type="qcurve"/>
      <point x="322" y="-223"/>
      <point x="207" y="-281" type="qcurve" smooth="yes"/>
      <point x="128" y="-321"/>
      <point x="36" y="-342" type="qcurve"/>
      <point x="-58" y="-362"/>
      <point x="-152" y="-362" type="qcurve" smooth="yes"/>
      <point x="-166" y="-362" type="line"/>
      <point x="-166" y="-297" type="line"/>
      <point x="44" y="-272"/>
      <point x="133" y="132" type="qcurve" smooth="yes"/>
      <point x="135" y="141" type="line"/>
      <point x="377" y="1235" type="line" smooth="yes"/>
      <point x="387" y="1283"/>
      <point x="388" y="1292" type="qcurve" smooth="yes"/>
      <point x="391" y="1312"/>
      <point x="391" y="1327" type="qcurve" smooth="yes"/>
      <point x="391" y="1368"/>
      <point x="364" y="1385" type="qcurve" smooth="yes"/>
      <point x="339" y="1400"/>
      <point x="252" y="1405" type="qcurve"/>
    </contour>
  </outline>
</glyph>
<glyph name="K" format="1">
  <advance width="1524"/>
  <unicode hex="004B"/>
  <outline>
    <contour>
      <point x="240" y="1468" type="line"/>
      <point x="277" y="1467"/>
      <point x="410" y="1461"/>
      <point x="439" y="1460" type="qcurve" smooth="yes"/>
      <point x="549" y="1458"/>
      <point x="584" y="1458" type="qcurve" smooth="yes"/>
      <point x="640" y="1458"/>
      <point x="736" y="1460" type="qcurve"/>
      <point x="783" y="1462"/>
      <point x="885" y="1468" type="qcurve"/>
      <point x="884" y="1405" type="line"/>
      <point x="797" y="1399"/>
      <point x="759" y="1367" type="qcurve" smooth="yes"/>
      <point x="722" y="1336"/>
      <point x="696" y="1223" type="qcurve"/>
      <point x="600" y="786" type="line"/>
      <point x="1044" y="1171" type="line" smooth="yes"/>
      <point x="1143" y="1257"/>
      <point x="1173" y="1292" type="qcurve" smooth="yes"/>
      <point x="1200" y="1325"/>
      <point x="1200" y="1348" type="qcurve" smooth="yes"/>
      <point x="1200" y="1372"/>
      <point x="1171" y="1386" type="qcurve"/>
      <point x="1144" y="1397"/>
      <point x="1057" y="1405" type="qcurve"/>
      <point x="1057" y="1468" type="line"/>
      <point x="1091" y="1467"/>
      <point x="1159" y="1464"/>
      <point x="1226" y="1461"/>
      <point x="1240" y="1460" type="qcurve" smooth="yes"/>
      <point x="1330" y="1458"/>
      <point x="1356" y="1458" type="qcurve" smooth="yes"/>
      <point x="1398" y="1458"/>
      <point x="1488" y="1460" type="qcurve"/>
      <point x="1532" y="1462"/>
      <point x="1622" y="1468" type="qcurve"/>
      <point x="1622" y="1405" type="line"/>
      <point x="1535" y="1396"/>
      <point x="1464" y="1362" type="qcurve"/>
      <point x="1390" y="1329"/>
      <point x="1290" y="1245" type="qcurve" smooth="yes"/>
      <point x="879" y="897" type="line"/>
      <point x="1210" y="256" type="line" smooth="yes"/>
      <point x="1275" y="131"/>
      <point x="1318" y="95" type="qcurve" smooth="yes"/>
      <point x="1362" y="59"/>
      <point x="1430" y="59" type="qcurve" smooth="yes"/>
      <point x="1440" y="59" type="line"/>
      <point x="1440" y="-6" type="line"/>
      <point x="1318" y="0"/>
      <point x="1236" y="3" type="qcurve" smooth="yes"/>
      <point x="1154" y="6"/>
      <point x="1106" y="6" type="qcurve" smooth="yes"/>
      <point x="1015" y="6"/>
      <point x="786" y="-5" type="qcurve"/>
      <point x="768" y="-6" type="line"/>
      <point x="768" y="59" type="line"/>
      <point x="852" y="59"/>
      <point x="872" y="69" type="qcurve"/>
      <point x="895" y="79"/>
      <point x="895" y="106" type="qcurve" smooth="yes"/>
      <point x="895" y="121"/>
      <point x="887" y="148" type="qcurve" smooth="yes"/>
      <point x="881" y="170"/>
      <point x="864" y="203" type="qcurve" smooth="yes"/>
      <point x="594" y="762" type="line"/>
      <point x="477" y="229" type="line" smooth="yes"/>
      <point x="473" y="215"/>
      <point x="466" y="176" type="qcurve"/>
      <point x="463" y="152"/>
      <point x="463" y="135" type="qcurve" smooth="yes"/>
      <point x="463" y="93"/>
      <point x="492" y="78" type="qcurve"/>
      <point x="520" y="61"/>
      <point x="602" y="59" type="qcurve"/>
      <point x="602" y="-6" type="line"/>
      <point x="482" y="0"/>
      <point x="310" y="6"/>
      <point x="266" y="6" type="qcurve" smooth="yes"/>
      <point x="175" y="6"/>
      <point x="-53" y="-5" type="qcurve" smooth="yes"/>
      <point x="-75" y="-6" type="line"/>
      <point x="-76" y="59" type="line"/>
      <point x="30" y="59"/>
      <point x="76" y="90" type="qcurve"/>
      <point x="120" y="125"/>
      <point x="145" y="242" type="qcurve" smooth="yes"/>
      <point x="365" y="1235" type="line"/>
      <point x="365" y="1237" type="line"/>
      <point x="379" y="1305"/>
      <point x="379" y="1327" type="qcurve" smooth="yes"/>
      <point x="379" y="1368"/>
      <point x="352" y="1385" type="qcurve" smooth="yes"/>
      <point x="327" y="1400"/>
      <point x="240" y="1405" type="qcurve"/>
    </contour>
  </outline>
</glyph>
<glyph name="L" format="1">
  <advance width="1307"/>
  <unicode hex="004C"/>
  <outline>
    <contour>
      <point x="252" y="1468" type="line"/>
      <point x="278" y="1467"/>
      <point x="416" y="1461"/>
      <point x="448" y="1460" type="qcurve" smooth="yes"/>
      <point x="562" y="1458"/>
      <point x="602" y="1458" type="qcurve" smooth="yes"/>
      <point x="639" y="1458"/>
      <point x="741" y="1460" type="qcurve" smooth="yes"/>
      <point x="770" y="1461"/>
      <point x="897" y="1467"/>
      <point x="917" y="1468" type="qcurve"/>
      <point x="917" y="1405" type="line"/>
      <point x="827" y="1399"/>
      <point x="790" y="1366" type="qcurve"/>
      <point x="753" y="1335"/>
      <point x="727" y="1223" type="qcurve"/>
      <point x="493" y="167" type="line" smooth="yes"/>
      <point x="492" y="165"/>
      <point x="490" y="155"/>
      <point x="490" y="153" type="qcurve" smooth="yes"/>
      <point x="489" y="148"/>
      <point x="489" y="135" type="qcurve" smooth="yes"/>
      <point x="489" y="116"/>
      <point x="502" y="110" type="qcurve"/>
      <point x="515" y="102"/>
      <point x="549" y="102" type="qcurve" smooth="yes"/>
      <point x="618" y="102" type="line" smooth="yes"/>
      <point x="774" y="102"/>
      <point x="910" y="187" type="qcurve" smooth="yes"/>
      <point x="1045" y="272"/>
      <point x="1143" y="428" type="qcurve"/>
      <point x="1208" y="428" type="line"/>
      <point x="1163" y="309"/>
      <point x="1133" y="228" type="qcurve" smooth="yes"/>
      <point x="1094" y="123"/>
      <point x="1049" y="0" type="qcurve"/>
      <point x="285" y="0" type="line" smooth="yes"/>
      <point x="162" y="0"/>
      <point x="104" y="-2" type="qcurve"/>
      <point x="43" y="-2"/>
      <point x="-65" y="-6" type="qcurve"/>
      <point x="-66" y="59" type="line"/>
      <point x="44" y="59"/>
      <point x="88" y="92" type="qcurve"/>
      <point x="133" y="124"/>
      <point x="158" y="242" type="qcurve"/>
      <point x="377" y="1235" type="line"/>
      <point x="377" y="1237" type="line"/>
      <point x="391" y="1305"/>
      <point x="391" y="1327" type="qcurve" smooth="yes"/>
      <point x="391" y="1368"/>
      <point x="364" y="1385" type="qcurve" smooth="yes"/>
      <point x="339" y="1400"/>
      <point x="252" y="1405" type="qcurve"/>
    </contour>
  </outline>
</glyph>
<glyph name="M" format="1">
  <advance width="1837"/>
  <unicode hex="004D"/>
  <outline>
    <contour>
      <point x="240" y="1468" type="line"/>
      <point x="293" y="1467"/>
      <point x="379" y="1465" type="qcurve" smooth="yes"/>
      <point x="434" y="1464"/>
      <point x="676" y="1464" type="qcurve"/>
      <point x="862" y="485" type="line"/>
      <point x="1468" y="1464" type="line"/>
      <point x="1520" y="1464"/>
      <point x="1598" y="1462"/>
      <point x="1642" y="1462" type="qcurve" smooth="yes"/>
      <point x="1732" y="1462"/>
      <point x="1771" y="1464" type="qcurve"/>
      <point x="1814" y="1464"/>
      <point x="1880" y="1468" type="qcurve"/>
      <point x="1880" y="1405" type="line"/>
      <point x="1792" y="1400"/>
      <point x="1755" y="1368" type="qcurve"/>
      <point x="1718" y="1338"/>
      <point x="1692" y="1223" type="qcurve" smooth="yes"/>
      <point x="1473" y="229" type="line" smooth="yes"/>
      <point x="1472" y="226"/>
      <point x="1470" y="218" type="qcurve" smooth="yes"/>
      <point x="1456" y="154"/>
      <point x="1456" y="127" type="qcurve" smooth="yes"/>
      <point x="1456" y="93"/>
      <point x="1488" y="76" type="qcurve"/>
      <point x="1522" y="60"/>
      <point x="1597" y="59" type="qcurve"/>
      <point x="1597" y="-6" type="line"/>
      <point x="1590" y="-6"/>
      <point x="1516" y="-3"/>
      <point x="1489" y="-2" type="qcurve" smooth="yes"/>
      <point x="1299" y="6"/>
      <point x="1253" y="6" type="qcurve" smooth="yes"/>
      <point x="1161" y="6"/>
      <point x="971" y="-4" type="qcurve" smooth="yes"/>
      <point x="964" y="-4"/>
      <point x="934" y="-5"/>
      <point x="928" y="-6" type="qcurve"/>
      <point x="928" y="59" type="line"/>
      <point x="1034" y="59"/>
      <point x="1080" y="90" type="qcurve"/>
      <point x="1124" y="124"/>
      <point x="1151" y="242" type="qcurve" smooth="yes"/>
      <point x="1346" y="1079" type="line"/>
      <point x="674" y="0" type="line"/>
      <point x="641" y="0" type="line"/>
      <point x="434" y="1079" type="line"/>
      <point x="258" y="283" type="line" smooth="yes"/>
      <point x="248" y="238"/>
      <point x="243" y="201" type="qcurve" smooth="yes"/>
      <point x="238" y="163"/>
      <point x="238" y="143" type="qcurve" smooth="yes"/>
      <point x="238" y="98"/>
      <point x="268" y="80" type="qcurve"/>
      <point x="296" y="61"/>
      <point x="371" y="59" type="qcurve"/>
      <point x="371" y="-6" type="line"/>
      <point x="365" y="-6" type="line"/>
      <point x="220" y="6"/>
      <point x="150" y="6" type="qcurve" smooth="yes"/>
      <point x="86" y="6"/>
      <point x="-39" y="-6" type="qcurve"/>
      <point x="-45" y="-6" type="line"/>
      <point x="-45" y="59" type="line"/>
      <point x="44" y="68"/>
      <point x="84" y="107" type="qcurve" smooth="yes"/>
      <point x="122" y="145"/>
      <point x="154" y="287" type="qcurve" smooth="yes"/>
      <point x="364" y="1234" type="line" smooth="yes"/>
      <point x="374" y="1282"/>
      <point x="376" y="1299" type="qcurve" smooth="yes"/>
      <point x="379" y="1316"/>
      <point x="379" y="1327" type="qcurve" smooth="yes"/>
      <point x="379" y="1368"/>
      <point x="352" y="1385" type="qcurve" smooth="yes"/>
      <point x="327" y="1400"/>
      <point x="240" y="1405" type="qcurve"/>
    </contour>
  </outline>
</glyph>
<glyph name="N" format="1">
  <advance width="1554"/>
  <unicode hex="004E"/>
  <outline>
    <contour>
      <point x="213" y="1468" type="line"/>
      <point x="333" y="1464"/>
      <point x="411" y="1464" type="qcurve"/>
      <point x="483" y="1462"/>
      <point x="647" y="1462" type="qcurve"/>
      <point x="1141" y="549" type="line"/>
      <point x="1280" y="1180" type="line"/>
      <point x="1293" y="1245"/>
      <point x="1297" y="1269" type="qcurve" smooth="yes"/>
      <point x="1303" y="1305"/>
      <point x="1303" y="1323" type="qcurve" smooth="yes"/>
      <point x="1303" y="1364"/>
      <point x="1272" y="1384" type="qcurve"/>
      <point x="1239" y="1404"/>
      <point x="1168" y="1405" type="qcurve"/>
      <point x="1168" y="1468" type="line"/>
      <point x="1226" y="1462"/>
      <point x="1266" y="1460" type="qcurve" smooth="yes"/>
      <point x="1334" y="1458"/>
      <point x="1389" y="1458" type="qcurve" smooth="yes"/>
      <point x="1438" y="1458"/>
      <point x="1502" y="1460" type="qcurve" smooth="yes"/>
      <point x="1538" y="1462"/>
      <point x="1589" y="1468" type="qcurve"/>
      <point x="1589" y="1405" type="line"/>
      <point x="1504" y="1398"/>
      <point x="1462" y="1359" type="qcurve"/>
      <point x="1423" y="1321"/>
      <point x="1391" y="1178" type="qcurve" smooth="yes"/>
      <point x="1124" y="-27" type="line"/>
      <point x="1094" y="-27" type="line"/>
      <point x="463" y="1139" type="line"/>
      <point x="274" y="283" type="line" smooth="yes"/>
      <point x="261" y="223"/>
      <point x="257" y="195" type="qcurve" smooth="yes"/>
      <point x="252" y="160"/>
      <point x="252" y="143" type="qcurve" smooth="yes"/>
      <point x="252" y="100"/>
      <point x="282" y="80" type="qcurve"/>
      <point x="314" y="60"/>
      <point x="387" y="59" type="qcurve"/>
      <point x="387" y="-6" type="line"/>
      <point x="375" y="-5" type="line"/>
      <point x="226" y="6"/>
      <point x="166" y="6" type="qcurve" smooth="yes"/>
      <point x="140" y="6"/>
      <point x="82" y="4" type="qcurve"/>
      <point x="24" y="0"/>
      <point x="-36" y="-6" type="qcurve"/>
      <point x="-37" y="59" type="line"/>
      <point x="54" y="70"/>
      <point x="94" y="109" type="qcurve" smooth="yes"/>
      <point x="134" y="149"/>
      <point x="164" y="287" type="qcurve" smooth="yes"/>
      <point x="379" y="1264" type="line"/>
      <point x="342" y="1335" type="line" smooth="yes"/>
      <point x="322" y="1374"/>
      <point x="296" y="1388" type="qcurve" smooth="yes"/>
      <point x="273" y="1400"/>
      <point x="213" y="1405" type="qcurve"/>
    </contour>
  </outline>
</glyph>
<glyph name="O" format="1">
  <advance width="1647"/>
  <unicode hex="004F"/>
  <outline>
    <contour>
      <point x="1253" y="991" type="qcurve" smooth="yes"/>
      <point x="1253" y="1194"/>
      <point x="1184" y="1292" type="qcurve" smooth="yes"/>
      <point x="1115" y="1391"/>
      <point x="973" y="1391" type="qcurve" smooth="yes"/>
      <point x="885" y="1391"/>
      <point x="802" y="1344" type="qcurve" smooth="yes"/>
      <point x="723" y="1299"/>
      <point x="645" y="1202" type="qcurve" smooth="yes"/>
      <point x="546" y="1078"/>
      <point x="486" y="890" type="qcurve" smooth="yes"/>
      <point x="426" y="704"/>
      <point x="426" y="328"/>
      <point x="507" y="220" type="qcurve" smooth="yes"/>
      <point x="588" y="113"/>
      <point x="729" y="113" type="qcurve" smooth="yes"/>
      <point x="818" y="113"/>
      <point x="903" y="166" type="qcurve" smooth="yes"/>
      <point x="987" y="218"/>
      <point x="1059" y="322" type="qcurve" smooth="yes"/>
      <point x="1153" y="458"/>
      <point x="1203" y="630" type="qcurve"/>
      <point x="1253" y="806"/>
    </contour>
    <contour>
      <point x="954" y="1491" type="qcurve" smooth="yes"/>
      <point x="1247" y="1491"/>
      <point x="1412" y="1338" type="qcurve" smooth="yes"/>
      <point x="1577" y="1184"/>
      <point x="1577" y="911" type="qcurve" smooth="yes"/>
      <point x="1577" y="766"/>
      <point x="1526" y="616" type="qcurve" smooth="yes"/>
      <point x="1474" y="464"/>
      <point x="1378" y="330" type="qcurve"/>
      <point x="1257" y="158"/>
      <point x="1082" y="66" type="qcurve" smooth="yes"/>
      <point x="905" y="-27"/>
      <point x="700" y="-27" type="qcurve" smooth="yes"/>
      <point x="401" y="-27"/>
      <point x="235" y="125" type="qcurve" smooth="yes"/>
      <point x="70" y="276"/>
      <point x="70" y="551" type="qcurve" smooth="yes"/>
      <point x="70" y="696"/>
      <point x="120" y="848" type="qcurve"/>
      <point x="172" y="1000"/>
      <point x="268" y="1135" type="qcurve" smooth="yes"/>
      <point x="389" y="1307"/>
      <point x="745" y="1491"/>
    </contour>
  </outline>
</glyph>
<glyph name="P" format="1">
  <advance width="1339"/>
  <unicode hex="0050"/>
  <outline>
    <contour>
      <point x="592" y="713" type="line"/>
      <point x="613" y="710"/>
      <point x="622" y="710" type="qcurve"/>
      <point x="629" y="709"/>
      <point x="641" y="709" type="qcurve" smooth="yes"/>
      <point x="799" y="709"/>
      <point x="897" y="834" type="qcurve"/>
      <point x="995" y="961"/>
      <point x="995" y="1161" type="qcurve" smooth="yes"/>
      <point x="995" y="1273"/>
      <point x="946" y="1326" type="qcurve"/>
      <point x="897" y="1382"/>
      <point x="801" y="1382" type="qcurve" smooth="yes"/>
      <point x="767" y="1382"/>
      <point x="750" y="1372" type="qcurve"/>
      <point x="736" y="1359"/>
      <point x="727" y="1325" type="qcurve"/>
    </contour>
    <contour>
      <point x="240" y="1468" type="line"/>
      <point x="356" y="1462"/>
      <point x="404" y="1460" type="qcurve"/>
      <point x="508" y="1458"/>
      <point x="561" y="1458" type="qcurve" smooth="yes"/>
      <point x="638" y="1458"/>
      <point x="912" y="1468"/>
      <point x="932" y="1468" type="qcurve" smooth="yes"/>
      <point x="1146" y="1468"/>
      <point x="1246" y="1386" type="qcurve"/>
      <point x="1348" y="1304"/>
      <point x="1348" y="1133" type="qcurve" smooth="yes"/>
      <point x="1348" y="1011"/>
      <point x="1296" y="910" type="qcurve"/>
      <point x="1245" y="805"/>
      <point x="1151" y="735" type="qcurve"/>
      <point x="1079" y="683"/>
      <point x="962" y="656" type="qcurve"/>
      <point x="842" y="631"/>
      <point x="670" y="631" type="qcurve" smooth="yes"/>
      <point x="573" y="631" type="line"/>
      <point x="483" y="229" type="line" smooth="yes"/>
      <point x="479" y="215"/>
      <point x="472" y="176" type="qcurve"/>
      <point x="469" y="150"/>
      <point x="469" y="135" type="qcurve" smooth="yes"/>
      <point x="469" y="94"/>
      <point x="499" y="77" type="qcurve" smooth="yes"/>
      <point x="529" y="60"/>
      <point x="625" y="59" type="qcurve"/>
      <point x="625" y="-6" type="line"/>
      <point x="507" y="0"/>
      <point x="416" y="3" type="qcurve" smooth="yes"/>
      <point x="328" y="6"/>
      <point x="266" y="6" type="qcurve" smooth="yes"/>
      <point x="171" y="6"/>
      <point x="-58" y="-5" type="qcurve"/>
      <point x="-76" y="-6" type="line"/>
      <point x="-76" y="59" type="line"/>
      <point x="30" y="59"/>
      <point x="76" y="90" type="qcurve"/>
      <point x="120" y="125"/>
      <point x="145" y="242" type="qcurve" smooth="yes"/>
      <point x="365" y="1235" type="line"/>
      <point x="365" y="1237" type="line"/>
      <point x="379" y="1305"/>
      <point x="379" y="1327" type="qcurve" smooth="yes"/>
      <point x="379" y="1368"/>
      <point x="352" y="1385" type="qcurve" smooth="yes"/>
      <point x="327" y="1400"/>
      <point x="240" y="1405" type="qcurve"/>
    </contour>
  </outline>
</glyph>
<glyph name="Q" format="1">
  <advance width="1647"/>
  <unicode hex="0051"/>
  <outline>
    <contour>
      <point x="1149" y="109" type="qcurve"/>
      <point x="1226" y="29"/>
      <point x="1312" y="-18" type="qcurve"/>
      <point x="1395" y="-62"/>
      <point x="1479" y="-70" type="qcurve"/>
      <point x="1479" y="-135" type="line"/>
      <point x="1421" y="-135" type="line" smooth="yes"/>
      <point x="1230" y="-135"/>
      <point x="1092" y="-105" type="qcurve" smooth="yes"/>
      <point x="954" y="-76"/>
      <point x="855" y="-13" type="qcurve"/>
      <point x="831" y="-16"/>
      <point x="756" y="-23" type="qcurve" smooth="yes"/>
      <point x="715" y="-27"/>
      <point x="674" y="-27" type="qcurve" smooth="yes"/>
      <point x="396" y="-27"/>
      <point x="232" y="128" type="qcurve"/>
      <point x="70" y="284"/>
      <point x="70" y="551" type="qcurve" smooth="yes"/>
      <point x="70" y="699"/>
      <point x="121" y="849" type="qcurve" smooth="yes"/>
      <point x="172" y="998"/>
      <point x="268" y="1135" type="qcurve" smooth="yes"/>
      <point x="390" y="1308"/>
      <point x="566" y="1399" type="qcurve" smooth="yes"/>
      <point x="744" y="1491"/>
      <point x="954" y="1491" type="qcurve" smooth="yes"/>
      <point x="1248" y="1491"/>
      <point x="1412" y="1337" type="qcurve" smooth="yes"/>
      <point x="1577" y="1183"/>
      <point x="1577" y="909" type="qcurve" smooth="yes"/>
      <point x="1577" y="679"/>
      <point x="1461" y="462" type="qcurve" smooth="yes"/>
      <point x="1346" y="246"/>
    </contour>
    <contour>
      <point x="1253" y="991" type="qcurve" smooth="yes"/>
      <point x="1253" y="1194"/>
      <point x="1184" y="1292" type="qcurve" smooth="yes"/>
      <point x="1115" y="1391"/>
      <point x="973" y="1391" type="qcurve" smooth="yes"/>
      <point x="885" y="1391"/>
      <point x="802" y="1344" type="qcurve" smooth="yes"/>
      <point x="723" y="1299"/>
      <point x="645" y="1202" type="qcurve" smooth="yes"/>
      <point x="546" y="1078"/>
      <point x="486" y="890" type="qcurve" smooth="yes"/>
      <point x="426" y="704"/>
      <point x="426" y="328"/>
      <point x="507" y="220" type="qcurve" smooth="yes"/>
      <point x="588" y="113"/>
      <point x="729" y="113" type="qcurve" smooth="yes"/>
      <point x="818" y="113"/>
      <point x="903" y="166" type="qcurve" smooth="yes"/>
      <point x="987" y="218"/>
      <point x="1059" y="322" type="qcurve" smooth="yes"/>
      <point x="1153" y="458"/>
      <point x="1203" y="630" type="qcurve"/>
      <point x="1253" y="806"/>
    </contour>
  </outline>
</glyph>
<glyph name="R" format="1">
  <advance width="1458"/>
  <unicode hex="0052"/>
  <outline>
    <contour>
      <point x="600" y="787" type="line"/>
      <point x="612" y="785"/>
      <point x="620" y="784" type="qcurve"/>
      <point x="651" y="784" type="line" smooth="yes"/>
      <point x="817" y="784"/>
      <point x="915" y="890" type="qcurve"/>
      <point x="1012" y="997"/>
      <point x="1012" y="1180" type="qcurve" smooth="yes"/>
      <point x="1012" y="1274"/>
      <point x="900" y="1382"/>
      <point x="801" y="1382" type="qcurve" smooth="yes"/>
      <point x="756" y="1382"/>
      <point x="742" y="1372" type="qcurve" smooth="yes"/>
      <point x="726" y="1361"/>
      <point x="719" y="1325" type="qcurve" smooth="yes"/>
    </contour>
    <contour>
      <point x="240" y="1468" type="line"/>
      <point x="389" y="1461"/>
      <point x="424" y="1460" type="qcurve" smooth="yes"/>
      <point x="536" y="1458"/>
      <point x="584" y="1458" type="qcurve" smooth="yes"/>
      <point x="651" y="1458"/>
      <point x="776" y="1463" type="qcurve" smooth="yes"/>
      <point x="899" y="1468"/>
      <point x="918" y="1468" type="qcurve" smooth="yes"/>
      <point x="1156" y="1468"/>
      <point x="1260" y="1396" type="qcurve"/>
      <point x="1364" y="1322"/>
      <point x="1364" y="1159" type="qcurve" smooth="yes"/>
      <point x="1364" y="998"/>
      <point x="1268" y="888" type="qcurve"/>
      <point x="1170" y="778"/>
      <point x="991" y="735" type="qcurve"/>
      <point x="1002" y="720"/>
      <point x="1022" y="688" type="qcurve" smooth="yes"/>
      <point x="1023" y="687"/>
      <point x="1042" y="644"/>
      <point x="1047" y="632" type="qcurve" smooth="yes"/>
      <point x="1200" y="205" type="line" smooth="yes"/>
      <point x="1230" y="122"/>
      <point x="1266" y="90" type="qcurve" smooth="yes"/>
      <point x="1301" y="59"/>
      <point x="1366" y="59" type="qcurve"/>
      <point x="1366" y="-6" type="line"/>
      <point x="1260" y="-2"/>
      <point x="1174" y="-2" type="qcurve"/>
      <point x="1099" y="0"/>
      <point x="911" y="0" type="qcurve"/>
      <point x="723" y="612" type="line" smooth="yes"/>
      <point x="704" y="672"/>
      <point x="684" y="690" type="qcurve" smooth="yes"/>
      <point x="664" y="707"/>
      <point x="621" y="707" type="qcurve" smooth="yes"/>
      <point x="603" y="707"/>
      <point x="598" y="706" type="qcurve"/>
      <point x="587" y="706"/>
      <point x="582" y="705" type="qcurve"/>
      <point x="475" y="229" type="line" smooth="yes"/>
      <point x="472" y="215"/>
      <point x="464" y="174" type="qcurve"/>
      <point x="461" y="148"/>
      <point x="461" y="127" type="qcurve" smooth="yes"/>
      <point x="461" y="94"/>
      <point x="494" y="77" type="qcurve" smooth="yes"/>
      <point x="528" y="60"/>
      <point x="602" y="59" type="qcurve"/>
      <point x="602" y="-6" type="line"/>
      <point x="483" y="0"/>
      <point x="396" y="3" type="qcurve" smooth="yes"/>
      <point x="310" y="6"/>
      <point x="266" y="6" type="qcurve" smooth="yes"/>
      <point x="175" y="6"/>
      <point x="-53" y="-5" type="qcurve" smooth="yes"/>
      <point x="-75" y="-6" type="line"/>
      <point x="-76" y="59" type="line"/>
      <point x="30" y="59"/>
      <point x="76" y="90" type="qcurve"/>
      <point x="120" y="125"/>
      <point x="145" y="242" type="qcurve" smooth="yes"/>
      <point x="365" y="1235" type="line"/>
      <point x="365" y="1237" type="line"/>
      <point x="379" y="1305"/>
      <point x="379" y="1327" type="qcurve" smooth="yes"/>
      <point x="379" y="1368"/>
      <point x="352" y="1385" type="qcurve" smooth="yes"/>
      <point x="327" y="1400"/>
      <point x="240" y="1405" type="qcurve"/>
    </contour>
  </outline>
</glyph>
<glyph name="S" format="1">
  <advance width="1221"/>
  <unicode hex="0053"/>
  <outline>
    <contour>
      <point x="1132" y="1444" type="qcurve"/>
      <point x="1117" y="1377"/>
      <point x="1067" y="1126" type="qcurve"/>
      <point x="1059" y="1080"/>
      <point x="1055" y="1065" type="qcurve"/>
      <point x="991" y="1065" type="line"/>
      <point x="979" y="1217"/>
      <point x="904" y="1306" type="qcurve" smooth="yes"/>
      <point x="831" y="1393"/>
      <point x="713" y="1393" type="qcurve" smooth="yes"/>
      <point x="624" y="1393"/>
      <point x="504" y="1285"/>
      <point x="504" y="1206" type="qcurve" smooth="yes"/>
      <point x="504" y="1118"/>
      <point x="663" y="981" type="qcurve" smooth="yes"/>
      <point x="672" y="973"/>
      <point x="696" y="952"/>
      <point x="698" y="950" type="qcurve" smooth="yes"/>
      <point x="718" y="934" type="line"/>
      <point x="1047" y="649"/>
      <point x="1047" y="457" type="qcurve" smooth="yes"/>
      <point x="1047" y="246"/>
      <point x="909" y="109" type="qcurve" smooth="yes"/>
      <point x="772" y="-27"/>
      <point x="553" y="-27" type="qcurve" smooth="yes"/>
      <point x="459" y="-27"/>
      <point x="195" y="45"/>
      <point x="147" y="45" type="qcurve" smooth="yes"/>
      <point x="128" y="45"/>
      <point x="99" y="38" type="qcurve" smooth="yes"/>
      <point x="63" y="29"/>
      <point x="20" y="16" type="qcurve"/>
      <point x="69" y="242"/>
      <point x="89" y="341" type="qcurve" smooth="yes"/>
      <point x="112" y="450"/>
      <point x="131" y="545" type="qcurve"/>
      <point x="198" y="545" type="line"/>
      <point x="209" y="336"/>
      <point x="302" y="222" type="qcurve"/>
      <point x="395" y="106"/>
      <point x="551" y="106" type="qcurve" smooth="yes"/>
      <point x="646" y="106"/>
      <point x="706" y="169" type="qcurve"/>
      <point x="768" y="231"/>
      <point x="768" y="328" type="qcurve" smooth="yes"/>
      <point x="768" y="380"/>
      <point x="734" y="436" type="qcurve"/>
      <point x="698" y="489"/>
      <point x="569" y="600" type="qcurve" smooth="yes"/>
      <point x="513" y="649"/>
      <point x="504" y="656" type="qcurve" smooth="yes"/>
      <point x="229" y="887"/>
      <point x="229" y="1079" type="qcurve" smooth="yes"/>
      <point x="229" y="1264"/>
      <point x="352" y="1378" type="qcurve"/>
      <point x="476" y="1491"/>
      <point x="676" y="1491" type="qcurve" smooth="yes"/>
      <point x="771" y="1491"/>
      <point x="891" y="1460" type="qcurve"/>
      <point x="1012" y="1430"/>
      <point x="1044" y="1430" type="qcurve" smooth="yes"/>
      <point x="1070" y="1430"/>
      <point x="1090" y="1434" type="qcurve"/>
      <point x="1113" y="1437"/>
    </contour>
  </outline>
</glyph>
<glyph name="T" format="1">
  <advance width="1376"/>
  <unicode hex="0054"/>
  <outline>
    <contour>
      <point x="252" y="1468" type="qcurve"/>
      <point x="298" y="1462"/>
      <point x="335" y="1460" type="qcurve" smooth="yes"/>
      <point x="395" y="1458"/>
      <point x="438" y="1458" type="qcurve" smooth="yes"/>
      <point x="551" y="1458" type="line"/>
      <point x="1133" y="1458" type="line" smooth="yes"/>
      <point x="1206" y="1458"/>
      <point x="1300" y="1460" type="qcurve" smooth="yes"/>
      <point x="1356" y="1462"/>
      <point x="1423" y="1468" type="qcurve"/>
      <point x="1392" y="1344"/>
      <point x="1377" y="1275" type="qcurve" smooth="yes"/>
      <point x="1343" y="1119"/>
      <point x="1331" y="1057" type="qcurve"/>
      <point x="1268" y="1057" type="line"/>
      <point x="1274" y="1100"/>
      <point x="1276" y="1114" type="qcurve"/>
      <point x="1278" y="1152"/>
      <point x="1278" y="1167" type="qcurve" smooth="yes"/>
      <point x="1278" y="1268"/>
      <point x="1218" y="1315" type="qcurve" smooth="yes"/>
      <point x="1159" y="1362"/>
      <point x="1030" y="1362" type="qcurve" smooth="yes"/>
      <point x="983" y="1362" type="line"/>
      <point x="733" y="229" type="line" smooth="yes"/>
      <point x="730" y="215"/>
      <point x="722" y="174" type="qcurve"/>
      <point x="719" y="152"/>
      <point x="719" y="135" type="qcurve" smooth="yes"/>
      <point x="719" y="94"/>
      <point x="749" y="77" type="qcurve" smooth="yes"/>
      <point x="779" y="61"/>
      <point x="874" y="59" type="qcurve"/>
      <point x="874" y="-6" type="line"/>
      <point x="757" y="0"/>
      <point x="668" y="3" type="qcurve" smooth="yes"/>
      <point x="576" y="6"/>
      <point x="510" y="6" type="qcurve" smooth="yes"/>
      <point x="402" y="6"/>
      <point x="166" y="-6" type="qcurve"/>
      <point x="160" y="-6" type="line"/>
      <point x="160" y="59" type="line"/>
      <point x="268" y="59"/>
      <point x="312" y="92" type="qcurve"/>
      <point x="358" y="124"/>
      <point x="383" y="242" type="qcurve"/>
      <point x="631" y="1362" type="line"/>
      <point x="610" y="1362" type="line" smooth="yes"/>
      <point x="450" y="1362"/>
      <point x="354" y="1290" type="qcurve"/>
      <point x="258" y="1221"/>
      <point x="199" y="1057" type="qcurve"/>
      <point x="133" y="1057" type="line"/>
      <point x="171" y="1175"/>
      <point x="198" y="1266" type="qcurve"/>
      <point x="230" y="1384"/>
    </contour>
  </outline>
</glyph>
<glyph name="U" format="1">
  <advance width="1614"/>
  <unicode hex="0055"/>
  <outline>
    <contour>
      <point x="252" y="1468" type="line"/>
      <point x="278" y="1467"/>
      <point x="416" y="1461"/>
      <point x="448" y="1460" type="qcurve" smooth="yes"/>
      <point x="562" y="1458"/>
      <point x="602" y="1458" type="qcurve" smooth="yes"/>
      <point x="639" y="1458"/>
      <point x="741" y="1460" type="qcurve" smooth="yes"/>
      <point x="770" y="1461"/>
      <point x="897" y="1467"/>
      <point x="917" y="1468" type="qcurve"/>
      <point x="917" y="1405" type="line"/>
      <point x="827" y="1399"/>
      <point x="790" y="1366" type="qcurve"/>
      <point x="753" y="1335"/>
      <point x="727" y="1223" type="qcurve"/>
      <point x="573" y="522" type="line" smooth="yes"/>
      <point x="562" y="474"/>
      <point x="558" y="438" type="qcurve" smooth="yes"/>
      <point x="553" y="398"/>
      <point x="553" y="375" type="qcurve" smooth="yes"/>
      <point x="553" y="260"/>
      <point x="624" y="199" type="qcurve"/>
      <point x="694" y="137"/>
      <point x="823" y="137" type="qcurve" smooth="yes"/>
      <point x="969" y="137"/>
      <point x="1064" y="235" type="qcurve" smooth="yes"/>
      <point x="1157" y="332"/>
      <point x="1202" y="532" type="qcurve" smooth="yes"/>
      <point x="1346" y="1180" type="line"/>
      <point x="1359" y="1245"/>
      <point x="1362" y="1268" type="qcurve" smooth="yes"/>
      <point x="1368" y="1304"/>
      <point x="1368" y="1323" type="qcurve" smooth="yes"/>
      <point x="1368" y="1365"/>
      <point x="1337" y="1384" type="qcurve" smooth="yes"/>
      <point x="1305" y="1404"/>
      <point x="1233" y="1405" type="qcurve"/>
      <point x="1233" y="1468" type="line"/>
      <point x="1289" y="1462"/>
      <point x="1331" y="1460" type="qcurve" smooth="yes"/>
      <point x="1401" y="1458"/>
      <point x="1454" y="1458" type="qcurve" smooth="yes"/>
      <point x="1504" y="1458"/>
      <point x="1570" y="1460" type="qcurve" smooth="yes"/>
      <point x="1609" y="1462"/>
      <point x="1657" y="1468" type="qcurve"/>
      <point x="1657" y="1405" type="line"/>
      <point x="1568" y="1398"/>
      <point x="1484" y="1314"/>
      <point x="1456" y="1178" type="qcurve"/>
      <point x="1315" y="539" type="line"/>
      <point x="1244" y="223"/>
      <point x="1108" y="99" type="qcurve"/>
      <point x="973" y="-27"/>
      <point x="711" y="-27" type="qcurve" smooth="yes"/>
      <point x="465" y="-27"/>
      <point x="199" y="177"/>
      <point x="199" y="362" type="qcurve" smooth="yes"/>
      <point x="199" y="394"/>
      <point x="204" y="442" type="qcurve" smooth="yes"/>
      <point x="209" y="485"/>
      <point x="219" y="528" type="qcurve" smooth="yes"/>
      <point x="377" y="1235" type="line" smooth="yes"/>
      <point x="387" y="1283"/>
      <point x="388" y="1292" type="qcurve" smooth="yes"/>
      <point x="391" y="1312"/>
      <point x="391" y="1327" type="qcurve" smooth="yes"/>
      <point x="391" y="1368"/>
      <point x="364" y="1385" type="qcurve" smooth="yes"/>
      <point x="339" y="1400"/>
      <point x="252" y="1405" type="qcurve"/>
    </contour>
  </outline>
</glyph>
<glyph name="V" format="1">
  <advance width="1323"/>
  <unicode hex="0056"/>
  <outline>
    <contour>
      <point x="70" y="1468" type="line"/>
      <point x="111" y="1466"/>
      <point x="233" y="1461"/>
      <point x="254" y="1460" type="qcurve" smooth="yes"/>
      <point x="350" y="1458"/>
      <point x="377" y="1458" type="qcurve" smooth="yes"/>
      <point x="450" y="1458"/>
      <point x="550" y="1460" type="qcurve" smooth="yes"/>
      <point x="607" y="1462"/>
      <point x="694" y="1468" type="qcurve"/>
      <point x="694" y="1405" type="line"/>
      <point x="600" y="1399"/>
      <point x="572" y="1382" type="qcurve"/>
      <point x="543" y="1367"/>
      <point x="543" y="1327" type="qcurve" smooth="yes"/>
      <point x="543" y="1312"/>
      <point x="544" y="1304" type="qcurve" smooth="yes"/>
      <point x="547" y="1280" type="line"/>
      <point x="674" y="389" type="line"/>
      <point x="1198" y="1266" type="line" smooth="yes"/>
      <point x="1216" y="1295"/>
      <point x="1226" y="1320" type="qcurve" smooth="yes"/>
      <point x="1235" y="1341"/>
      <point x="1235" y="1356" type="qcurve" smooth="yes"/>
      <point x="1235" y="1378"/>
      <point x="1208" y="1389" type="qcurve" smooth="yes"/>
      <point x="1178" y="1401"/>
      <point x="1110" y="1405" type="qcurve"/>
      <point x="1110" y="1468" type="line"/>
      <point x="1174" y="1462"/>
      <point x="1211" y="1460" type="qcurve" smooth="yes"/>
      <point x="1279" y="1458"/>
      <point x="1313" y="1458" type="qcurve" smooth="yes"/>
      <point x="1340" y="1458"/>
      <point x="1408" y="1460" type="qcurve" smooth="yes"/>
      <point x="1429" y="1461"/>
      <point x="1517" y="1468" type="qcurve"/>
      <point x="1518" y="1405" type="line"/>
      <point x="1513" y="1405" type="line" smooth="yes"/>
      <point x="1448" y="1405"/>
      <point x="1404" y="1368" type="qcurve"/>
      <point x="1358" y="1334"/>
      <point x="1284" y="1208" type="qcurve"/>
      <point x="545" y="-27" type="line"/>
      <point x="424" y="-27" type="line"/>
      <point x="225" y="1219" type="line" smooth="yes"/>
      <point x="225" y="1220"/>
      <point x="223" y="1234" type="qcurve" smooth="yes"/>
      <point x="199" y="1393"/>
      <point x="70" y="1405" type="qcurve"/>
    </contour>
  </outline>
</glyph>
<glyph name="W" format="1">
  <advance width="1976"/>
  <unicode hex="0057"/>
  <outline>
    <contour>
      <point x="78" y="1468" type="line"/>
      <point x="121" y="1466"/>
      <point x="246" y="1461"/>
      <point x="262" y="1460" type="qcurve" smooth="yes"/>
      <point x="360" y="1458"/>
      <point x="387" y="1458" type="qcurve" smooth="yes"/>
      <point x="458" y="1458"/>
      <point x="560" y="1460" type="qcurve" smooth="yes"/>
      <point x="615" y="1462"/>
      <point x="702" y="1468" type="qcurve"/>
      <point x="702" y="1405" type="line"/>
      <point x="610" y="1399"/>
      <point x="582" y="1383" type="qcurve" smooth="yes"/>
      <point x="553" y="1366"/>
      <point x="553" y="1327" type="qcurve" smooth="yes"/>
      <point x="553" y="1314"/>
      <point x="554" y="1306" type="qcurve" smooth="yes"/>
      <point x="555" y="1297"/>
      <point x="557" y="1280" type="qcurve" smooth="yes"/>
      <point x="649" y="479" type="line"/>
      <point x="993" y="1085" type="line"/>
      <point x="975" y="1219" type="line"/>
      <point x="958" y="1338"/>
      <point x="928" y="1368" type="qcurve" smooth="yes"/>
      <point x="896" y="1399"/>
      <point x="819" y="1405" type="qcurve"/>
      <point x="819" y="1468" type="line"/>
      <point x="861" y="1466"/>
      <point x="985" y="1461"/>
      <point x="1004" y="1460" type="qcurve" smooth="yes"/>
      <point x="1100" y="1458"/>
      <point x="1128" y="1458" type="qcurve" smooth="yes"/>
      <point x="1200" y="1458"/>
      <point x="1300" y="1460" type="qcurve" smooth="yes"/>
      <point x="1358" y="1462"/>
      <point x="1444" y="1468" type="qcurve"/>
      <point x="1443" y="1405" type="line"/>
      <point x="1356" y="1401"/>
      <point x="1322" y="1383" type="qcurve" smooth="yes"/>
      <point x="1292" y="1366"/>
      <point x="1292" y="1327" type="qcurve" smooth="yes"/>
      <point x="1292" y="1314"/>
      <point x="1293" y="1307" type="qcurve" smooth="yes"/>
      <point x="1294" y="1298"/>
      <point x="1296" y="1281" type="qcurve" smooth="yes"/>
      <point x="1389" y="492" type="line"/>
      <point x="1825" y="1266" type="line"/>
      <point x="1829" y="1273" type="line" smooth="yes"/>
      <point x="1864" y="1334"/>
      <point x="1864" y="1356" type="qcurve" smooth="yes"/>
      <point x="1864" y="1378"/>
      <point x="1837" y="1389" type="qcurve" smooth="yes"/>
      <point x="1807" y="1401"/>
      <point x="1739" y="1405" type="qcurve"/>
      <point x="1739" y="1468" type="line"/>
      <point x="1803" y="1462"/>
      <point x="1839" y="1460" type="qcurve" smooth="yes"/>
      <point x="1905" y="1458"/>
      <point x="1939" y="1458" type="qcurve" smooth="yes"/>
      <point x="1970" y="1458"/>
      <point x="2038" y="1460" type="qcurve"/>
      <point x="2067" y="1462"/>
      <point x="2144" y="1468" type="qcurve"/>
      <point x="2144" y="1405" type="line"/>
      <point x="2140" y="1405" type="line" smooth="yes"/>
      <point x="2074" y="1405"/>
      <point x="2024" y="1362" type="qcurve"/>
      <point x="1973" y="1320"/>
      <point x="1911" y="1208" type="qcurve"/>
      <point x="1214" y="-27" type="line"/>
      <point x="1139" y="-27" type="line"/>
      <point x="1020" y="938" type="line"/>
      <point x="473" y="-27" type="line"/>
      <point x="397" y="-27" type="line"/>
      <point x="233" y="1219" type="line" smooth="yes"/>
      <point x="227" y="1269"/>
      <point x="219" y="1306" type="qcurve" smooth="yes"/>
      <point x="212" y="1339"/>
      <point x="201" y="1354" type="qcurve" smooth="yes"/>
      <point x="187" y="1374"/>
      <point x="156" y="1388" type="qcurve"/>
      <point x="123" y="1401"/>
      <point x="78" y="1405" type="qcurve"/>
    </contour>
  </outline>
</glyph>
<glyph name="X" format="1">
  <advance width="1452"/>
  <unicode hex="0058"/>
  <outline>
    <contour>
      <point x="166" y="1468" type="line"/>
      <point x="211" y="1466"/>
      <point x="344" y="1461"/>
      <point x="362" y="1460" type="qcurve" smooth="yes"/>
      <point x="464" y="1458"/>
      <point x="494" y="1458" type="qcurve" smooth="yes"/>
      <point x="570" y="1458"/>
      <point x="676" y="1460" type="qcurve" smooth="yes"/>
      <point x="739" y="1462"/>
      <point x="827" y="1468" type="qcurve"/>
      <point x="827" y="1405" type="line"/>
      <point x="752" y="1400"/>
      <point x="723" y="1385" type="qcurve" smooth="yes"/>
      <point x="692" y="1369"/>
      <point x="692" y="1335" type="qcurve" smooth="yes"/>
      <point x="692" y="1328"/>
      <point x="695" y="1316" type="qcurve" smooth="yes"/>
      <point x="699" y="1302"/>
      <point x="707" y="1282" type="qcurve" smooth="yes"/>
      <point x="838" y="938" type="line"/>
      <point x="1135" y="1268" type="line" smooth="yes"/>
      <point x="1159" y="1295"/>
      <point x="1174" y="1318" type="qcurve"/>
      <point x="1186" y="1339"/>
      <point x="1186" y="1354" type="qcurve" smooth="yes"/>
      <point x="1186" y="1375"/>
      <point x="1163" y="1386" type="qcurve" smooth="yes"/>
      <point x="1142" y="1397"/>
      <point x="1078" y="1405" type="qcurve"/>
      <point x="1077" y="1468" type="line"/>
      <point x="1157" y="1462"/>
      <point x="1191" y="1460" type="qcurve"/>
      <point x="1265" y="1458"/>
      <point x="1305" y="1458" type="qcurve" smooth="yes"/>
      <point x="1336" y="1458"/>
      <point x="1412" y="1460" type="qcurve" smooth="yes"/>
      <point x="1427" y="1461"/>
      <point x="1540" y="1468" type="qcurve"/>
      <point x="1540" y="1405" type="line"/>
      <point x="1458" y="1400"/>
      <point x="1402" y="1371" type="qcurve" smooth="yes"/>
      <point x="1342" y="1341"/>
      <point x="1257" y="1247" type="qcurve" smooth="yes"/>
      <point x="881" y="831" type="line"/>
      <point x="1145" y="203" type="line"/>
      <point x="1147" y="197" type="line"/>
      <point x="1184" y="105"/>
      <point x="1223" y="82" type="qcurve" smooth="yes"/>
      <point x="1241" y="72"/>
      <point x="1268" y="68" type="qcurve" smooth="yes"/>
      <point x="1294" y="64"/>
      <point x="1345" y="59" type="qcurve"/>
      <point x="1346" y="-6" type="line"/>
      <point x="1230" y="0"/>
      <point x="1144" y="3" type="qcurve" smooth="yes"/>
      <point x="1062" y="6"/>
      <point x="1018" y="6" type="qcurve" smooth="yes"/>
      <point x="931" y="6"/>
      <point x="708" y="-5" type="qcurve"/>
      <point x="684" y="-6" type="line"/>
      <point x="684" y="59" type="line"/>
      <point x="759" y="64"/>
      <point x="788" y="78" type="qcurve" smooth="yes"/>
      <point x="819" y="94"/>
      <point x="819" y="127" type="qcurve" smooth="yes"/>
      <point x="819" y="134"/>
      <point x="816" y="146" type="qcurve" smooth="yes"/>
      <point x="815" y="150"/>
      <point x="805" y="180" type="qcurve"/>
      <point x="639" y="592" type="line"/>
      <point x="268" y="178" type="line" smooth="yes"/>
      <point x="254" y="162"/>
      <point x="240" y="141" type="qcurve"/>
      <point x="231" y="124"/>
      <point x="231" y="111" type="qcurve" smooth="yes"/>
      <point x="231" y="88"/>
      <point x="258" y="76" type="qcurve"/>
      <point x="281" y="64"/>
      <point x="344" y="59" type="qcurve"/>
      <point x="344" y="-6" type="line"/>
      <point x="262" y="0"/>
      <point x="204" y="3" type="qcurve" smooth="yes"/>
      <point x="147" y="6"/>
      <point x="115" y="6" type="qcurve" smooth="yes"/>
      <point x="61" y="6"/>
      <point x="-73" y="-3" type="qcurve" smooth="yes"/>
      <point x="-102" y="-4"/>
      <point x="-118" y="-6" type="qcurve"/>
      <point x="-119" y="59" type="line"/>
      <point x="-37" y="64"/>
      <point x="20" y="93" type="qcurve" smooth="yes"/>
      <point x="79" y="123"/>
      <point x="164" y="215" type="qcurve"/>
      <point x="598" y="696" type="line"/>
      <point x="367" y="1262" type="line" smooth="yes"/>
      <point x="327" y="1358"/>
      <point x="289" y="1380" type="qcurve" smooth="yes"/>
      <point x="248" y="1404"/>
      <point x="166" y="1405" type="qcurve"/>
    </contour>
  </outline>
</glyph>
<glyph name="Y" format="1">
  <advance width="1296"/>
  <unicode hex="0059"/>
  <outline>
    <contour>
      <point x="45" y="1468" type="line"/>
      <point x="84" y="1466"/>
      <point x="240" y="1460" type="line" smooth="yes"/>
      <point x="348" y="1458"/>
      <point x="381" y="1458" type="qcurve" smooth="yes"/>
      <point x="438" y="1458"/>
      <point x="540" y="1460" type="qcurve" smooth="yes"/>
      <point x="594" y="1462"/>
      <point x="690" y="1468" type="qcurve"/>
      <point x="690" y="1405" type="line"/>
      <point x="594" y="1399"/>
      <point x="569" y="1384" type="qcurve"/>
      <point x="543" y="1367"/>
      <point x="543" y="1329" type="qcurve" smooth="yes"/>
      <point x="543" y="1320"/>
      <point x="546" y="1308" type="qcurve" smooth="yes"/>
      <point x="548" y="1296"/>
      <point x="555" y="1278" type="qcurve" smooth="yes"/>
      <point x="750" y="756" type="line"/>
      <point x="1161" y="1288" type="line"/>
      <point x="1176" y="1305"/>
      <point x="1186" y="1326" type="qcurve"/>
      <point x="1194" y="1347"/>
      <point x="1194" y="1358" type="qcurve" smooth="yes"/>
      <point x="1194" y="1382"/>
      <point x="1170" y="1392" type="qcurve"/>
      <point x="1145" y="1404"/>
      <point x="1096" y="1405" type="qcurve"/>
      <point x="1096" y="1468" type="line"/>
      <point x="1117" y="1467"/>
      <point x="1196" y="1461"/>
      <point x="1214" y="1460" type="qcurve" smooth="yes"/>
      <point x="1278" y="1458"/>
      <point x="1300" y="1458" type="qcurve" smooth="yes"/>
      <point x="1336" y="1458"/>
      <point x="1396" y="1460" type="qcurve" smooth="yes"/>
      <point x="1427" y="1462"/>
      <point x="1487" y="1468" type="qcurve"/>
      <point x="1486" y="1405" type="line"/>
      <point x="1431" y="1401"/>
      <point x="1384" y="1374" type="qcurve"/>
      <point x="1341" y="1348"/>
      <point x="1288" y="1282" type="qcurve"/>
      <point x="801" y="659" type="line"/>
      <point x="705" y="230" type="line" smooth="yes"/>
      <point x="701" y="213"/>
      <point x="694" y="176" type="qcurve" smooth="yes"/>
      <point x="690" y="153"/>
      <point x="690" y="135" type="qcurve" smooth="yes"/>
      <point x="690" y="94"/>
      <point x="720" y="77" type="qcurve" smooth="yes"/>
      <point x="750" y="60"/>
      <point x="846" y="59" type="qcurve"/>
      <point x="846" y="-6" type="line"/>
      <point x="728" y="0"/>
      <point x="548" y="6"/>
      <point x="487" y="6" type="qcurve" smooth="yes"/>
      <point x="387" y="6"/>
      <point x="187" y="-4" type="qcurve" smooth="yes"/>
      <point x="153" y="-6"/>
      <point x="150" y="-6" type="qcurve"/>
      <point x="150" y="59" type="line"/>
      <point x="258" y="59"/>
      <point x="302" y="92" type="qcurve" smooth="yes"/>
      <point x="346" y="124"/>
      <point x="373" y="242" type="qcurve" smooth="yes"/>
      <point x="461" y="639" type="line"/>
      <point x="211" y="1266" type="line" smooth="yes"/>
      <point x="194" y="1307"/>
      <point x="176" y="1336" type="qcurve" smooth="yes"/>
      <point x="157" y="1366"/>
      <point x="144" y="1376" type="qcurve" smooth="yes"/>
      <point x="128" y="1388"/>
      <point x="102" y="1396" type="qcurve" smooth="yes"/>
      <point x="76" y="1404"/>
      <point x="45" y="1405" type="qcurve"/>
    </contour>
  </outline>
</glyph>
<glyph name="Z" format="1">
  <advance width="1403"/>
  <unicode hex="005A"/>
  <outline>
    <contour>
      <point x="309" y="1468" type="qcurve"/>
      <point x="471" y="1462"/>
      <point x="562" y="1460" type="qcurve" smooth="yes"/>
      <point x="732" y="1458"/>
      <point x="829" y="1458" type="qcurve" smooth="yes"/>
      <point x="969" y="1458"/>
      <point x="1167" y="1460" type="qcurve" smooth="yes"/>
      <point x="1282" y="1462"/>
      <point x="1443" y="1468" type="qcurve"/>
      <point x="414" y="102" type="line"/>
      <point x="723" y="102" type="line" smooth="yes"/>
      <point x="935" y="102"/>
      <point x="1036" y="172" type="qcurve"/>
      <point x="1140" y="242"/>
      <point x="1204" y="424" type="qcurve"/>
      <point x="1268" y="424" type="line"/>
      <point x="1254" y="360"/>
      <point x="1231" y="243" type="qcurve" smooth="yes"/>
      <point x="1217" y="173"/>
      <point x="1185" y="-6" type="qcurve"/>
      <point x="1047" y="-3"/>
      <point x="996" y="-1" type="qcurve" smooth="yes"/>
      <point x="717" y="6"/>
      <point x="600" y="6" type="qcurve" smooth="yes"/>
      <point x="477" y="6"/>
      <point x="179" y="-1" type="qcurve" smooth="yes"/>
      <point x="130" y="-2"/>
      <point x="-30" y="-5"/>
      <point x="-59" y="-6" type="qcurve"/>
      <point x="969" y="1362" type="line"/>
      <point x="750" y="1362" type="line" smooth="yes"/>
      <point x="560" y="1362"/>
      <point x="458" y="1302" type="qcurve"/>
      <point x="358" y="1240"/>
      <point x="260" y="1083" type="qcurve"/>
      <point x="195" y="1083" type="line"/>
      <point x="233" y="1194"/>
      <point x="256" y="1276" type="qcurve"/>
      <point x="281" y="1356"/>
    </contour>
  </outline>
</glyph>
<glyph name="bracketleft" format="1">
  <advance width="891"/>
  <unicode hex="005B"/>
  <outline>
    <contour>
      <point x="463" y="1462" type="line"/>
      <point x="985" y="1462" type="line"/>
      <point x="985" y="1393" type="line"/>
      <point x="719" y="1393" type="line"/>
      <point x="358" y="-236" type="line"/>
      <point x="616" y="-236" type="line"/>
      <point x="616" y="-305" type="line"/>
      <point x="70" y="-305" type="line"/>
    </contour>
  </outline>
</glyph>
<glyph name="backslash" format="1">
  <advance width="907"/>
  <unicode hex="005C"/>
  <outline>
    <contour>
      <point x="270" y="1491" type="line"/>
      <point x="395" y="1491" type="line"/>
      <point x="633" y="-217" type="line"/>
      <point x="510" y="-217" type="line"/>
    </contour>
  </outline>
</glyph>
<glyph name="bracketright" format="1">
  <advance width="891"/>
  <unicode hex="005D"/>
  <outline>
    <contour>
      <point x="209" y="1462" type="line"/>
      <point x="756" y="1462" type="line"/>
      <point x="365" y="-305" type="line"/>
      <point x="-160" y="-305" type="line"/>
      <point x="-160" y="-236" type="line"/>
      <point x="109" y="-236" type="line"/>
      <point x="469" y="1393" type="line"/>
      <point x="209" y="1393" type="line"/>
    </contour>
  </outline>
</glyph>
<glyph name="asciicircum" format="1">
  <advance width="2048"/>
  <unicode hex="005E"/>
  <outline>
    <contour>
      <point x="905" y="1462" type="line"/>
      <point x="1141" y="1462" type="line"/>
      <point x="1632" y="897" type="line"/>
      <point x="1520" y="897" type="line"/>
      <point x="1022" y="1270" type="line"/>
      <point x="524" y="897" type="line"/>
      <point x="412" y="897" type="line"/>
    </contour>
  </outline>
</glyph>
<glyph name="underscore" format="1">
  <advance width="1024"/>
  <unicode hex="005F"/>
  <outline>
    <contour>
      <point x="0" y="-279" type="line"/>
      <point x="1024" y="-279" type="line"/>
      <point x="1024" y="-483" type="line"/>
      <point x="0" y="-483" type="line"/>
    </contour>
  </outline>
</glyph>
<glyph name="grave" format="1">
  <advance width="1024"/>
  <unicode hex="0060"/>
  <outline>
    <contour>
      <point x="477" y="1481" type="qcurve" smooth="yes"/>
      <point x="780" y="1110" type="line"/>
      <point x="655" y="1110" type="line"/>
      <point x="332" y="1341" type="line"/>
      <point x="286" y="1376"/>
      <point x="268" y="1400" type="qcurve" smooth="yes"/>
      <point x="252" y="1422"/>
      <point x="252" y="1450" type="qcurve" smooth="yes"/>
      <point x="252" y="1496"/>
      <point x="282" y="1524" type="qcurve"/>
      <point x="312" y="1554"/>
      <point x="356" y="1554" type="qcurve" smooth="yes"/>
      <point x="388" y="1554"/>
      <point x="416" y="1536" type="qcurve"/>
      <point x="445" y="1519"/>
    </contour>
  </outline>
</glyph>
<glyph name="a" format="1">
  <advance width="1221"/>
  <unicode hex="0061"/>
  <outline>
    <contour>
      <point x="725" y="711" type="line"/>
      <point x="725" y="727" type="line" smooth="yes"/>
      <point x="725" y="812"/>
      <point x="694" y="860" type="qcurve"/>
      <point x="661" y="907"/>
      <point x="604" y="907" type="qcurve" smooth="yes"/>
      <point x="575" y="907"/>
      <point x="546" y="894" type="qcurve" smooth="yes"/>
      <point x="516" y="880"/>
      <point x="494" y="858" type="qcurve" smooth="yes"/>
      <point x="457" y="822"/>
      <point x="420" y="770" type="qcurve"/>
      <point x="381" y="707"/>
      <point x="354" y="649" type="qcurve" smooth="yes"/>
      <point x="308" y="553"/>
      <point x="286" y="467" type="qcurve"/>
      <point x="262" y="380"/>
      <point x="262" y="311" type="qcurve" smooth="yes"/>
      <point x="262" y="236"/>
      <point x="290" y="192" type="qcurve"/>
      <point x="320" y="150"/>
      <point x="371" y="150" type="qcurve" smooth="yes"/>
      <point x="427" y="150"/>
      <point x="490" y="217" type="qcurve"/>
      <point x="552" y="281"/>
      <point x="649" y="442" type="qcurve"/>
    </contour>
    <contour>
      <point x="768" y="848" type="qcurve"/>
      <point x="801" y="983" type="line"/>
      <point x="1075" y="983" type="line"/>
      <point x="887" y="310" type="line" smooth="yes"/>
      <point x="880" y="285"/>
      <point x="879" y="274" type="qcurve" smooth="yes"/>
      <point x="877" y="254"/>
      <point x="877" y="250" type="qcurve" smooth="yes"/>
      <point x="877" y="229"/>
      <point x="886" y="220" type="qcurve"/>
      <point x="893" y="209"/>
      <point x="911" y="209" type="qcurve" smooth="yes"/>
      <point x="940" y="209"/>
      <point x="974" y="246" type="qcurve"/>
      <point x="1006" y="279"/>
      <point x="1042" y="350" type="qcurve"/>
      <point x="1094" y="326" type="line"/>
      <point x="1017" y="149"/>
      <point x="924" y="62" type="qcurve"/>
      <point x="831" y="-27"/>
      <point x="721" y="-27" type="qcurve" smooth="yes"/>
      <point x="658" y="-27"/>
      <point x="620" y="9" type="qcurve"/>
      <point x="584" y="45"/>
      <point x="584" y="106" type="qcurve" smooth="yes"/>
      <point x="584" y="134"/>
      <point x="588" y="166" type="qcurve" smooth="yes"/>
      <point x="594" y="211"/>
      <point x="604" y="264" type="qcurve"/>
      <point x="511" y="109"/>
      <point x="420" y="42" type="qcurve"/>
      <point x="330" y="-27"/>
      <point x="221" y="-27" type="qcurve" smooth="yes"/>
      <point x="106" y="-27"/>
      <point x="40" y="48" type="qcurve"/>
      <point x="-27" y="122"/>
      <point x="-27" y="254" type="qcurve" smooth="yes"/>
      <point x="-27" y="384"/>
      <point x="34" y="532" type="qcurve"/>
      <point x="98" y="680"/>
      <point x="201" y="793" type="qcurve" smooth="yes"/>
      <point x="285" y="886"/>
      <point x="380" y="934" type="qcurve" smooth="yes"/>
      <point x="475" y="983"/>
      <point x="575" y="983" type="qcurve" smooth="yes"/>
      <point x="645" y="983"/>
      <point x="695" y="948" type="qcurve"/>
      <point x="746" y="911"/>
    </contour>
  </outline>
</glyph>
<glyph name="b" format="1">
  <advance width="1092"/>
  <unicode hex="0062"/>
  <outline>
    <contour>
      <point x="319" y="311" type="line" smooth="yes"/>
      <point x="313" y="284"/>
      <point x="307" y="230"/>
      <point x="307" y="205" type="qcurve" smooth="yes"/>
      <point x="307" y="137"/>
      <point x="363" y="63"/>
      <point x="414" y="63" type="qcurve" smooth="yes"/>
      <point x="473" y="63"/>
      <point x="527" y="116" type="qcurve"/>
      <point x="582" y="166"/>
      <point x="635" y="270" type="qcurve" smooth="yes"/>
      <point x="677" y="353"/>
      <point x="701" y="445" type="qcurve" smooth="yes"/>
      <point x="725" y="538"/>
      <point x="725" y="612" type="qcurve" smooth="yes"/>
      <point x="725" y="694"/>
      <point x="686" y="744" type="qcurve"/>
      <point x="648" y="795"/>
      <point x="588" y="795" type="qcurve" smooth="yes"/>
      <point x="546" y="795"/>
      <point x="502" y="768" type="qcurve" smooth="yes"/>
      <point x="458" y="742"/>
      <point x="403" y="682" type="qcurve"/>
    </contour>
    <contour>
      <point x="590" y="1544" type="line"/>
      <point x="424" y="793" type="line"/>
      <point x="511" y="885"/>
      <point x="599" y="934" type="qcurve"/>
      <point x="684" y="983"/>
      <point x="762" y="983" type="qcurve" smooth="yes"/>
      <point x="877" y="983"/>
      <point x="944" y="900" type="qcurve" smooth="yes"/>
      <point x="1010" y="819"/>
      <point x="1010" y="674" type="qcurve" smooth="yes"/>
      <point x="1010" y="544"/>
      <point x="962" y="422" type="qcurve" smooth="yes"/>
      <point x="916" y="303"/>
      <point x="825" y="203" type="qcurve" smooth="yes"/>
      <point x="717" y="83"/>
      <point x="598" y="27" type="qcurve" smooth="yes"/>
      <point x="477" y="-29"/>
      <point x="332" y="-29" type="qcurve" smooth="yes"/>
      <point x="182" y="-29"/>
      <point x="108" y="22" type="qcurve"/>
      <point x="35" y="74"/>
      <point x="35" y="178" type="qcurve" smooth="yes"/>
      <point x="35" y="215"/>
      <point x="40" y="249" type="qcurve"/>
      <point x="42" y="281"/>
      <point x="53" y="329" type="qcurve" smooth="yes"/>
      <point x="256" y="1246" type="line" smooth="yes"/>
      <point x="257" y="1249"/>
      <point x="263" y="1275"/>
      <point x="264" y="1282" type="qcurve" smooth="yes"/>
      <point x="276" y="1333"/>
      <point x="276" y="1350" type="qcurve" smooth="yes"/>
      <point x="276" y="1374"/>
      <point x="262" y="1385" type="qcurve" smooth="yes"/>
      <point x="249" y="1395"/>
      <point x="211" y="1395" type="qcurve" smooth="yes"/>
      <point x="198" y="1395"/>
      <point x="159" y="1392" type="qcurve" smooth="yes"/>
      <point x="153" y="1391"/>
      <point x="145" y="1391" type="qcurve"/>
      <point x="145" y="1444" type="line"/>
    </contour>
  </outline>
</glyph>
<glyph name="c" format="1">
  <advance width="973"/>
  <unicode hex="0063"/>
  <outline>
    <contour>
      <point x="776" y="336" type="qcurve"/>
      <point x="823" y="301" type="line"/>
      <point x="712" y="136"/>
      <point x="592" y="55" type="qcurve"/>
      <point x="473" y="-27"/>
      <point x="336" y="-27" type="qcurve" smooth="yes"/>
      <point x="172" y="-27"/>
      <point x="81" y="66" type="qcurve" smooth="yes"/>
      <point x="-10" y="158"/>
      <point x="-10" y="326" type="qcurve" smooth="yes"/>
      <point x="-10" y="442"/>
      <point x="48" y="566" type="qcurve"/>
      <point x="109" y="690"/>
      <point x="213" y="788" type="qcurve"/>
      <point x="315" y="886"/>
      <point x="430" y="934" type="qcurve" smooth="yes"/>
      <point x="546" y="983"/>
      <point x="678" y="983" type="qcurve" smooth="yes"/>
      <point x="805" y="983"/>
      <point x="874" y="932" type="qcurve" smooth="yes"/>
      <point x="942" y="881"/>
      <point x="942" y="786" type="qcurve" smooth="yes"/>
      <point x="942" y="708"/>
      <point x="904" y="667" type="qcurve"/>
      <point x="865" y="627"/>
      <point x="788" y="627" type="qcurve" smooth="yes"/>
      <point x="722" y="627"/>
      <point x="688" y="652" type="qcurve"/>
      <point x="653" y="676"/>
      <point x="653" y="723" type="qcurve" smooth="yes"/>
      <point x="653" y="754"/>
      <point x="674" y="801" type="qcurve"/>
      <point x="694" y="849"/>
      <point x="694" y="864" type="qcurve" smooth="yes"/>
      <point x="694" y="884"/>
      <point x="680" y="896" type="qcurve" smooth="yes"/>
      <point x="666" y="909"/>
      <point x="643" y="909" type="qcurve" smooth="yes"/>
      <point x="606" y="909"/>
      <point x="564" y="888" type="qcurve"/>
      <point x="522" y="865"/>
      <point x="485" y="827" type="qcurve" smooth="yes"/>
      <point x="391" y="730"/>
      <point x="279" y="472"/>
      <point x="279" y="360" type="qcurve" smooth="yes"/>
      <point x="279" y="263"/>
      <point x="332" y="209" type="qcurve"/>
      <point x="383" y="154"/>
      <point x="475" y="154" type="qcurve" smooth="yes"/>
      <point x="553" y="154"/>
      <point x="623" y="198" type="qcurve"/>
      <point x="695" y="242"/>
    </contour>
  </outline>
</glyph>
<glyph name="d" format="1">
  <advance width="1204"/>
  <unicode hex="0064"/>
  <outline>
    <contour>
      <point x="704" y="724" type="line"/>
      <point x="702" y="812"/>
      <point x="676" y="859" type="qcurve"/>
      <point x="648" y="907"/>
      <point x="600" y="907" type="qcurve" smooth="yes"/>
      <point x="572" y="907"/>
      <point x="546" y="894" type="qcurve"/>
      <point x="517" y="881"/>
      <point x="494" y="858" type="qcurve" smooth="yes"/>
      <point x="452" y="818"/>
      <point x="422" y="770" type="qcurve"/>
      <point x="390" y="725"/>
      <point x="354" y="651" type="qcurve"/>
      <point x="309" y="554"/>
      <point x="286" y="468" type="qcurve" smooth="yes"/>
      <point x="262" y="381"/>
      <point x="262" y="311" type="qcurve" smooth="yes"/>
      <point x="262" y="236"/>
      <point x="290" y="192" type="qcurve"/>
      <point x="320" y="150"/>
      <point x="371" y="150" type="qcurve" smooth="yes"/>
      <point x="431" y="150"/>
      <point x="502" y="230" type="qcurve"/>
      <point x="573" y="312"/>
      <point x="649" y="471" type="qcurve"/>
    </contour>
    <contour>
      <point x="1159" y="1544" type="line"/>
      <point x="885" y="310" type="line" smooth="yes"/>
      <point x="884" y="307"/>
      <point x="881" y="291"/>
      <point x="880" y="288" type="qcurve" smooth="yes"/>
      <point x="874" y="262"/>
      <point x="874" y="250" type="qcurve" smooth="yes"/>
      <point x="874" y="229"/>
      <point x="884" y="218" type="qcurve" smooth="yes"/>
      <point x="895" y="207"/>
      <point x="909" y="207" type="qcurve" smooth="yes"/>
      <point x="939" y="207"/>
      <point x="972" y="244" type="qcurve"/>
      <point x="1006" y="280"/>
      <point x="1040" y="350" type="qcurve"/>
      <point x="1092" y="326" type="line"/>
      <point x="1019" y="154"/>
      <point x="923" y="62" type="qcurve"/>
      <point x="828" y="-27"/>
      <point x="719" y="-27" type="qcurve" smooth="yes"/>
      <point x="655" y="-27"/>
      <point x="620" y="8" type="qcurve" smooth="yes"/>
      <point x="584" y="44"/>
      <point x="584" y="106" type="qcurve" smooth="yes"/>
      <point x="584" y="134"/>
      <point x="588" y="166" type="qcurve" smooth="yes"/>
      <point x="594" y="211"/>
      <point x="604" y="264" type="qcurve"/>
      <point x="511" y="109"/>
      <point x="420" y="42" type="qcurve"/>
      <point x="330" y="-27"/>
      <point x="221" y="-27" type="qcurve" smooth="yes"/>
      <point x="106" y="-27"/>
      <point x="40" y="48" type="qcurve"/>
      <point x="-27" y="122"/>
      <point x="-27" y="254" type="qcurve" smooth="yes"/>
      <point x="-27" y="384"/>
      <point x="34" y="532" type="qcurve"/>
      <point x="98" y="680"/>
      <point x="201" y="793" type="qcurve" smooth="yes"/>
      <point x="285" y="886"/>
      <point x="380" y="934" type="qcurve" smooth="yes"/>
      <point x="475" y="983"/>
      <point x="575" y="983" type="qcurve" smooth="yes"/>
      <point x="634" y="983"/>
      <point x="676" y="959" type="qcurve" smooth="yes"/>
      <point x="719" y="934"/>
      <point x="741" y="889" type="qcurve"/>
      <point x="819" y="1245" type="line" smooth="yes"/>
      <point x="819" y="1246"/>
      <point x="825" y="1271"/>
      <point x="827" y="1280" type="qcurve" smooth="yes"/>
      <point x="840" y="1332"/>
      <point x="840" y="1352" type="qcurve" smooth="yes"/>
      <point x="840" y="1374"/>
      <point x="826" y="1385" type="qcurve" smooth="yes"/>
      <point x="813" y="1395"/>
      <point x="778" y="1395" type="qcurve" smooth="yes"/>
      <point x="764" y="1395"/>
      <point x="726" y="1392" type="qcurve" smooth="yes"/>
      <point x="719" y="1391"/>
      <point x="709" y="1391" type="qcurve"/>
      <point x="709" y="1444" type="line"/>
    </contour>
  </outline>
</glyph>
<glyph name="e" format="1">
  <advance width="1016"/>
  <unicode hex="0065"/>
  <outline>
    <contour>
      <point x="283" y="408" type="qcurve"/>
      <point x="280" y="398"/>
      <point x="280" y="387" type="qcurve"/>
      <point x="279" y="380"/>
      <point x="279" y="356" type="qcurve" smooth="yes"/>
      <point x="279" y="262"/>
      <point x="387" y="154"/>
      <point x="481" y="154" type="qcurve" smooth="yes"/>
      <point x="566" y="154"/>
      <point x="642" y="198" type="qcurve" smooth="yes"/>
      <point x="716" y="241"/>
      <point x="793" y="336" type="qcurve"/>
      <point x="840" y="301" type="line"/>
      <point x="727" y="133"/>
      <point x="604" y="53" type="qcurve"/>
      <point x="479" y="-27"/>
      <point x="330" y="-27" type="qcurve" smooth="yes"/>
      <point x="174" y="-27"/>
      <point x="83" y="58" type="qcurve" smooth="yes"/>
      <point x="-8" y="142"/>
      <point x="-8" y="287" type="qcurve" smooth="yes"/>
      <point x="-8" y="438"/>
      <point x="52" y="562" type="qcurve"/>
      <point x="110" y="686"/>
      <point x="244" y="809" type="qcurve" smooth="yes"/>
      <point x="333" y="892"/>
      <point x="443" y="938" type="qcurve"/>
      <point x="554" y="983"/>
      <point x="666" y="983" type="qcurve" smooth="yes"/>
      <point x="801" y="983"/>
      <point x="877" y="928" type="qcurve" smooth="yes"/>
      <point x="954" y="872"/>
      <point x="954" y="778" type="qcurve" smooth="yes"/>
      <point x="954" y="605"/>
      <point x="777" y="506" type="qcurve"/>
      <point x="599" y="408"/>
    </contour>
    <contour>
      <point x="299" y="467" type="qcurve"/>
      <point x="374" y="469"/>
      <point x="435" y="491" type="qcurve" smooth="yes"/>
      <point x="497" y="514"/>
      <point x="547" y="559" type="qcurve" smooth="yes"/>
      <point x="608" y="615"/>
      <point x="647" y="694" type="qcurve" smooth="yes"/>
      <point x="686" y="774"/>
      <point x="686" y="836" type="qcurve" smooth="yes"/>
      <point x="686" y="874"/>
      <point x="672" y="893" type="qcurve" smooth="yes"/>
      <point x="658" y="911"/>
      <point x="627" y="911" type="qcurve" smooth="yes"/>
      <point x="554" y="911"/>
      <point x="457" y="784" type="qcurve"/>
      <point x="361" y="661"/>
    </contour>
  </outline>
</glyph>
<glyph name="f" format="1">
  <advance width="674"/>
  <unicode hex="0066"/>
  <outline>
    <contour>
      <point x="520" y="980" type="qcurve"/>
      <point x="506" y="907" type="line"/>
      <point x="686" y="907" type="line"/>
      <point x="686" y="819" type="line"/>
      <point x="485" y="819" type="line"/>
      <point x="426" y="549" type="line"/>
      <point x="304" y="-2"/>
      <point x="174" y="-232" type="qcurve" smooth="yes"/>
      <point x="43" y="-465"/>
      <point x="-141" y="-465" type="qcurve" smooth="yes"/>
      <point x="-221" y="-465"/>
      <point x="-270" y="-422" type="qcurve"/>
      <point x="-319" y="-377"/>
      <point x="-319" y="-305" type="qcurve" smooth="yes"/>
      <point x="-319" y="-253"/>
      <point x="-287" y="-216" type="qcurve"/>
      <point x="-255" y="-182"/>
      <point x="-205" y="-182" type="qcurve" smooth="yes"/>
      <point x="-174" y="-182"/>
      <point x="-118" y="-218"/>
      <point x="-98" y="-250" type="qcurve" smooth="yes"/>
      <point x="-90" y="-264"/>
      <point x="-83" y="-278" type="qcurve" smooth="yes"/>
      <point x="-59" y="-324"/>
      <point x="-37" y="-324" type="qcurve" smooth="yes"/>
      <point x="-8" y="-324"/>
      <point x="12" y="-292" type="qcurve" smooth="yes"/>
      <point x="33" y="-259"/>
      <point x="45" y="-192" type="qcurve" smooth="yes"/>
      <point x="46" y="-190"/>
      <point x="76" y="86" type="qcurve"/>
      <point x="109" y="370"/>
      <point x="162" y="627" type="qcurve"/>
      <point x="203" y="819" type="line"/>
      <point x="4" y="819" type="line"/>
      <point x="4" y="907" type="line"/>
      <point x="223" y="907" type="line"/>
      <point x="246" y="1008" type="line"/>
      <point x="306" y="1260"/>
      <point x="422" y="1402" type="qcurve" smooth="yes"/>
      <point x="537" y="1544"/>
      <point x="684" y="1544" type="qcurve" smooth="yes"/>
      <point x="763" y="1544"/>
      <point x="818" y="1500" type="qcurve"/>
      <point x="870" y="1454"/>
      <point x="870" y="1389" type="qcurve" smooth="yes"/>
      <point x="870" y="1335"/>
      <point x="836" y="1301" type="qcurve" smooth="yes"/>
      <point x="801" y="1266"/>
      <point x="752" y="1266" type="qcurve" smooth="yes"/>
      <point x="724" y="1266"/>
      <point x="700" y="1278" type="qcurve"/>
      <point x="677" y="1288"/>
      <point x="662" y="1309" type="qcurve" smooth="yes"/>
      <point x="654" y="1320"/>
      <point x="641" y="1342" type="qcurve" smooth="yes"/>
      <point x="606" y="1401"/>
      <point x="550" y="1401"/>
      <point x="536" y="1376" type="qcurve"/>
      <point x="524" y="1349"/>
      <point x="524" y="1288" type="qcurve" smooth="yes"/>
      <point x="524" y="1258"/>
      <point x="530" y="1136"/>
      <point x="530" y="1102" type="qcurve" smooth="yes"/>
      <point x="530" y="1082"/>
      <point x="528" y="1042" type="qcurve"/>
      <point x="526" y="1024"/>
    </contour>
  </outline>
</glyph>
<glyph name="g" format="1">
  <advance width="1026"/>
  <unicode hex="0067"/>
  <outline>
    <contour>
      <point x="172" y="-12" type="qcurve"/>
      <point x="123" y="-44"/>
      <point x="100" y="-88" type="qcurve"/>
      <point x="74" y="-133"/>
      <point x="74" y="-188" type="qcurve" smooth="yes"/>
      <point x="74" y="-280"/>
      <point x="148" y="-336" type="qcurve" smooth="yes"/>
      <point x="222" y="-391"/>
      <point x="350" y="-391" type="qcurve" smooth="yes"/>
      <point x="448" y="-391"/>
      <point x="516" y="-348" type="qcurve" smooth="yes"/>
      <point x="584" y="-304"/>
      <point x="584" y="-244" type="qcurve" smooth="yes"/>
      <point x="584" y="-187"/>
      <point x="498" y="-137" type="qcurve" smooth="yes"/>
      <point x="411" y="-87"/>
    </contour>
    <contour>
      <point x="807" y="848" type="qcurve"/>
      <point x="837" y="812"/>
      <point x="852" y="770" type="qcurve"/>
      <point x="866" y="726"/>
      <point x="866" y="680" type="qcurve" smooth="yes"/>
      <point x="866" y="516"/>
      <point x="734" y="404" type="qcurve" smooth="yes"/>
      <point x="601" y="291"/>
      <point x="403" y="291" type="qcurve" smooth="yes"/>
      <point x="365" y="291"/>
      <point x="338" y="294" type="qcurve"/>
      <point x="316" y="295"/>
      <point x="291" y="301" type="qcurve"/>
      <point x="269" y="280"/>
      <point x="261" y="270" type="qcurve" smooth="yes"/>
      <point x="252" y="258"/>
      <point x="252" y="250" type="qcurve" smooth="yes"/>
      <point x="252" y="219"/>
      <point x="398" y="169" type="qcurve"/>
      <point x="500" y="136"/>
      <point x="547" y="117" type="qcurve" smooth="yes"/>
      <point x="672" y="69"/>
      <point x="784" y="-43"/>
      <point x="784" y="-119" type="qcurve" smooth="yes"/>
      <point x="784" y="-279"/>
      <point x="642" y="-372" type="qcurve" smooth="yes"/>
      <point x="501" y="-465"/>
      <point x="254" y="-465" type="qcurve" smooth="yes"/>
      <point x="42" y="-465"/>
      <point x="-79" y="-399" type="qcurve" smooth="yes"/>
      <point x="-201" y="-333"/>
      <point x="-201" y="-221" type="qcurve" smooth="yes"/>
      <point x="-201" y="-142"/>
      <point x="-134" y="-84" type="qcurve"/>
      <point x="-65" y="-26"/>
      <point x="88" y="25" type="qcurve"/>
      <point x="13" y="71"/>
      <point x="-10" y="98" type="qcurve"/>
      <point x="-35" y="124"/>
      <point x="-35" y="156" type="qcurve" smooth="yes"/>
      <point x="-35" y="208"/>
      <point x="28" y="252" type="qcurve" smooth="yes"/>
      <point x="91" y="297"/>
      <point x="217" y="336" type="qcurve"/>
      <point x="142" y="383"/>
      <point x="106" y="442" type="qcurve" smooth="yes"/>
      <point x="70" y="502"/>
      <point x="70" y="582" type="qcurve" smooth="yes"/>
      <point x="70" y="746"/>
      <point x="202" y="864" type="qcurve" smooth="yes"/>
      <point x="335" y="983"/>
      <point x="518" y="983" type="qcurve" smooth="yes"/>
      <point x="595" y="983"/>
      <point x="658" y="962" type="qcurve"/>
      <point x="720" y="939"/>
      <point x="760" y="899" type="qcurve"/>
      <point x="826" y="949"/>
      <point x="867" y="969" type="qcurve" smooth="yes"/>
      <point x="905" y="987"/>
      <point x="938" y="987" type="qcurve" smooth="yes"/>
      <point x="973" y="987"/>
      <point x="996" y="964" type="qcurve" smooth="yes"/>
      <point x="1018" y="942"/>
      <point x="1018" y="903" type="qcurve" smooth="yes"/>
      <point x="1018" y="867"/>
      <point x="976" y="819"/>
      <point x="946" y="819" type="qcurve" smooth="yes"/>
      <point x="922" y="819"/>
      <point x="894" y="840" type="qcurve"/>
      <point x="863" y="860"/>
      <point x="850" y="860" type="qcurve" smooth="yes"/>
      <point x="844" y="860"/>
      <point x="833" y="857" type="qcurve" smooth="yes"/>
      <point x="821" y="854"/>
    </contour>
    <contour>
      <point x="545" y="911" type="qcurve" smooth="yes"/>
      <point x="522" y="911"/>
      <point x="497" y="900" type="qcurve"/>
      <point x="475" y="889"/>
      <point x="457" y="868" type="qcurve" smooth="yes"/>
      <point x="398" y="800"/>
      <point x="364" y="694" type="qcurve"/>
      <point x="326" y="589"/>
      <point x="326" y="489" type="qcurve" smooth="yes"/>
      <point x="326" y="440"/>
      <point x="344" y="414" type="qcurve"/>
      <point x="364" y="387"/>
      <point x="399" y="387" type="qcurve" smooth="yes"/>
      <point x="430" y="387"/>
      <point x="460" y="408" type="qcurve" smooth="yes"/>
      <point x="490" y="430"/>
      <point x="516" y="469" type="qcurve" smooth="yes"/>
      <point x="564" y="543"/>
      <point x="593" y="638" type="qcurve" smooth="yes"/>
      <point x="623" y="736"/>
      <point x="623" y="815" type="qcurve" smooth="yes"/>
      <point x="623" y="860"/>
      <point x="602" y="885" type="qcurve" smooth="yes"/>
      <point x="579" y="911"/>
    </contour>
  </outline>
</glyph>
<glyph name="h" format="1">
  <advance width="1221"/>
  <unicode hex="0068"/>
  <outline>
    <contour>
      <point x="596" y="1544" type="line"/>
      <point x="377" y="578" type="line"/>
      <point x="563" y="806"/>
      <point x="678" y="895" type="qcurve"/>
      <point x="788" y="983"/>
      <point x="885" y="983" type="qcurve" smooth="yes"/>
      <point x="948" y="983"/>
      <point x="984" y="943" type="qcurve"/>
      <point x="1022" y="904"/>
      <point x="1022" y="836" type="qcurve" smooth="yes"/>
      <point x="1022" y="811"/>
      <point x="1018" y="788" type="qcurve" smooth="yes"/>
      <point x="1011" y="748"/>
      <point x="1004" y="723" type="qcurve" smooth="yes"/>
      <point x="889" y="310" type="line" smooth="yes"/>
      <point x="888" y="308"/>
      <point x="886" y="298"/>
      <point x="885" y="295" type="qcurve" smooth="yes"/>
      <point x="877" y="258"/>
      <point x="877" y="250" type="qcurve" smooth="yes"/>
      <point x="877" y="230"/>
      <point x="887" y="219" type="qcurve" smooth="yes"/>
      <point x="898" y="207"/>
      <point x="913" y="207" type="qcurve" smooth="yes"/>
      <point x="942" y="207"/>
      <point x="975" y="244" type="qcurve" smooth="yes"/>
      <point x="1007" y="279"/>
      <point x="1042" y="350" type="qcurve"/>
      <point x="1094" y="326" type="line"/>
      <point x="1020" y="156"/>
      <point x="927" y="64" type="qcurve"/>
      <point x="831" y="-27"/>
      <point x="733" y="-27" type="qcurve" smooth="yes"/>
      <point x="659" y="-27"/>
      <point x="617" y="12" type="qcurve"/>
      <point x="575" y="53"/>
      <point x="575" y="121" type="qcurve" smooth="yes"/>
      <point x="575" y="178"/>
      <point x="598" y="256" type="qcurve" smooth="yes"/>
      <point x="602" y="270"/>
      <point x="604" y="279" type="qcurve" smooth="yes"/>
      <point x="692" y="589" type="line"/>
      <point x="694" y="597" type="line"/>
      <point x="717" y="683"/>
      <point x="717" y="705" type="qcurve" smooth="yes"/>
      <point x="717" y="729"/>
      <point x="706" y="742" type="qcurve" smooth="yes"/>
      <point x="695" y="756"/>
      <point x="674" y="756" type="qcurve" smooth="yes"/>
      <point x="628" y="756"/>
      <point x="543" y="668" type="qcurve" smooth="yes"/>
      <point x="456" y="579"/>
      <point x="346" y="422" type="qcurve"/>
      <point x="254" y="0" type="line"/>
      <point x="-16" y="0" type="line"/>
      <point x="260" y="1245" type="line" smooth="yes"/>
      <point x="262" y="1251"/>
      <point x="269" y="1283"/>
      <point x="270" y="1288" type="qcurve" smooth="yes"/>
      <point x="281" y="1338"/>
      <point x="281" y="1350" type="qcurve" smooth="yes"/>
      <point x="281" y="1374"/>
      <point x="266" y="1385" type="qcurve" smooth="yes"/>
      <point x="253" y="1395"/>
      <point x="215" y="1395" type="qcurve" smooth="yes"/>
      <point x="202" y="1395"/>
      <point x="163" y="1392" type="qcurve" smooth="yes"/>
      <point x="157" y="1391"/>
      <point x="150" y="1391" type="qcurve"/>
      <point x="150" y="1444" type="line"/>
    </contour>
  </outline>
</glyph>
<glyph name="i" format="1">
  <advance width="690"/>
  <unicode hex="0069"/>
  <outline>
    <contour>
      <point x="518" y="983" type="line"/>
      <point x="342" y="309" type="line"/>
      <point x="335" y="277"/>
      <point x="334" y="270" type="qcurve" smooth="yes"/>
      <point x="332" y="256"/>
      <point x="332" y="250" type="qcurve" smooth="yes"/>
      <point x="332" y="232"/>
      <point x="342" y="219" type="qcurve"/>
      <point x="354" y="207"/>
      <point x="369" y="207" type="qcurve" smooth="yes"/>
      <point x="397" y="207"/>
      <point x="430" y="244" type="qcurve" smooth="yes"/>
      <point x="465" y="282"/>
      <point x="498" y="350" type="qcurve"/>
      <point x="549" y="326" type="line"/>
      <point x="476" y="154"/>
      <point x="380" y="62" type="qcurve"/>
      <point x="283" y="-27"/>
      <point x="172" y="-27" type="qcurve" smooth="yes"/>
      <point x="103" y="-27"/>
      <point x="60" y="10" type="qcurve"/>
      <point x="18" y="48"/>
      <point x="18" y="106" type="qcurve" smooth="yes"/>
      <point x="18" y="156"/>
      <point x="44" y="257" type="qcurve" smooth="yes"/>
      <point x="45" y="261"/>
      <point x="48" y="276"/>
      <point x="49" y="279" type="qcurve" smooth="yes"/>
      <point x="154" y="685" type="line"/>
      <point x="164" y="729"/>
      <point x="168" y="751" type="qcurve" smooth="yes"/>
      <point x="174" y="780"/>
      <point x="174" y="791" type="qcurve" smooth="yes"/>
      <point x="174" y="814"/>
      <point x="159" y="824" type="qcurve" smooth="yes"/>
      <point x="145" y="834"/>
      <point x="109" y="834" type="qcurve"/>
      <point x="92" y="832"/>
      <point x="59" y="831" type="qcurve" smooth="yes"/>
      <point x="56" y="831"/>
      <point x="45" y="830"/>
      <point x="43" y="829" type="qcurve"/>
      <point x="43" y="883" type="line"/>
    </contour>
    <contour>
      <point x="414" y="1489" type="qcurve" smooth="yes"/>
      <point x="479" y="1489"/>
      <point x="524" y="1444" type="qcurve" smooth="yes"/>
      <point x="569" y="1398"/>
      <point x="569" y="1333" type="qcurve" smooth="yes"/>
      <point x="569" y="1268"/>
      <point x="479" y="1178"/>
      <point x="414" y="1178" type="qcurve" smooth="yes"/>
      <point x="350" y="1178"/>
      <point x="304" y="1224" type="qcurve" smooth="yes"/>
      <point x="258" y="1269"/>
      <point x="258" y="1397"/>
      <point x="350" y="1489"/>
    </contour>
  </outline>
</glyph>
<glyph name="j" format="1">
  <advance width="584"/>
  <unicode hex="006A"/>
  <outline>
    <contour>
      <point x="512" y="983" type="line"/>
      <point x="305" y="49" type="line" smooth="yes"/>
      <point x="253" y="-189"/>
      <point x="140" y="-327" type="qcurve" smooth="yes"/>
      <point x="26" y="-465"/>
      <point x="-115" y="-465" type="qcurve" smooth="yes"/>
      <point x="-194" y="-465"/>
      <point x="-244" y="-421" type="qcurve" smooth="yes"/>
      <point x="-293" y="-378"/>
      <point x="-293" y="-305" type="qcurve" smooth="yes"/>
      <point x="-293" y="-252"/>
      <point x="-260" y="-216" type="qcurve" smooth="yes"/>
      <point x="-228" y="-182"/>
      <point x="-178" y="-182" type="qcurve" smooth="yes"/>
      <point x="-147" y="-182"/>
      <point x="-120" y="-200" type="qcurve" smooth="yes"/>
      <point x="-92" y="-218"/>
      <point x="-72" y="-250" type="qcurve" smooth="yes"/>
      <point x="-69" y="-255"/>
      <point x="-55" y="-280" type="qcurve" smooth="yes"/>
      <point x="-32" y="-324"/>
      <point x="-12" y="-324" type="qcurve" smooth="yes"/>
      <point x="11" y="-324"/>
      <point x="28" y="-300" type="qcurve"/>
      <point x="43" y="-276"/>
      <point x="43" y="-238" type="qcurve" smooth="yes"/>
      <point x="43" y="-206"/>
      <point x="34" y="-126" type="qcurve" smooth="yes"/>
      <point x="25" y="-48"/>
      <point x="25" y="0" type="qcurve" smooth="yes"/>
      <point x="25" y="52"/>
      <point x="46" y="153" type="qcurve" smooth="yes"/>
      <point x="47" y="159"/>
      <point x="51" y="175"/>
      <point x="51" y="178" type="qcurve" smooth="yes"/>
      <point x="164" y="684" type="line"/>
      <point x="166" y="698"/>
      <point x="173" y="727" type="qcurve" smooth="yes"/>
      <point x="184" y="777"/>
      <point x="184" y="788" type="qcurve" smooth="yes"/>
      <point x="184" y="812"/>
      <point x="169" y="824" type="qcurve"/>
      <point x="152" y="834"/>
      <point x="117" y="834" type="qcurve" smooth="yes"/>
      <point x="100" y="834"/>
      <point x="64" y="830" type="qcurve"/>
      <point x="54" y="830"/>
      <point x="51" y="829" type="qcurve"/>
      <point x="51" y="883" type="line"/>
    </contour>
    <contour>
      <point x="487" y="1489"/>
      <point x="534" y="1443" type="qcurve"/>
      <point x="580" y="1395"/>
      <point x="580" y="1333" type="qcurve" smooth="yes"/>
      <point x="580" y="1267"/>
      <point x="534" y="1222" type="qcurve"/>
      <point x="487" y="1178"/>
      <point x="422" y="1178" type="qcurve" smooth="yes"/>
      <point x="358" y="1178"/>
      <point x="266" y="1268"/>
      <point x="266" y="1398"/>
      <point x="312" y="1444" type="qcurve" smooth="yes"/>
      <point x="357" y="1489"/>
    </contour>
  </outline>
</glyph>
<glyph name="k" format="1">
  <advance width="1165"/>
  <unicode hex="006B"/>
  <outline>
    <contour>
      <point x="596" y="1544" type="line"/>
      <point x="375" y="543" type="line"/>
      <point x="698" y="776" type="line" smooth="yes"/>
      <point x="727" y="796"/>
      <point x="744" y="818" type="qcurve" smooth="yes"/>
      <point x="760" y="838"/>
      <point x="760" y="858" type="qcurve" smooth="yes"/>
      <point x="760" y="881"/>
      <point x="731" y="892" type="qcurve" smooth="yes"/>
      <point x="704" y="903"/>
      <point x="639" y="908" type="qcurve"/>
      <point x="639" y="960" type="line"/>
      <point x="750" y="953"/>
      <point x="774" y="952" type="qcurve" smooth="yes"/>
      <point x="858" y="950"/>
      <point x="891" y="950" type="qcurve" smooth="yes"/>
      <point x="926" y="950"/>
      <point x="1008" y="952" type="qcurve" smooth="yes"/>
      <point x="1034" y="953"/>
      <point x="1139" y="960" type="qcurve"/>
      <point x="1138" y="907" type="line"/>
      <point x="1071" y="901"/>
      <point x="1014" y="876" type="qcurve"/>
      <point x="956" y="853"/>
      <point x="858" y="784" type="qcurve"/>
      <point x="694" y="666" type="line"/>
      <point x="743" y="377" type="line" smooth="yes"/>
      <point x="759" y="284"/>
      <point x="786" y="235" type="qcurve" smooth="yes"/>
      <point x="812" y="188"/>
      <point x="848" y="188" type="qcurve" smooth="yes"/>
      <point x="877" y="188"/>
      <point x="910" y="216" type="qcurve"/>
      <point x="944" y="248"/>
      <point x="981" y="307" type="qcurve"/>
      <point x="1030" y="281" type="line"/>
      <point x="966" y="124"/>
      <point x="894" y="48" type="qcurve"/>
      <point x="820" y="-27"/>
      <point x="735" y="-27" type="qcurve" smooth="yes"/>
      <point x="616" y="-27"/>
      <point x="553" y="86" type="qcurve" smooth="yes"/>
      <point x="489" y="200"/>
      <point x="455" y="494" type="qcurve"/>
      <point x="346" y="420" type="line"/>
      <point x="254" y="0" type="line"/>
      <point x="-16" y="0" type="line"/>
      <point x="260" y="1245" type="line" smooth="yes"/>
      <point x="262" y="1251"/>
      <point x="269" y="1283"/>
      <point x="270" y="1288" type="qcurve" smooth="yes"/>
      <point x="281" y="1338"/>
      <point x="281" y="1350" type="qcurve" smooth="yes"/>
      <point x="281" y="1374"/>
      <point x="266" y="1385" type="qcurve" smooth="yes"/>
      <point x="253" y="1395"/>
      <point x="215" y="1395" type="qcurve" smooth="yes"/>
      <point x="202" y="1395"/>
      <point x="163" y="1392" type="qcurve" smooth="yes"/>
      <point x="157" y="1391"/>
      <point x="150" y="1391" type="qcurve"/>
      <point x="150" y="1444" type="line"/>
    </contour>
  </outline>
</glyph>
<glyph name="l" format="1">
  <advance width="664"/>
  <unicode hex="006C"/>
  <outline>
    <contour>
      <point x="600" y="1544" type="line"/>
      <point x="326" y="310" type="line" smooth="yes"/>
      <point x="326" y="308"/>
      <point x="323" y="297"/>
      <point x="322" y="294" type="qcurve" smooth="yes"/>
      <point x="313" y="262"/>
      <point x="313" y="250" type="qcurve" smooth="yes"/>
      <point x="313" y="230"/>
      <point x="324" y="219" type="qcurve"/>
      <point x="333" y="207"/>
      <point x="350" y="207" type="qcurve" smooth="yes"/>
      <point x="379" y="207"/>
      <point x="412" y="244" type="qcurve" smooth="yes"/>
      <point x="444" y="279"/>
      <point x="479" y="350" type="qcurve"/>
      <point x="530" y="326" type="line"/>
      <point x="458" y="157"/>
      <point x="364" y="64" type="qcurve"/>
      <point x="268" y="-27"/>
      <point x="170" y="-27" type="qcurve" smooth="yes"/>
      <point x="102" y="-27"/>
      <point x="62" y="10" type="qcurve"/>
      <point x="20" y="47"/>
      <point x="20" y="104" type="qcurve" smooth="yes"/>
      <point x="20" y="163"/>
      <point x="42" y="247" type="qcurve" smooth="yes"/>
      <point x="46" y="267"/>
      <point x="49" y="276"/>
      <point x="49" y="279" type="qcurve" smooth="yes"/>
      <point x="262" y="1245" type="line"/>
      <point x="263" y="1250" type="line"/>
      <point x="283" y="1336"/>
      <point x="283" y="1352" type="qcurve" smooth="yes"/>
      <point x="283" y="1374"/>
      <point x="268" y="1385" type="qcurve" smooth="yes"/>
      <point x="254" y="1395"/>
      <point x="217" y="1395" type="qcurve" smooth="yes"/>
      <point x="202" y="1395"/>
      <point x="168" y="1392" type="qcurve" smooth="yes"/>
      <point x="161" y="1391"/>
      <point x="152" y="1391" type="qcurve"/>
      <point x="152" y="1444" type="line"/>
    </contour>
  </outline>
</glyph>
<glyph name="m" format="1">
  <advance width="1759"/>
  <unicode hex="006D"/>
  <outline>
    <contour>
      <point x="477" y="983" type="line"/>
      <point x="387" y="578" type="line"/>
      <point x="568" y="797"/>
      <point x="678" y="888" type="qcurve"/>
      <point x="791" y="983"/>
      <point x="870" y="983" type="qcurve" smooth="yes"/>
      <point x="924" y="983"/>
      <point x="955" y="943" type="qcurve" smooth="yes"/>
      <point x="987" y="902"/>
      <point x="987" y="836" type="qcurve" smooth="yes"/>
      <point x="987" y="796"/>
      <point x="972" y="728" type="qcurve"/>
      <point x="971" y="723" type="line"/>
      <point x="938" y="578" type="line"/>
      <point x="1145" y="818"/>
      <point x="1246" y="900" type="qcurve"/>
      <point x="1350" y="983"/>
      <point x="1425" y="983" type="qcurve" smooth="yes"/>
      <point x="1487" y="983"/>
      <point x="1565" y="901"/>
      <point x="1565" y="836" type="qcurve" smooth="yes"/>
      <point x="1565" y="816"/>
      <point x="1560" y="786" type="qcurve" smooth="yes"/>
      <point x="1557" y="767"/>
      <point x="1544" y="723" type="qcurve" smooth="yes"/>
      <point x="1430" y="310" type="line"/>
      <point x="1423" y="290"/>
      <point x="1422" y="277" type="qcurve"/>
      <point x="1419" y="262"/>
      <point x="1419" y="250" type="qcurve" smooth="yes"/>
      <point x="1419" y="229"/>
      <point x="1429" y="220" type="qcurve"/>
      <point x="1439" y="209"/>
      <point x="1456" y="209" type="qcurve" smooth="yes"/>
      <point x="1484" y="209"/>
      <point x="1518" y="245" type="qcurve" smooth="yes"/>
      <point x="1550" y="280"/>
      <point x="1585" y="350" type="qcurve"/>
      <point x="1636" y="326" type="line"/>
      <point x="1563" y="157"/>
      <point x="1468" y="64" type="qcurve"/>
      <point x="1372" y="-27"/>
      <point x="1274" y="-27" type="qcurve" smooth="yes"/>
      <point x="1211" y="-27"/>
      <point x="1168" y="14" type="qcurve"/>
      <point x="1128" y="56"/>
      <point x="1128" y="121" type="qcurve" smooth="yes"/>
      <point x="1128" y="178"/>
      <point x="1151" y="256" type="qcurve" smooth="yes"/>
      <point x="1155" y="270"/>
      <point x="1157" y="279" type="qcurve" smooth="yes"/>
      <point x="1243" y="590" type="line" smooth="yes"/>
      <point x="1248" y="607"/>
      <point x="1262" y="660" type="qcurve"/>
      <point x="1268" y="690"/>
      <point x="1268" y="707" type="qcurve" smooth="yes"/>
      <point x="1268" y="729"/>
      <point x="1257" y="743" type="qcurve" smooth="yes"/>
      <point x="1247" y="756"/>
      <point x="1227" y="756" type="qcurve" smooth="yes"/>
      <point x="1193" y="756"/>
      <point x="1108" y="668" type="qcurve" smooth="yes"/>
      <point x="1018" y="575"/>
      <point x="903" y="422" type="qcurve"/>
      <point x="811" y="0" type="line"/>
      <point x="551" y="0" type="line"/>
      <point x="682" y="590" type="line" smooth="yes"/>
      <point x="685" y="605"/>
      <point x="695" y="654"/>
      <point x="696" y="660" type="qcurve" smooth="yes"/>
      <point x="700" y="698"/>
      <point x="700" y="707" type="qcurve" smooth="yes"/>
      <point x="700" y="731"/>
      <point x="692" y="744" type="qcurve"/>
      <point x="683" y="756"/>
      <point x="666" y="756" type="qcurve" smooth="yes"/>
      <point x="632" y="756"/>
      <point x="546" y="666" type="qcurve"/>
      <point x="458" y="572"/>
      <point x="352" y="422" type="qcurve"/>
      <point x="262" y="0" type="line"/>
      <point x="2" y="0" type="line"/>
      <point x="154" y="685" type="line"/>
      <point x="157" y="700" type="line"/>
      <point x="174" y="779"/>
      <point x="174" y="791" type="qcurve" smooth="yes"/>
      <point x="174" y="814"/>
      <point x="159" y="824" type="qcurve" smooth="yes"/>
      <point x="145" y="834"/>
      <point x="109" y="834" type="qcurve"/>
      <point x="92" y="832"/>
      <point x="59" y="831" type="qcurve" smooth="yes"/>
      <point x="56" y="831"/>
      <point x="45" y="830"/>
      <point x="43" y="829" type="qcurve"/>
      <point x="43" y="883" type="line"/>
    </contour>
  </outline>
</glyph>
<glyph name="n" format="1">
  <advance width="1237"/>
  <unicode hex="006E"/>
  <outline>
    <contour>
      <point x="485" y="983" type="line"/>
      <point x="395" y="578" type="line"/>
      <point x="586" y="810"/>
      <point x="696" y="894" type="qcurve"/>
      <point x="806" y="983"/>
      <point x="901" y="983" type="qcurve" smooth="yes"/>
      <point x="965" y="983"/>
      <point x="1002" y="942" type="qcurve"/>
      <point x="1040" y="902"/>
      <point x="1040" y="836" type="qcurve" smooth="yes"/>
      <point x="1040" y="822"/>
      <point x="1036" y="786" type="qcurve"/>
      <point x="1028" y="752"/>
      <point x="1020" y="723" type="qcurve" smooth="yes"/>
      <point x="905" y="309" type="line" smooth="yes"/>
      <point x="899" y="287"/>
      <point x="898" y="277" type="qcurve" smooth="yes"/>
      <point x="895" y="262"/>
      <point x="895" y="250" type="qcurve" smooth="yes"/>
      <point x="895" y="229"/>
      <point x="904" y="220" type="qcurve" smooth="yes"/>
      <point x="914" y="209"/>
      <point x="932" y="209" type="qcurve" smooth="yes"/>
      <point x="960" y="209"/>
      <point x="993" y="245" type="qcurve" smooth="yes"/>
      <point x="1027" y="282"/>
      <point x="1061" y="350" type="qcurve"/>
      <point x="1112" y="326" type="line"/>
      <point x="1039" y="157"/>
      <point x="944" y="64" type="qcurve"/>
      <point x="848" y="-27"/>
      <point x="750" y="-27" type="qcurve" smooth="yes"/>
      <point x="673" y="-27"/>
      <point x="634" y="13" type="qcurve" smooth="yes"/>
      <point x="594" y="53"/>
      <point x="594" y="129" type="qcurve" smooth="yes"/>
      <point x="594" y="176"/>
      <point x="616" y="254" type="qcurve" smooth="yes"/>
      <point x="622" y="276"/>
      <point x="623" y="279" type="qcurve" smooth="yes"/>
      <point x="711" y="590" type="line" smooth="yes"/>
      <point x="720" y="622"/>
      <point x="727" y="657" type="qcurve" smooth="yes"/>
      <point x="733" y="689"/>
      <point x="733" y="707" type="qcurve" smooth="yes"/>
      <point x="733" y="732"/>
      <point x="722" y="744" type="qcurve"/>
      <point x="713" y="756"/>
      <point x="692" y="756" type="qcurve" smooth="yes"/>
      <point x="647" y="756"/>
      <point x="560" y="668" type="qcurve" smooth="yes"/>
      <point x="473" y="580"/>
      <point x="362" y="422" type="qcurve"/>
      <point x="272" y="0" type="line"/>
      <point x="2" y="0" type="line"/>
      <point x="154" y="685" type="line"/>
      <point x="157" y="700" type="line"/>
      <point x="174" y="779"/>
      <point x="174" y="791" type="qcurve" smooth="yes"/>
      <point x="174" y="814"/>
      <point x="159" y="824" type="qcurve" smooth="yes"/>
      <point x="145" y="834"/>
      <point x="109" y="834" type="qcurve"/>
      <point x="92" y="832"/>
      <point x="59" y="831" type="qcurve" smooth="yes"/>
      <point x="56" y="831"/>
      <point x="45" y="830"/>
      <point x="43" y="829" type="qcurve"/>
      <point x="43" y="883" type="line"/>
    </contour>
  </outline>
</glyph>
<glyph name="o" format="1">
  <advance width="1092"/>
  <unicode hex="006F"/>
  <outline>
    <contour>
      <point x="635" y="911" type="qcurve" smooth="yes"/>
      <point x="569" y="911"/>
      <point x="508" y="861" type="qcurve"/>
      <point x="449" y="811"/>
      <point x="399" y="713" type="qcurve"/>
      <point x="339" y="592"/>
      <point x="307" y="473" type="qcurve" smooth="yes"/>
      <point x="274" y="352"/>
      <point x="274" y="250" type="qcurve" smooth="yes"/>
      <point x="274" y="165"/>
      <point x="308" y="116" type="qcurve"/>
      <point x="344" y="68"/>
      <point x="403" y="68" type="qcurve" smooth="yes"/>
      <point x="463" y="68"/>
      <point x="517" y="120" type="qcurve"/>
      <point x="569" y="173"/>
      <point x="627" y="297" type="qcurve"/>
      <point x="684" y="422"/>
      <point x="714" y="540" type="qcurve"/>
      <point x="745" y="657"/>
      <point x="745" y="760" type="qcurve" smooth="yes"/>
      <point x="745" y="835"/>
      <point x="718" y="874" type="qcurve"/>
      <point x="690" y="911"/>
    </contour>
    <contour>
      <point x="629" y="983" type="qcurve" smooth="yes"/>
      <point x="798" y="983"/>
      <point x="901" y="884" type="qcurve"/>
      <point x="1004" y="787"/>
      <point x="1004" y="625" type="qcurve" smooth="yes"/>
      <point x="1004" y="518"/>
      <point x="962" y="409" type="qcurve"/>
      <point x="922" y="302"/>
      <point x="844" y="199" type="qcurve"/>
      <point x="755" y="84"/>
      <point x="643" y="29" type="qcurve" smooth="yes"/>
      <point x="529" y="-27"/>
      <point x="391" y="-27" type="qcurve" smooth="yes"/>
      <point x="202" y="-27"/>
      <point x="96" y="68" type="qcurve" smooth="yes"/>
      <point x="-10" y="164"/>
      <point x="-10" y="336" type="qcurve" smooth="yes"/>
      <point x="-10" y="431"/>
      <point x="22" y="527" type="qcurve"/>
      <point x="54" y="619"/>
      <point x="117" y="705" type="qcurve" smooth="yes"/>
      <point x="213" y="836"/>
      <point x="348" y="910" type="qcurve" smooth="yes"/>
      <point x="482" y="983"/>
    </contour>
  </outline>
</glyph>
<glyph name="p" format="1">
  <advance width="1112"/>
  <unicode hex="0070"/>
  <outline>
    <contour>
      <point x="340" y="311" type="line"/>
      <point x="335" y="296"/>
      <point x="334" y="277" type="qcurve" smooth="yes"/>
      <point x="332" y="251"/>
      <point x="332" y="236" type="qcurve" smooth="yes"/>
      <point x="332" y="168"/>
      <point x="362" y="130" type="qcurve" smooth="yes"/>
      <point x="391" y="92"/>
      <point x="444" y="92" type="qcurve" smooth="yes"/>
      <point x="507" y="92"/>
      <point x="560" y="141" type="qcurve" smooth="yes"/>
      <point x="614" y="191"/>
      <point x="662" y="289" type="qcurve" smooth="yes"/>
      <point x="700" y="366"/>
      <point x="724" y="456" type="qcurve"/>
      <point x="745" y="542"/>
      <point x="745" y="612" type="qcurve" smooth="yes"/>
      <point x="745" y="696"/>
      <point x="708" y="746" type="qcurve" smooth="yes"/>
      <point x="671" y="795"/>
      <point x="610" y="795" type="qcurve" smooth="yes"/>
      <point x="568" y="795"/>
      <point x="522" y="768" type="qcurve"/>
      <point x="474" y="737"/>
      <point x="424" y="682" type="qcurve"/>
    </contour>
    <contour>
      <point x="489" y="983" type="line"/>
      <point x="444" y="793" type="line"/>
      <point x="534" y="888"/>
      <point x="620" y="935" type="qcurve"/>
      <point x="704" y="983"/>
      <point x="782" y="983" type="qcurve" smooth="yes"/>
      <point x="897" y="983"/>
      <point x="965" y="900" type="qcurve" smooth="yes"/>
      <point x="1032" y="818"/>
      <point x="1032" y="674" type="qcurve" smooth="yes"/>
      <point x="1032" y="545"/>
      <point x="986" y="428" type="qcurve"/>
      <point x="942" y="312"/>
      <point x="852" y="207" type="qcurve" smooth="yes"/>
      <point x="764" y="105"/>
      <point x="670" y="54" type="qcurve"/>
      <point x="577" y="0"/>
      <point x="485" y="0" type="qcurve" smooth="yes"/>
      <point x="423" y="0"/>
      <point x="323" y="50"/>
      <point x="291" y="94" type="qcurve"/>
      <point x="205" y="-295" type="line" smooth="yes"/>
      <point x="203" y="-300"/>
      <point x="202" y="-308" type="qcurve" smooth="yes"/>
      <point x="195" y="-343"/>
      <point x="195" y="-354" type="qcurve" smooth="yes"/>
      <point x="195" y="-377"/>
      <point x="214" y="-386" type="qcurve"/>
      <point x="230" y="-395"/>
      <point x="293" y="-400" type="qcurve"/>
      <point x="293" y="-455" type="line"/>
      <point x="253" y="-452"/>
      <point x="178" y="-448" type="qcurve"/>
      <point x="96" y="-446"/>
      <point x="-2" y="-446"/>
      <point x="-82" y="-448" type="qcurve"/>
      <point x="-159" y="-452"/>
      <point x="-199" y="-455" type="qcurve"/>
      <point x="-199" y="-400" type="line"/>
      <point x="-131" y="-398"/>
      <point x="-106" y="-381" type="qcurve"/>
      <point x="-80" y="-365"/>
      <point x="-63" y="-287" type="qcurve" smooth="yes"/>
      <point x="156" y="685" type="line" smooth="yes"/>
      <point x="159" y="700"/>
      <point x="165" y="727" type="qcurve" smooth="yes"/>
      <point x="176" y="777"/>
      <point x="176" y="788" type="qcurve" smooth="yes"/>
      <point x="176" y="812"/>
      <point x="161" y="824" type="qcurve"/>
      <point x="144" y="834"/>
      <point x="109" y="834" type="qcurve"/>
      <point x="104" y="833"/>
      <point x="68" y="831"/>
      <point x="56" y="830" type="qcurve" smooth="yes"/>
      <point x="46" y="830"/>
      <point x="43" y="829" type="qcurve"/>
      <point x="43" y="883" type="line"/>
    </contour>
  </outline>
</glyph>
<glyph name="q" format="1">
  <advance width="1092"/>
  <unicode hex="0071"/>
  <outline>
    <contour>
      <point x="700" y="778" type="line" smooth="yes"/>
      <point x="701" y="783"/>
      <point x="704" y="799"/>
      <point x="704" y="801" type="qcurve" smooth="yes"/>
      <point x="704" y="810"/>
      <point x="705" y="815" type="qcurve"/>
      <point x="705" y="858"/>
      <point x="679" y="886" type="qcurve"/>
      <point x="652" y="911"/>
      <point x="608" y="911" type="qcurve" smooth="yes"/>
      <point x="566" y="911"/>
      <point x="524" y="878" type="qcurve"/>
      <point x="480" y="846"/>
      <point x="440" y="782" type="qcurve" smooth="yes"/>
      <point x="363" y="659"/>
      <point x="326" y="553" type="qcurve"/>
      <point x="285" y="443"/>
      <point x="285" y="356" type="qcurve" smooth="yes"/>
      <point x="285" y="276"/>
      <point x="347" y="184"/>
      <point x="399" y="184" type="qcurve" smooth="yes"/>
      <point x="472" y="184"/>
      <point x="536" y="254" type="qcurve" smooth="yes"/>
      <point x="601" y="325"/>
      <point x="625" y="432" type="qcurve" smooth="yes"/>
    </contour>
    <contour>
      <point x="786" y="872" type="qcurve"/>
      <point x="958" y="983" type="line"/>
      <point x="1016" y="983" type="line"/>
      <point x="731" y="-295" type="line" smooth="yes"/>
      <point x="728" y="-307"/>
      <point x="723" y="-336"/>
      <point x="722" y="-340" type="qcurve" smooth="yes"/>
      <point x="722" y="-343"/>
      <point x="721" y="-353"/>
      <point x="721" y="-354" type="qcurve" smooth="yes"/>
      <point x="721" y="-377"/>
      <point x="740" y="-386" type="qcurve" smooth="yes"/>
      <point x="757" y="-395"/>
      <point x="819" y="-400" type="qcurve"/>
      <point x="819" y="-455" type="line"/>
      <point x="779" y="-452"/>
      <point x="704" y="-448" type="qcurve"/>
      <point x="622" y="-446"/>
      <point x="524" y="-446"/>
      <point x="444" y="-448" type="qcurve"/>
      <point x="370" y="-452"/>
      <point x="328" y="-455" type="qcurve"/>
      <point x="328" y="-400" type="line"/>
      <point x="397" y="-399"/>
      <point x="423" y="-380" type="qcurve"/>
      <point x="448" y="-364"/>
      <point x="465" y="-287" type="qcurve" smooth="yes"/>
      <point x="573" y="207" type="line"/>
      <point x="494" y="101"/>
      <point x="410" y="50" type="qcurve" smooth="yes"/>
      <point x="327" y="0"/>
      <point x="231" y="0" type="qcurve" smooth="yes"/>
      <point x="113" y="0"/>
      <point x="45" y="74" type="qcurve"/>
      <point x="-23" y="150"/>
      <point x="-23" y="281" type="qcurve" smooth="yes"/>
      <point x="-23" y="370"/>
      <point x="10" y="467" type="qcurve"/>
      <point x="40" y="561"/>
      <point x="102" y="655" type="qcurve" smooth="yes"/>
      <point x="202" y="807"/>
      <point x="330" y="896" type="qcurve"/>
      <point x="459" y="983"/>
      <point x="582" y="983" type="qcurve" smooth="yes"/>
      <point x="659" y="983"/>
      <point x="706" y="957" type="qcurve"/>
      <point x="754" y="932"/>
    </contour>
  </outline>
</glyph>
<glyph name="r" format="1">
  <advance width="885"/>
  <unicode hex="0072"/>
  <outline>
    <contour>
      <point x="475" y="983" type="line"/>
      <point x="389" y="578" type="line"/>
      <point x="506" y="798"/>
      <point x="589" y="890" type="qcurve" smooth="yes"/>
      <point x="674" y="983"/>
      <point x="756" y="983" type="qcurve" smooth="yes"/>
      <point x="808" y="983"/>
      <point x="840" y="947" type="qcurve" smooth="yes"/>
      <point x="872" y="910"/>
      <point x="872" y="852" type="qcurve" smooth="yes"/>
      <point x="872" y="765"/>
      <point x="822" y="702" type="qcurve"/>
      <point x="774" y="639"/>
      <point x="705" y="639" type="qcurve" smooth="yes"/>
      <point x="652" y="639"/>
      <point x="596" y="723"/>
      <point x="588" y="723" type="qcurve" smooth="yes"/>
      <point x="555" y="723"/>
      <point x="495" y="642" type="qcurve"/>
      <point x="438" y="567"/>
      <point x="365" y="422" type="qcurve"/>
      <point x="272" y="0" type="line"/>
      <point x="2" y="0" type="line"/>
      <point x="154" y="685" type="line"/>
      <point x="157" y="700" type="line"/>
      <point x="174" y="779"/>
      <point x="174" y="791" type="qcurve" smooth="yes"/>
      <point x="174" y="814"/>
      <point x="159" y="824" type="qcurve" smooth="yes"/>
      <point x="145" y="834"/>
      <point x="109" y="834" type="qcurve"/>
      <point x="92" y="832"/>
      <point x="59" y="831" type="qcurve" smooth="yes"/>
      <point x="56" y="831"/>
      <point x="45" y="830"/>
      <point x="43" y="829" type="qcurve"/>
      <point x="43" y="883" type="line"/>
    </contour>
  </outline>
</glyph>
<glyph name="s" format="1">
  <advance width="858"/>
  <unicode hex="0073"/>
  <outline>
    <contour>
      <point x="733" y="950" type="qcurve"/>
      <point x="720" y="851"/>
      <point x="716" y="810" type="qcurve" smooth="yes"/>
      <point x="714" y="795"/>
      <point x="703" y="693"/>
      <point x="700" y="664" type="qcurve"/>
      <point x="647" y="664" type="line"/>
      <point x="641" y="775"/>
      <point x="584" y="842" type="qcurve" smooth="yes"/>
      <point x="526" y="911"/>
      <point x="442" y="911" type="qcurve" smooth="yes"/>
      <point x="394" y="911"/>
      <point x="366" y="884" type="qcurve"/>
      <point x="336" y="857"/>
      <point x="336" y="813" type="qcurve" smooth="yes"/>
      <point x="336" y="785"/>
      <point x="355" y="756" type="qcurve"/>
      <point x="376" y="726"/>
      <point x="446" y="657" type="qcurve" smooth="yes"/>
      <point x="452" y="651"/>
      <point x="486" y="620"/>
      <point x="496" y="610" type="qcurve" smooth="yes"/>
      <point x="686" y="427"/>
      <point x="686" y="299" type="qcurve" smooth="yes"/>
      <point x="686" y="151"/>
      <point x="508" y="-27"/>
      <point x="356" y="-27" type="qcurve" smooth="yes"/>
      <point x="305" y="-27"/>
      <point x="216" y="-4" type="qcurve"/>
      <point x="117" y="18"/>
      <point x="76" y="18" type="qcurve" smooth="yes"/>
      <point x="56" y="18"/>
      <point x="22" y="16" type="qcurve" smooth="yes"/>
      <point x="-2" y="15"/>
      <point x="-25" y="10" type="qcurve"/>
      <point x="-10" y="88"/>
      <point x="3" y="190" type="qcurve" smooth="yes"/>
      <point x="13" y="264"/>
      <point x="25" y="385" type="qcurve"/>
      <point x="78" y="385" type="line"/>
      <point x="109" y="239"/>
      <point x="182" y="153" type="qcurve"/>
      <point x="257" y="68"/>
      <point x="350" y="68" type="qcurve" smooth="yes"/>
      <point x="407" y="68"/>
      <point x="440" y="98" type="qcurve" smooth="yes"/>
      <point x="475" y="129"/>
      <point x="475" y="178" type="qcurve" smooth="yes"/>
      <point x="475" y="234"/>
      <point x="317" y="392" type="qcurve" smooth="yes"/>
      <point x="297" y="412" type="line"/>
      <point x="259" y="450" type="line" smooth="yes"/>
      <point x="96" y="612"/>
      <point x="96" y="723" type="qcurve" smooth="yes"/>
      <point x="96" y="837"/>
      <point x="182" y="910" type="qcurve"/>
      <point x="265" y="983"/>
      <point x="406" y="983" type="qcurve" smooth="yes"/>
      <point x="459" y="983"/>
      <point x="559" y="964" type="qcurve"/>
      <point x="649" y="944"/>
      <point x="688" y="944" type="qcurve" smooth="yes"/>
      <point x="702" y="944"/>
      <point x="709" y="946" type="qcurve"/>
      <point x="715" y="946"/>
    </contour>
  </outline>
</glyph>
<glyph name="t" format="1">
  <advance width="735"/>
  <unicode hex="0074"/>
  <outline>
    <contour>
      <point x="498" y="1323" type="qcurve"/>
      <point x="582" y="1323" type="line"/>
      <point x="494" y="928" type="line"/>
      <point x="684" y="928" type="line"/>
      <point x="684" y="842" type="line"/>
      <point x="475" y="842" type="line"/>
      <point x="356" y="309" type="line" smooth="yes"/>
      <point x="356" y="308"/>
      <point x="352" y="288" type="line" smooth="yes"/>
      <point x="346" y="262"/>
      <point x="346" y="252" type="qcurve" smooth="yes"/>
      <point x="346" y="228"/>
      <point x="356" y="217" type="qcurve"/>
      <point x="365" y="205"/>
      <point x="383" y="205" type="qcurve" smooth="yes"/>
      <point x="410" y="205"/>
      <point x="443" y="242" type="qcurve" smooth="yes"/>
      <point x="476" y="280"/>
      <point x="512" y="350" type="qcurve"/>
      <point x="563" y="326" type="line"/>
      <point x="491" y="157"/>
      <point x="301" y="-27"/>
      <point x="201" y="-27" type="qcurve" smooth="yes"/>
      <point x="128" y="-27"/>
      <point x="84" y="15" type="qcurve" smooth="yes"/>
      <point x="41" y="57"/>
      <point x="41" y="129" type="qcurve" smooth="yes"/>
      <point x="41" y="144"/>
      <point x="44" y="162" type="qcurve" smooth="yes"/>
      <point x="45" y="169"/>
      <point x="55" y="219" type="qcurve"/>
      <point x="193" y="842" type="line"/>
      <point x="76" y="842" type="line"/>
      <point x="76" y="909" type="line"/>
      <point x="225" y="941"/>
      <point x="330" y="1044" type="qcurve" smooth="yes"/>
      <point x="434" y="1145"/>
    </contour>
  </outline>
</glyph>
<glyph name="u" format="1">
  <advance width="1237"/>
  <unicode hex="0075"/>
  <outline>
    <contour>
      <point x="485" y="983" type="line"/>
      <point x="348" y="364" type="line" smooth="yes"/>
      <point x="344" y="349"/>
      <point x="335" y="299"/>
      <point x="334" y="296" type="qcurve" smooth="yes"/>
      <point x="330" y="258"/>
      <point x="330" y="250" type="qcurve" smooth="yes"/>
      <point x="330" y="225"/>
      <point x="344" y="208" type="qcurve"/>
      <point x="359" y="193"/>
      <point x="383" y="193" type="qcurve" smooth="yes"/>
      <point x="444" y="193"/>
      <point x="529" y="286" type="qcurve" smooth="yes"/>
      <point x="617" y="383"/>
      <point x="692" y="535" type="qcurve"/>
      <point x="784" y="956" type="line"/>
      <point x="1055" y="956" type="line"/>
      <point x="911" y="309" type="line" smooth="yes"/>
      <point x="904" y="281"/>
      <point x="903" y="272" type="qcurve" smooth="yes"/>
      <point x="901" y="256"/>
      <point x="901" y="250" type="qcurve" smooth="yes"/>
      <point x="901" y="230"/>
      <point x="912" y="219" type="qcurve"/>
      <point x="921" y="207"/>
      <point x="938" y="207" type="qcurve" smooth="yes"/>
      <point x="967" y="207"/>
      <point x="1000" y="244" type="qcurve" smooth="yes"/>
      <point x="1032" y="279"/>
      <point x="1067" y="350" type="qcurve"/>
      <point x="1118" y="326" type="line"/>
      <point x="1046" y="157"/>
      <point x="856" y="-27"/>
      <point x="756" y="-27" type="qcurve" smooth="yes"/>
      <point x="686" y="-27"/>
      <point x="606" y="47"/>
      <point x="606" y="115" type="qcurve" smooth="yes"/>
      <point x="606" y="143"/>
      <point x="616" y="192" type="qcurve" smooth="yes"/>
      <point x="625" y="241"/>
      <point x="649" y="340" type="qcurve"/>
      <point x="513" y="136"/>
      <point x="414" y="56" type="qcurve"/>
      <point x="316" y="-27"/>
      <point x="211" y="-27" type="qcurve" smooth="yes"/>
      <point x="131" y="-27"/>
      <point x="86" y="21" type="qcurve"/>
      <point x="39" y="68"/>
      <point x="39" y="152" type="qcurve" smooth="yes"/>
      <point x="39" y="168"/>
      <point x="41" y="194" type="qcurve" smooth="yes"/>
      <point x="42" y="214"/>
      <point x="47" y="233" type="qcurve" smooth="yes"/>
      <point x="148" y="685" type="line" smooth="yes"/>
      <point x="151" y="700"/>
      <point x="157" y="727" type="qcurve" smooth="yes"/>
      <point x="168" y="777"/>
      <point x="168" y="788" type="qcurve" smooth="yes"/>
      <point x="168" y="813"/>
      <point x="154" y="824" type="qcurve" smooth="yes"/>
      <point x="140" y="834"/>
      <point x="102" y="834" type="qcurve" smooth="yes"/>
      <point x="88" y="834"/>
      <point x="51" y="831" type="qcurve" smooth="yes"/>
      <point x="49" y="831"/>
      <point x="43" y="830"/>
      <point x="38" y="829"/>
      <point x="37" y="829" type="qcurve"/>
      <point x="37" y="883" type="line"/>
    </contour>
  </outline>
</glyph>
